%TF.GenerationSoftware,KiCad,Pcbnew,7.0.8*%
%TF.CreationDate,2024-01-30T16:00:28+08:00*%
%TF.ProjectId,esp32_temperature_controller,65737033-325f-4746-956d-706572617475,rev?*%
%TF.SameCoordinates,PX50e7ea0PY815a420*%
%TF.FileFunction,Legend,Bot*%
%TF.FilePolarity,Positive*%
%FSLAX46Y46*%
G04 Gerber Fmt 4.6, Leading zero omitted, Abs format (unit mm)*
G04 Created by KiCad (PCBNEW 7.0.8) date 2024-01-30 16:00:28*
%MOMM*%
%LPD*%
G01*
G04 APERTURE LIST*
%ADD10C,0.150000*%
%ADD11C,0.120000*%
G04 APERTURE END LIST*
D10*
X2967076Y6631781D02*
X3443266Y6631781D01*
X3443266Y6631781D02*
X3443266Y7631781D01*
X8615037Y1237343D02*
X8567418Y1284962D01*
X8567418Y1284962D02*
X8472180Y1332581D01*
X8472180Y1332581D02*
X8234085Y1332581D01*
X8234085Y1332581D02*
X8138847Y1284962D01*
X8138847Y1284962D02*
X8091228Y1237343D01*
X8091228Y1237343D02*
X8043609Y1142105D01*
X8043609Y1142105D02*
X8043609Y1046867D01*
X8043609Y1046867D02*
X8091228Y904010D01*
X8091228Y904010D02*
X8662656Y332581D01*
X8662656Y332581D02*
X8043609Y332581D01*
X7662656Y1237343D02*
X7615037Y1284962D01*
X7615037Y1284962D02*
X7519799Y1332581D01*
X7519799Y1332581D02*
X7281704Y1332581D01*
X7281704Y1332581D02*
X7186466Y1284962D01*
X7186466Y1284962D02*
X7138847Y1237343D01*
X7138847Y1237343D02*
X7091228Y1142105D01*
X7091228Y1142105D02*
X7091228Y1046867D01*
X7091228Y1046867D02*
X7138847Y904010D01*
X7138847Y904010D02*
X7710275Y332581D01*
X7710275Y332581D02*
X7091228Y332581D01*
X6472180Y1332581D02*
X6376942Y1332581D01*
X6376942Y1332581D02*
X6281704Y1284962D01*
X6281704Y1284962D02*
X6234085Y1237343D01*
X6234085Y1237343D02*
X6186466Y1142105D01*
X6186466Y1142105D02*
X6138847Y951629D01*
X6138847Y951629D02*
X6138847Y713534D01*
X6138847Y713534D02*
X6186466Y523058D01*
X6186466Y523058D02*
X6234085Y427820D01*
X6234085Y427820D02*
X6281704Y380200D01*
X6281704Y380200D02*
X6376942Y332581D01*
X6376942Y332581D02*
X6472180Y332581D01*
X6472180Y332581D02*
X6567418Y380200D01*
X6567418Y380200D02*
X6615037Y427820D01*
X6615037Y427820D02*
X6662656Y523058D01*
X6662656Y523058D02*
X6710275Y713534D01*
X6710275Y713534D02*
X6710275Y951629D01*
X6710275Y951629D02*
X6662656Y1142105D01*
X6662656Y1142105D02*
X6615037Y1237343D01*
X6615037Y1237343D02*
X6567418Y1284962D01*
X6567418Y1284962D02*
X6472180Y1332581D01*
X5853132Y1332581D02*
X5519799Y332581D01*
X5519799Y332581D02*
X5186466Y1332581D01*
X4900751Y618296D02*
X4424561Y618296D01*
X4995989Y332581D02*
X4662656Y1332581D01*
X4662656Y1332581D02*
X4329323Y332581D01*
X3424561Y427820D02*
X3472180Y380200D01*
X3472180Y380200D02*
X3615037Y332581D01*
X3615037Y332581D02*
X3710275Y332581D01*
X3710275Y332581D02*
X3853132Y380200D01*
X3853132Y380200D02*
X3948370Y475439D01*
X3948370Y475439D02*
X3995989Y570677D01*
X3995989Y570677D02*
X4043608Y761153D01*
X4043608Y761153D02*
X4043608Y904010D01*
X4043608Y904010D02*
X3995989Y1094486D01*
X3995989Y1094486D02*
X3948370Y1189724D01*
X3948370Y1189724D02*
X3853132Y1284962D01*
X3853132Y1284962D02*
X3710275Y1332581D01*
X3710275Y1332581D02*
X3615037Y1332581D01*
X3615037Y1332581D02*
X3472180Y1284962D01*
X3472180Y1284962D02*
X3424561Y1237343D01*
X8616913Y6631781D02*
X8616913Y7631781D01*
X8616913Y7631781D02*
X8045485Y6631781D01*
X8045485Y6631781D02*
X8045485Y7631781D01*
X36942399Y256381D02*
X36942399Y1256381D01*
X36942399Y780191D02*
X36370971Y780191D01*
X36370971Y256381D02*
X36370971Y1256381D01*
X35894780Y780191D02*
X35561447Y780191D01*
X35418590Y256381D02*
X35894780Y256381D01*
X35894780Y256381D02*
X35894780Y1256381D01*
X35894780Y1256381D02*
X35418590Y1256381D01*
X35037637Y542096D02*
X34561447Y542096D01*
X35132875Y256381D02*
X34799542Y1256381D01*
X34799542Y1256381D02*
X34466209Y256381D01*
X34275732Y1256381D02*
X33704304Y1256381D01*
X33990018Y256381D02*
X33990018Y1256381D01*
X33370970Y780191D02*
X33037637Y780191D01*
X32894780Y256381D02*
X33370970Y256381D01*
X33370970Y256381D02*
X33370970Y1256381D01*
X33370970Y1256381D02*
X32894780Y1256381D01*
X31894780Y256381D02*
X32228113Y732572D01*
X32466208Y256381D02*
X32466208Y1256381D01*
X32466208Y1256381D02*
X32085256Y1256381D01*
X32085256Y1256381D02*
X31990018Y1208762D01*
X31990018Y1208762D02*
X31942399Y1161143D01*
X31942399Y1161143D02*
X31894780Y1065905D01*
X31894780Y1065905D02*
X31894780Y923048D01*
X31894780Y923048D02*
X31942399Y827810D01*
X31942399Y827810D02*
X31990018Y780191D01*
X31990018Y780191D02*
X32085256Y732572D01*
X32085256Y732572D02*
X32466208Y732572D01*
X33780666Y13881181D02*
X34113999Y14357372D01*
X34352094Y13881181D02*
X34352094Y14881181D01*
X34352094Y14881181D02*
X33971142Y14881181D01*
X33971142Y14881181D02*
X33875904Y14833562D01*
X33875904Y14833562D02*
X33828285Y14785943D01*
X33828285Y14785943D02*
X33780666Y14690705D01*
X33780666Y14690705D02*
X33780666Y14547848D01*
X33780666Y14547848D02*
X33828285Y14452610D01*
X33828285Y14452610D02*
X33875904Y14404991D01*
X33875904Y14404991D02*
X33971142Y14357372D01*
X33971142Y14357372D02*
X34352094Y14357372D01*
X32875904Y14881181D02*
X33352094Y14881181D01*
X33352094Y14881181D02*
X33399713Y14404991D01*
X33399713Y14404991D02*
X33352094Y14452610D01*
X33352094Y14452610D02*
X33256856Y14500229D01*
X33256856Y14500229D02*
X33018761Y14500229D01*
X33018761Y14500229D02*
X32923523Y14452610D01*
X32923523Y14452610D02*
X32875904Y14404991D01*
X32875904Y14404991D02*
X32828285Y14309753D01*
X32828285Y14309753D02*
X32828285Y14071658D01*
X32828285Y14071658D02*
X32875904Y13976420D01*
X32875904Y13976420D02*
X32923523Y13928800D01*
X32923523Y13928800D02*
X33018761Y13881181D01*
X33018761Y13881181D02*
X33256856Y13881181D01*
X33256856Y13881181D02*
X33352094Y13928800D01*
X33352094Y13928800D02*
X33399713Y13976420D01*
X29430666Y61176420D02*
X29478285Y61128800D01*
X29478285Y61128800D02*
X29621142Y61081181D01*
X29621142Y61081181D02*
X29716380Y61081181D01*
X29716380Y61081181D02*
X29859237Y61128800D01*
X29859237Y61128800D02*
X29954475Y61224039D01*
X29954475Y61224039D02*
X30002094Y61319277D01*
X30002094Y61319277D02*
X30049713Y61509753D01*
X30049713Y61509753D02*
X30049713Y61652610D01*
X30049713Y61652610D02*
X30002094Y61843086D01*
X30002094Y61843086D02*
X29954475Y61938324D01*
X29954475Y61938324D02*
X29859237Y62033562D01*
X29859237Y62033562D02*
X29716380Y62081181D01*
X29716380Y62081181D02*
X29621142Y62081181D01*
X29621142Y62081181D02*
X29478285Y62033562D01*
X29478285Y62033562D02*
X29430666Y61985943D01*
X28573523Y62081181D02*
X28763999Y62081181D01*
X28763999Y62081181D02*
X28859237Y62033562D01*
X28859237Y62033562D02*
X28906856Y61985943D01*
X28906856Y61985943D02*
X29002094Y61843086D01*
X29002094Y61843086D02*
X29049713Y61652610D01*
X29049713Y61652610D02*
X29049713Y61271658D01*
X29049713Y61271658D02*
X29002094Y61176420D01*
X29002094Y61176420D02*
X28954475Y61128800D01*
X28954475Y61128800D02*
X28859237Y61081181D01*
X28859237Y61081181D02*
X28668761Y61081181D01*
X28668761Y61081181D02*
X28573523Y61128800D01*
X28573523Y61128800D02*
X28525904Y61176420D01*
X28525904Y61176420D02*
X28478285Y61271658D01*
X28478285Y61271658D02*
X28478285Y61509753D01*
X28478285Y61509753D02*
X28525904Y61604991D01*
X28525904Y61604991D02*
X28573523Y61652610D01*
X28573523Y61652610D02*
X28668761Y61700229D01*
X28668761Y61700229D02*
X28859237Y61700229D01*
X28859237Y61700229D02*
X28954475Y61652610D01*
X28954475Y61652610D02*
X29002094Y61604991D01*
X29002094Y61604991D02*
X29049713Y61509753D01*
X28030666Y62726420D02*
X28078285Y62678800D01*
X28078285Y62678800D02*
X28221142Y62631181D01*
X28221142Y62631181D02*
X28316380Y62631181D01*
X28316380Y62631181D02*
X28459237Y62678800D01*
X28459237Y62678800D02*
X28554475Y62774039D01*
X28554475Y62774039D02*
X28602094Y62869277D01*
X28602094Y62869277D02*
X28649713Y63059753D01*
X28649713Y63059753D02*
X28649713Y63202610D01*
X28649713Y63202610D02*
X28602094Y63393086D01*
X28602094Y63393086D02*
X28554475Y63488324D01*
X28554475Y63488324D02*
X28459237Y63583562D01*
X28459237Y63583562D02*
X28316380Y63631181D01*
X28316380Y63631181D02*
X28221142Y63631181D01*
X28221142Y63631181D02*
X28078285Y63583562D01*
X28078285Y63583562D02*
X28030666Y63535943D01*
X27697332Y63631181D02*
X27030666Y63631181D01*
X27030666Y63631181D02*
X27459237Y62631181D01*
X31662666Y92155181D02*
X31995999Y92631372D01*
X32234094Y92155181D02*
X32234094Y93155181D01*
X32234094Y93155181D02*
X31853142Y93155181D01*
X31853142Y93155181D02*
X31757904Y93107562D01*
X31757904Y93107562D02*
X31710285Y93059943D01*
X31710285Y93059943D02*
X31662666Y92964705D01*
X31662666Y92964705D02*
X31662666Y92821848D01*
X31662666Y92821848D02*
X31710285Y92726610D01*
X31710285Y92726610D02*
X31757904Y92678991D01*
X31757904Y92678991D02*
X31853142Y92631372D01*
X31853142Y92631372D02*
X32234094Y92631372D01*
X31329332Y93155181D02*
X30662666Y93155181D01*
X30662666Y93155181D02*
X31091237Y92155181D01*
X12447494Y12956381D02*
X12447494Y13956381D01*
X12447494Y13956381D02*
X12209399Y13956381D01*
X12209399Y13956381D02*
X12066542Y13908762D01*
X12066542Y13908762D02*
X11971304Y13813524D01*
X11971304Y13813524D02*
X11923685Y13718286D01*
X11923685Y13718286D02*
X11876066Y13527810D01*
X11876066Y13527810D02*
X11876066Y13384953D01*
X11876066Y13384953D02*
X11923685Y13194477D01*
X11923685Y13194477D02*
X11971304Y13099239D01*
X11971304Y13099239D02*
X12066542Y13004000D01*
X12066542Y13004000D02*
X12209399Y12956381D01*
X12209399Y12956381D02*
X12447494Y12956381D01*
X11018923Y13623048D02*
X11018923Y12956381D01*
X11257018Y14004000D02*
X11495113Y13289715D01*
X11495113Y13289715D02*
X10876066Y13289715D01*
X5602266Y41245620D02*
X5649885Y41198000D01*
X5649885Y41198000D02*
X5792742Y41150381D01*
X5792742Y41150381D02*
X5887980Y41150381D01*
X5887980Y41150381D02*
X6030837Y41198000D01*
X6030837Y41198000D02*
X6126075Y41293239D01*
X6126075Y41293239D02*
X6173694Y41388477D01*
X6173694Y41388477D02*
X6221313Y41578953D01*
X6221313Y41578953D02*
X6221313Y41721810D01*
X6221313Y41721810D02*
X6173694Y41912286D01*
X6173694Y41912286D02*
X6126075Y42007524D01*
X6126075Y42007524D02*
X6030837Y42102762D01*
X6030837Y42102762D02*
X5887980Y42150381D01*
X5887980Y42150381D02*
X5792742Y42150381D01*
X5792742Y42150381D02*
X5649885Y42102762D01*
X5649885Y42102762D02*
X5602266Y42055143D01*
X5221313Y42055143D02*
X5173694Y42102762D01*
X5173694Y42102762D02*
X5078456Y42150381D01*
X5078456Y42150381D02*
X4840361Y42150381D01*
X4840361Y42150381D02*
X4745123Y42102762D01*
X4745123Y42102762D02*
X4697504Y42055143D01*
X4697504Y42055143D02*
X4649885Y41959905D01*
X4649885Y41959905D02*
X4649885Y41864667D01*
X4649885Y41864667D02*
X4697504Y41721810D01*
X4697504Y41721810D02*
X5268932Y41150381D01*
X5268932Y41150381D02*
X4649885Y41150381D01*
X14784294Y22405181D02*
X14784294Y23405181D01*
X14784294Y23405181D02*
X14546199Y23405181D01*
X14546199Y23405181D02*
X14403342Y23357562D01*
X14403342Y23357562D02*
X14308104Y23262324D01*
X14308104Y23262324D02*
X14260485Y23167086D01*
X14260485Y23167086D02*
X14212866Y22976610D01*
X14212866Y22976610D02*
X14212866Y22833753D01*
X14212866Y22833753D02*
X14260485Y22643277D01*
X14260485Y22643277D02*
X14308104Y22548039D01*
X14308104Y22548039D02*
X14403342Y22452800D01*
X14403342Y22452800D02*
X14546199Y22405181D01*
X14546199Y22405181D02*
X14784294Y22405181D01*
X13879532Y23405181D02*
X13260485Y23405181D01*
X13260485Y23405181D02*
X13593818Y23024229D01*
X13593818Y23024229D02*
X13450961Y23024229D01*
X13450961Y23024229D02*
X13355723Y22976610D01*
X13355723Y22976610D02*
X13308104Y22928991D01*
X13308104Y22928991D02*
X13260485Y22833753D01*
X13260485Y22833753D02*
X13260485Y22595658D01*
X13260485Y22595658D02*
X13308104Y22500420D01*
X13308104Y22500420D02*
X13355723Y22452800D01*
X13355723Y22452800D02*
X13450961Y22405181D01*
X13450961Y22405181D02*
X13736675Y22405181D01*
X13736675Y22405181D02*
X13831913Y22452800D01*
X13831913Y22452800D02*
X13879532Y22500420D01*
X34975904Y91031181D02*
X34975904Y90221658D01*
X34975904Y90221658D02*
X34928285Y90126420D01*
X34928285Y90126420D02*
X34880666Y90078800D01*
X34880666Y90078800D02*
X34785428Y90031181D01*
X34785428Y90031181D02*
X34594952Y90031181D01*
X34594952Y90031181D02*
X34499714Y90078800D01*
X34499714Y90078800D02*
X34452095Y90126420D01*
X34452095Y90126420D02*
X34404476Y90221658D01*
X34404476Y90221658D02*
X34404476Y91031181D01*
X33404476Y90031181D02*
X33975904Y90031181D01*
X33690190Y90031181D02*
X33690190Y91031181D01*
X33690190Y91031181D02*
X33785428Y90888324D01*
X33785428Y90888324D02*
X33880666Y90793086D01*
X33880666Y90793086D02*
X33975904Y90745467D01*
X28180666Y84476420D02*
X28228285Y84428800D01*
X28228285Y84428800D02*
X28371142Y84381181D01*
X28371142Y84381181D02*
X28466380Y84381181D01*
X28466380Y84381181D02*
X28609237Y84428800D01*
X28609237Y84428800D02*
X28704475Y84524039D01*
X28704475Y84524039D02*
X28752094Y84619277D01*
X28752094Y84619277D02*
X28799713Y84809753D01*
X28799713Y84809753D02*
X28799713Y84952610D01*
X28799713Y84952610D02*
X28752094Y85143086D01*
X28752094Y85143086D02*
X28704475Y85238324D01*
X28704475Y85238324D02*
X28609237Y85333562D01*
X28609237Y85333562D02*
X28466380Y85381181D01*
X28466380Y85381181D02*
X28371142Y85381181D01*
X28371142Y85381181D02*
X28228285Y85333562D01*
X28228285Y85333562D02*
X28180666Y85285943D01*
X27323523Y85047848D02*
X27323523Y84381181D01*
X27561618Y85428800D02*
X27799713Y84714515D01*
X27799713Y84714515D02*
X27180666Y84714515D01*
X20600894Y13032581D02*
X20600894Y14032581D01*
X20600894Y14032581D02*
X20362799Y14032581D01*
X20362799Y14032581D02*
X20219942Y13984962D01*
X20219942Y13984962D02*
X20124704Y13889724D01*
X20124704Y13889724D02*
X20077085Y13794486D01*
X20077085Y13794486D02*
X20029466Y13604010D01*
X20029466Y13604010D02*
X20029466Y13461153D01*
X20029466Y13461153D02*
X20077085Y13270677D01*
X20077085Y13270677D02*
X20124704Y13175439D01*
X20124704Y13175439D02*
X20219942Y13080200D01*
X20219942Y13080200D02*
X20362799Y13032581D01*
X20362799Y13032581D02*
X20600894Y13032581D01*
X19648513Y13937343D02*
X19600894Y13984962D01*
X19600894Y13984962D02*
X19505656Y14032581D01*
X19505656Y14032581D02*
X19267561Y14032581D01*
X19267561Y14032581D02*
X19172323Y13984962D01*
X19172323Y13984962D02*
X19124704Y13937343D01*
X19124704Y13937343D02*
X19077085Y13842105D01*
X19077085Y13842105D02*
X19077085Y13746867D01*
X19077085Y13746867D02*
X19124704Y13604010D01*
X19124704Y13604010D02*
X19696132Y13032581D01*
X19696132Y13032581D02*
X19077085Y13032581D01*
X16108819Y12612667D02*
X15632628Y12946000D01*
X16108819Y13184095D02*
X15108819Y13184095D01*
X15108819Y13184095D02*
X15108819Y12803143D01*
X15108819Y12803143D02*
X15156438Y12707905D01*
X15156438Y12707905D02*
X15204057Y12660286D01*
X15204057Y12660286D02*
X15299295Y12612667D01*
X15299295Y12612667D02*
X15442152Y12612667D01*
X15442152Y12612667D02*
X15537390Y12660286D01*
X15537390Y12660286D02*
X15585009Y12707905D01*
X15585009Y12707905D02*
X15632628Y12803143D01*
X15632628Y12803143D02*
X15632628Y13184095D01*
X15204057Y12231714D02*
X15156438Y12184095D01*
X15156438Y12184095D02*
X15108819Y12088857D01*
X15108819Y12088857D02*
X15108819Y11850762D01*
X15108819Y11850762D02*
X15156438Y11755524D01*
X15156438Y11755524D02*
X15204057Y11707905D01*
X15204057Y11707905D02*
X15299295Y11660286D01*
X15299295Y11660286D02*
X15394533Y11660286D01*
X15394533Y11660286D02*
X15537390Y11707905D01*
X15537390Y11707905D02*
X16108819Y12279333D01*
X16108819Y12279333D02*
X16108819Y11660286D01*
X5246666Y28952420D02*
X5294285Y28904800D01*
X5294285Y28904800D02*
X5437142Y28857181D01*
X5437142Y28857181D02*
X5532380Y28857181D01*
X5532380Y28857181D02*
X5675237Y28904800D01*
X5675237Y28904800D02*
X5770475Y29000039D01*
X5770475Y29000039D02*
X5818094Y29095277D01*
X5818094Y29095277D02*
X5865713Y29285753D01*
X5865713Y29285753D02*
X5865713Y29428610D01*
X5865713Y29428610D02*
X5818094Y29619086D01*
X5818094Y29619086D02*
X5770475Y29714324D01*
X5770475Y29714324D02*
X5675237Y29809562D01*
X5675237Y29809562D02*
X5532380Y29857181D01*
X5532380Y29857181D02*
X5437142Y29857181D01*
X5437142Y29857181D02*
X5294285Y29809562D01*
X5294285Y29809562D02*
X5246666Y29761943D01*
X4294285Y28857181D02*
X4865713Y28857181D01*
X4579999Y28857181D02*
X4579999Y29857181D01*
X4579999Y29857181D02*
X4675237Y29714324D01*
X4675237Y29714324D02*
X4770475Y29619086D01*
X4770475Y29619086D02*
X4865713Y29571467D01*
X28380666Y91176420D02*
X28428285Y91128800D01*
X28428285Y91128800D02*
X28571142Y91081181D01*
X28571142Y91081181D02*
X28666380Y91081181D01*
X28666380Y91081181D02*
X28809237Y91128800D01*
X28809237Y91128800D02*
X28904475Y91224039D01*
X28904475Y91224039D02*
X28952094Y91319277D01*
X28952094Y91319277D02*
X28999713Y91509753D01*
X28999713Y91509753D02*
X28999713Y91652610D01*
X28999713Y91652610D02*
X28952094Y91843086D01*
X28952094Y91843086D02*
X28904475Y91938324D01*
X28904475Y91938324D02*
X28809237Y92033562D01*
X28809237Y92033562D02*
X28666380Y92081181D01*
X28666380Y92081181D02*
X28571142Y92081181D01*
X28571142Y92081181D02*
X28428285Y92033562D01*
X28428285Y92033562D02*
X28380666Y91985943D01*
X28047332Y92081181D02*
X27428285Y92081181D01*
X27428285Y92081181D02*
X27761618Y91700229D01*
X27761618Y91700229D02*
X27618761Y91700229D01*
X27618761Y91700229D02*
X27523523Y91652610D01*
X27523523Y91652610D02*
X27475904Y91604991D01*
X27475904Y91604991D02*
X27428285Y91509753D01*
X27428285Y91509753D02*
X27428285Y91271658D01*
X27428285Y91271658D02*
X27475904Y91176420D01*
X27475904Y91176420D02*
X27523523Y91128800D01*
X27523523Y91128800D02*
X27618761Y91081181D01*
X27618761Y91081181D02*
X27904475Y91081181D01*
X27904475Y91081181D02*
X27999713Y91128800D01*
X27999713Y91128800D02*
X28047332Y91176420D01*
X22404294Y22405181D02*
X22404294Y23405181D01*
X22404294Y23405181D02*
X22166199Y23405181D01*
X22166199Y23405181D02*
X22023342Y23357562D01*
X22023342Y23357562D02*
X21928104Y23262324D01*
X21928104Y23262324D02*
X21880485Y23167086D01*
X21880485Y23167086D02*
X21832866Y22976610D01*
X21832866Y22976610D02*
X21832866Y22833753D01*
X21832866Y22833753D02*
X21880485Y22643277D01*
X21880485Y22643277D02*
X21928104Y22548039D01*
X21928104Y22548039D02*
X22023342Y22452800D01*
X22023342Y22452800D02*
X22166199Y22405181D01*
X22166199Y22405181D02*
X22404294Y22405181D01*
X20880485Y22405181D02*
X21451913Y22405181D01*
X21166199Y22405181D02*
X21166199Y23405181D01*
X21166199Y23405181D02*
X21261437Y23262324D01*
X21261437Y23262324D02*
X21356675Y23167086D01*
X21356675Y23167086D02*
X21451913Y23119467D01*
X3214666Y22813181D02*
X3547999Y23289372D01*
X3786094Y22813181D02*
X3786094Y23813181D01*
X3786094Y23813181D02*
X3405142Y23813181D01*
X3405142Y23813181D02*
X3309904Y23765562D01*
X3309904Y23765562D02*
X3262285Y23717943D01*
X3262285Y23717943D02*
X3214666Y23622705D01*
X3214666Y23622705D02*
X3214666Y23479848D01*
X3214666Y23479848D02*
X3262285Y23384610D01*
X3262285Y23384610D02*
X3309904Y23336991D01*
X3309904Y23336991D02*
X3405142Y23289372D01*
X3405142Y23289372D02*
X3786094Y23289372D01*
X2881332Y23813181D02*
X2262285Y23813181D01*
X2262285Y23813181D02*
X2595618Y23432229D01*
X2595618Y23432229D02*
X2452761Y23432229D01*
X2452761Y23432229D02*
X2357523Y23384610D01*
X2357523Y23384610D02*
X2309904Y23336991D01*
X2309904Y23336991D02*
X2262285Y23241753D01*
X2262285Y23241753D02*
X2262285Y23003658D01*
X2262285Y23003658D02*
X2309904Y22908420D01*
X2309904Y22908420D02*
X2357523Y22860800D01*
X2357523Y22860800D02*
X2452761Y22813181D01*
X2452761Y22813181D02*
X2738475Y22813181D01*
X2738475Y22813181D02*
X2833713Y22860800D01*
X2833713Y22860800D02*
X2881332Y22908420D01*
D11*
%TO.C,R5*%
X30336936Y18646000D02*
X34691064Y18646000D01*
X30336936Y15226000D02*
X34691064Y15226000D01*
%TO.C,C6*%
X28850000Y63324665D02*
X28850000Y63556335D01*
X29570000Y63324665D02*
X29570000Y63556335D01*
%TO.C,C7*%
X27580000Y65102665D02*
X27580000Y65334335D01*
X28300000Y65102665D02*
X28300000Y65334335D01*
%TO.C,R7*%
X31663621Y91060000D02*
X31328379Y91060000D01*
X31663621Y91820000D02*
X31328379Y91820000D01*
%TO.C,D4*%
X10714000Y17652000D02*
X16224000Y17652000D01*
X10714000Y14352000D02*
X10714000Y17652000D01*
X10714000Y14352000D02*
X16224000Y14352000D01*
%TO.C,C2*%
X2080000Y36802000D02*
X2580000Y36802000D01*
X2330000Y36552000D02*
X2330000Y37052000D01*
X2820000Y39557563D02*
X2820000Y39422000D01*
X2820000Y39557563D02*
X3884437Y40622000D01*
X2820000Y37166437D02*
X2820000Y37302000D01*
X2820000Y37166437D02*
X3884437Y36102000D01*
X3884437Y40622000D02*
X7340000Y40622000D01*
X3884437Y36102000D02*
X7340000Y36102000D01*
X7340000Y40622000D02*
X7340000Y39422000D01*
X7340000Y36102000D02*
X7340000Y37302000D01*
%TO.C,D3*%
X10714000Y21970000D02*
X16224000Y21970000D01*
X10714000Y18670000D02*
X10714000Y21970000D01*
X10714000Y18670000D02*
X16224000Y18670000D01*
%TO.C,U1*%
X34330000Y89629500D02*
X33430000Y89629500D01*
X34330000Y88729500D02*
X34330000Y89629500D01*
X29110000Y88729500D02*
X29110000Y89629500D01*
X34330000Y85309500D02*
X34330000Y84409500D01*
X29110000Y85309500D02*
X29110000Y84409500D01*
X34330000Y84409500D02*
X33430000Y84409500D01*
X29110000Y84409500D02*
X30010000Y84409500D01*
%TO.C,C4*%
X27580000Y87006165D02*
X27580000Y87237835D01*
X28300000Y87006165D02*
X28300000Y87237835D01*
%TO.C,D2*%
X18334000Y17652000D02*
X23844000Y17652000D01*
X18334000Y14352000D02*
X18334000Y17652000D01*
X18334000Y14352000D02*
X23844000Y14352000D01*
%TO.C,R2*%
X13701500Y12191276D02*
X13701500Y12700724D01*
X14746500Y12191276D02*
X14746500Y12700724D01*
%TO.C,C1*%
X2080000Y30952000D02*
X2580000Y30952000D01*
X2330000Y30702000D02*
X2330000Y31202000D01*
X2820000Y33707563D02*
X2820000Y33572000D01*
X2820000Y33707563D02*
X3884437Y34772000D01*
X2820000Y31316437D02*
X2820000Y31452000D01*
X2820000Y31316437D02*
X3884437Y30252000D01*
X3884437Y34772000D02*
X7340000Y34772000D01*
X3884437Y30252000D02*
X7340000Y30252000D01*
X7340000Y34772000D02*
X7340000Y33572000D01*
X7340000Y30252000D02*
X7340000Y31452000D01*
%TO.C,C3*%
X28300000Y89777835D02*
X28300000Y89546165D01*
X27580000Y89777835D02*
X27580000Y89546165D01*
%TO.C,D1*%
X18334000Y21970000D02*
X23844000Y21970000D01*
X18334000Y18670000D02*
X18334000Y21970000D01*
X18334000Y18670000D02*
X23844000Y18670000D01*
%TO.C,R3*%
X3215621Y21718000D02*
X2880379Y21718000D01*
X3215621Y22478000D02*
X2880379Y22478000D01*
%TD*%
M02*
