%TF.GenerationSoftware,KiCad,Pcbnew,8.0.0*%
%TF.CreationDate,2024-02-27T14:42:45+08:00*%
%TF.ProjectId,esp32_temperature_controller,65737033-325f-4746-956d-706572617475,rev?*%
%TF.SameCoordinates,PX50e7ea0PY815a420*%
%TF.FileFunction,Legend,Bot*%
%TF.FilePolarity,Positive*%
%FSLAX46Y46*%
G04 Gerber Fmt 4.6, Leading zero omitted, Abs format (unit mm)*
G04 Created by KiCad (PCBNEW 8.0.0) date 2024-02-27 14:42:45*
%MOMM*%
%LPD*%
G01*
G04 APERTURE LIST*
%ADD10C,0.150000*%
%ADD11C,0.120000*%
G04 APERTURE END LIST*
D10*
X2967076Y6631781D02*
X3443266Y6631781D01*
X3443266Y6631781D02*
X3443266Y7631781D01*
X8615037Y1237343D02*
X8567418Y1284962D01*
X8567418Y1284962D02*
X8472180Y1332581D01*
X8472180Y1332581D02*
X8234085Y1332581D01*
X8234085Y1332581D02*
X8138847Y1284962D01*
X8138847Y1284962D02*
X8091228Y1237343D01*
X8091228Y1237343D02*
X8043609Y1142105D01*
X8043609Y1142105D02*
X8043609Y1046867D01*
X8043609Y1046867D02*
X8091228Y904010D01*
X8091228Y904010D02*
X8662656Y332581D01*
X8662656Y332581D02*
X8043609Y332581D01*
X7662656Y1237343D02*
X7615037Y1284962D01*
X7615037Y1284962D02*
X7519799Y1332581D01*
X7519799Y1332581D02*
X7281704Y1332581D01*
X7281704Y1332581D02*
X7186466Y1284962D01*
X7186466Y1284962D02*
X7138847Y1237343D01*
X7138847Y1237343D02*
X7091228Y1142105D01*
X7091228Y1142105D02*
X7091228Y1046867D01*
X7091228Y1046867D02*
X7138847Y904010D01*
X7138847Y904010D02*
X7710275Y332581D01*
X7710275Y332581D02*
X7091228Y332581D01*
X6472180Y1332581D02*
X6376942Y1332581D01*
X6376942Y1332581D02*
X6281704Y1284962D01*
X6281704Y1284962D02*
X6234085Y1237343D01*
X6234085Y1237343D02*
X6186466Y1142105D01*
X6186466Y1142105D02*
X6138847Y951629D01*
X6138847Y951629D02*
X6138847Y713534D01*
X6138847Y713534D02*
X6186466Y523058D01*
X6186466Y523058D02*
X6234085Y427820D01*
X6234085Y427820D02*
X6281704Y380200D01*
X6281704Y380200D02*
X6376942Y332581D01*
X6376942Y332581D02*
X6472180Y332581D01*
X6472180Y332581D02*
X6567418Y380200D01*
X6567418Y380200D02*
X6615037Y427820D01*
X6615037Y427820D02*
X6662656Y523058D01*
X6662656Y523058D02*
X6710275Y713534D01*
X6710275Y713534D02*
X6710275Y951629D01*
X6710275Y951629D02*
X6662656Y1142105D01*
X6662656Y1142105D02*
X6615037Y1237343D01*
X6615037Y1237343D02*
X6567418Y1284962D01*
X6567418Y1284962D02*
X6472180Y1332581D01*
X5853132Y1332581D02*
X5519799Y332581D01*
X5519799Y332581D02*
X5186466Y1332581D01*
X4900751Y618296D02*
X4424561Y618296D01*
X4995989Y332581D02*
X4662656Y1332581D01*
X4662656Y1332581D02*
X4329323Y332581D01*
X3424561Y427820D02*
X3472180Y380200D01*
X3472180Y380200D02*
X3615037Y332581D01*
X3615037Y332581D02*
X3710275Y332581D01*
X3710275Y332581D02*
X3853132Y380200D01*
X3853132Y380200D02*
X3948370Y475439D01*
X3948370Y475439D02*
X3995989Y570677D01*
X3995989Y570677D02*
X4043608Y761153D01*
X4043608Y761153D02*
X4043608Y904010D01*
X4043608Y904010D02*
X3995989Y1094486D01*
X3995989Y1094486D02*
X3948370Y1189724D01*
X3948370Y1189724D02*
X3853132Y1284962D01*
X3853132Y1284962D02*
X3710275Y1332581D01*
X3710275Y1332581D02*
X3615037Y1332581D01*
X3615037Y1332581D02*
X3472180Y1284962D01*
X3472180Y1284962D02*
X3424561Y1237343D01*
X8616913Y6631781D02*
X8616913Y7631781D01*
X8616913Y7631781D02*
X8045485Y6631781D01*
X8045485Y6631781D02*
X8045485Y7631781D01*
X36942399Y256381D02*
X36942399Y1256381D01*
X36942399Y780191D02*
X36370971Y780191D01*
X36370971Y256381D02*
X36370971Y1256381D01*
X35894780Y780191D02*
X35561447Y780191D01*
X35418590Y256381D02*
X35894780Y256381D01*
X35894780Y256381D02*
X35894780Y1256381D01*
X35894780Y1256381D02*
X35418590Y1256381D01*
X35037637Y542096D02*
X34561447Y542096D01*
X35132875Y256381D02*
X34799542Y1256381D01*
X34799542Y1256381D02*
X34466209Y256381D01*
X34275732Y1256381D02*
X33704304Y1256381D01*
X33990018Y256381D02*
X33990018Y1256381D01*
X33370970Y780191D02*
X33037637Y780191D01*
X32894780Y256381D02*
X33370970Y256381D01*
X33370970Y256381D02*
X33370970Y1256381D01*
X33370970Y1256381D02*
X32894780Y1256381D01*
X31894780Y256381D02*
X32228113Y732572D01*
X32466208Y256381D02*
X32466208Y1256381D01*
X32466208Y1256381D02*
X32085256Y1256381D01*
X32085256Y1256381D02*
X31990018Y1208762D01*
X31990018Y1208762D02*
X31942399Y1161143D01*
X31942399Y1161143D02*
X31894780Y1065905D01*
X31894780Y1065905D02*
X31894780Y923048D01*
X31894780Y923048D02*
X31942399Y827810D01*
X31942399Y827810D02*
X31990018Y780191D01*
X31990018Y780191D02*
X32085256Y732572D01*
X32085256Y732572D02*
X32466208Y732572D01*
X31155666Y68431181D02*
X31488999Y68907372D01*
X31727094Y68431181D02*
X31727094Y69431181D01*
X31727094Y69431181D02*
X31346142Y69431181D01*
X31346142Y69431181D02*
X31250904Y69383562D01*
X31250904Y69383562D02*
X31203285Y69335943D01*
X31203285Y69335943D02*
X31155666Y69240705D01*
X31155666Y69240705D02*
X31155666Y69097848D01*
X31155666Y69097848D02*
X31203285Y69002610D01*
X31203285Y69002610D02*
X31250904Y68954991D01*
X31250904Y68954991D02*
X31346142Y68907372D01*
X31346142Y68907372D02*
X31727094Y68907372D01*
X30584237Y69002610D02*
X30679475Y69050229D01*
X30679475Y69050229D02*
X30727094Y69097848D01*
X30727094Y69097848D02*
X30774713Y69193086D01*
X30774713Y69193086D02*
X30774713Y69240705D01*
X30774713Y69240705D02*
X30727094Y69335943D01*
X30727094Y69335943D02*
X30679475Y69383562D01*
X30679475Y69383562D02*
X30584237Y69431181D01*
X30584237Y69431181D02*
X30393761Y69431181D01*
X30393761Y69431181D02*
X30298523Y69383562D01*
X30298523Y69383562D02*
X30250904Y69335943D01*
X30250904Y69335943D02*
X30203285Y69240705D01*
X30203285Y69240705D02*
X30203285Y69193086D01*
X30203285Y69193086D02*
X30250904Y69097848D01*
X30250904Y69097848D02*
X30298523Y69050229D01*
X30298523Y69050229D02*
X30393761Y69002610D01*
X30393761Y69002610D02*
X30584237Y69002610D01*
X30584237Y69002610D02*
X30679475Y68954991D01*
X30679475Y68954991D02*
X30727094Y68907372D01*
X30727094Y68907372D02*
X30774713Y68812134D01*
X30774713Y68812134D02*
X30774713Y68621658D01*
X30774713Y68621658D02*
X30727094Y68526420D01*
X30727094Y68526420D02*
X30679475Y68478800D01*
X30679475Y68478800D02*
X30584237Y68431181D01*
X30584237Y68431181D02*
X30393761Y68431181D01*
X30393761Y68431181D02*
X30298523Y68478800D01*
X30298523Y68478800D02*
X30250904Y68526420D01*
X30250904Y68526420D02*
X30203285Y68621658D01*
X30203285Y68621658D02*
X30203285Y68812134D01*
X30203285Y68812134D02*
X30250904Y68907372D01*
X30250904Y68907372D02*
X30298523Y68954991D01*
X30298523Y68954991D02*
X30393761Y69002610D01*
X33780666Y13881181D02*
X34113999Y14357372D01*
X34352094Y13881181D02*
X34352094Y14881181D01*
X34352094Y14881181D02*
X33971142Y14881181D01*
X33971142Y14881181D02*
X33875904Y14833562D01*
X33875904Y14833562D02*
X33828285Y14785943D01*
X33828285Y14785943D02*
X33780666Y14690705D01*
X33780666Y14690705D02*
X33780666Y14547848D01*
X33780666Y14547848D02*
X33828285Y14452610D01*
X33828285Y14452610D02*
X33875904Y14404991D01*
X33875904Y14404991D02*
X33971142Y14357372D01*
X33971142Y14357372D02*
X34352094Y14357372D01*
X32875904Y14881181D02*
X33352094Y14881181D01*
X33352094Y14881181D02*
X33399713Y14404991D01*
X33399713Y14404991D02*
X33352094Y14452610D01*
X33352094Y14452610D02*
X33256856Y14500229D01*
X33256856Y14500229D02*
X33018761Y14500229D01*
X33018761Y14500229D02*
X32923523Y14452610D01*
X32923523Y14452610D02*
X32875904Y14404991D01*
X32875904Y14404991D02*
X32828285Y14309753D01*
X32828285Y14309753D02*
X32828285Y14071658D01*
X32828285Y14071658D02*
X32875904Y13976420D01*
X32875904Y13976420D02*
X32923523Y13928800D01*
X32923523Y13928800D02*
X33018761Y13881181D01*
X33018761Y13881181D02*
X33256856Y13881181D01*
X33256856Y13881181D02*
X33352094Y13928800D01*
X33352094Y13928800D02*
X33399713Y13976420D01*
X33155666Y67426420D02*
X33203285Y67378800D01*
X33203285Y67378800D02*
X33346142Y67331181D01*
X33346142Y67331181D02*
X33441380Y67331181D01*
X33441380Y67331181D02*
X33584237Y67378800D01*
X33584237Y67378800D02*
X33679475Y67474039D01*
X33679475Y67474039D02*
X33727094Y67569277D01*
X33727094Y67569277D02*
X33774713Y67759753D01*
X33774713Y67759753D02*
X33774713Y67902610D01*
X33774713Y67902610D02*
X33727094Y68093086D01*
X33727094Y68093086D02*
X33679475Y68188324D01*
X33679475Y68188324D02*
X33584237Y68283562D01*
X33584237Y68283562D02*
X33441380Y68331181D01*
X33441380Y68331181D02*
X33346142Y68331181D01*
X33346142Y68331181D02*
X33203285Y68283562D01*
X33203285Y68283562D02*
X33155666Y68235943D01*
X32298523Y68331181D02*
X32488999Y68331181D01*
X32488999Y68331181D02*
X32584237Y68283562D01*
X32584237Y68283562D02*
X32631856Y68235943D01*
X32631856Y68235943D02*
X32727094Y68093086D01*
X32727094Y68093086D02*
X32774713Y67902610D01*
X32774713Y67902610D02*
X32774713Y67521658D01*
X32774713Y67521658D02*
X32727094Y67426420D01*
X32727094Y67426420D02*
X32679475Y67378800D01*
X32679475Y67378800D02*
X32584237Y67331181D01*
X32584237Y67331181D02*
X32393761Y67331181D01*
X32393761Y67331181D02*
X32298523Y67378800D01*
X32298523Y67378800D02*
X32250904Y67426420D01*
X32250904Y67426420D02*
X32203285Y67521658D01*
X32203285Y67521658D02*
X32203285Y67759753D01*
X32203285Y67759753D02*
X32250904Y67854991D01*
X32250904Y67854991D02*
X32298523Y67902610D01*
X32298523Y67902610D02*
X32393761Y67950229D01*
X32393761Y67950229D02*
X32584237Y67950229D01*
X32584237Y67950229D02*
X32679475Y67902610D01*
X32679475Y67902610D02*
X32727094Y67854991D01*
X32727094Y67854991D02*
X32774713Y67759753D01*
X35155666Y67426420D02*
X35203285Y67378800D01*
X35203285Y67378800D02*
X35346142Y67331181D01*
X35346142Y67331181D02*
X35441380Y67331181D01*
X35441380Y67331181D02*
X35584237Y67378800D01*
X35584237Y67378800D02*
X35679475Y67474039D01*
X35679475Y67474039D02*
X35727094Y67569277D01*
X35727094Y67569277D02*
X35774713Y67759753D01*
X35774713Y67759753D02*
X35774713Y67902610D01*
X35774713Y67902610D02*
X35727094Y68093086D01*
X35727094Y68093086D02*
X35679475Y68188324D01*
X35679475Y68188324D02*
X35584237Y68283562D01*
X35584237Y68283562D02*
X35441380Y68331181D01*
X35441380Y68331181D02*
X35346142Y68331181D01*
X35346142Y68331181D02*
X35203285Y68283562D01*
X35203285Y68283562D02*
X35155666Y68235943D01*
X34822332Y68331181D02*
X34155666Y68331181D01*
X34155666Y68331181D02*
X34584237Y67331181D01*
X32230666Y95201181D02*
X32563999Y95677372D01*
X32802094Y95201181D02*
X32802094Y96201181D01*
X32802094Y96201181D02*
X32421142Y96201181D01*
X32421142Y96201181D02*
X32325904Y96153562D01*
X32325904Y96153562D02*
X32278285Y96105943D01*
X32278285Y96105943D02*
X32230666Y96010705D01*
X32230666Y96010705D02*
X32230666Y95867848D01*
X32230666Y95867848D02*
X32278285Y95772610D01*
X32278285Y95772610D02*
X32325904Y95724991D01*
X32325904Y95724991D02*
X32421142Y95677372D01*
X32421142Y95677372D02*
X32802094Y95677372D01*
X31897332Y96201181D02*
X31230666Y96201181D01*
X31230666Y96201181D02*
X31659237Y95201181D01*
X12447494Y12956381D02*
X12447494Y13956381D01*
X12447494Y13956381D02*
X12209399Y13956381D01*
X12209399Y13956381D02*
X12066542Y13908762D01*
X12066542Y13908762D02*
X11971304Y13813524D01*
X11971304Y13813524D02*
X11923685Y13718286D01*
X11923685Y13718286D02*
X11876066Y13527810D01*
X11876066Y13527810D02*
X11876066Y13384953D01*
X11876066Y13384953D02*
X11923685Y13194477D01*
X11923685Y13194477D02*
X11971304Y13099239D01*
X11971304Y13099239D02*
X12066542Y13004000D01*
X12066542Y13004000D02*
X12209399Y12956381D01*
X12209399Y12956381D02*
X12447494Y12956381D01*
X11018923Y13623048D02*
X11018923Y12956381D01*
X11257018Y14004000D02*
X11495113Y13289715D01*
X11495113Y13289715D02*
X10876066Y13289715D01*
X5602266Y41245620D02*
X5649885Y41198000D01*
X5649885Y41198000D02*
X5792742Y41150381D01*
X5792742Y41150381D02*
X5887980Y41150381D01*
X5887980Y41150381D02*
X6030837Y41198000D01*
X6030837Y41198000D02*
X6126075Y41293239D01*
X6126075Y41293239D02*
X6173694Y41388477D01*
X6173694Y41388477D02*
X6221313Y41578953D01*
X6221313Y41578953D02*
X6221313Y41721810D01*
X6221313Y41721810D02*
X6173694Y41912286D01*
X6173694Y41912286D02*
X6126075Y42007524D01*
X6126075Y42007524D02*
X6030837Y42102762D01*
X6030837Y42102762D02*
X5887980Y42150381D01*
X5887980Y42150381D02*
X5792742Y42150381D01*
X5792742Y42150381D02*
X5649885Y42102762D01*
X5649885Y42102762D02*
X5602266Y42055143D01*
X5221313Y42055143D02*
X5173694Y42102762D01*
X5173694Y42102762D02*
X5078456Y42150381D01*
X5078456Y42150381D02*
X4840361Y42150381D01*
X4840361Y42150381D02*
X4745123Y42102762D01*
X4745123Y42102762D02*
X4697504Y42055143D01*
X4697504Y42055143D02*
X4649885Y41959905D01*
X4649885Y41959905D02*
X4649885Y41864667D01*
X4649885Y41864667D02*
X4697504Y41721810D01*
X4697504Y41721810D02*
X5268932Y41150381D01*
X5268932Y41150381D02*
X4649885Y41150381D01*
X14784294Y22405181D02*
X14784294Y23405181D01*
X14784294Y23405181D02*
X14546199Y23405181D01*
X14546199Y23405181D02*
X14403342Y23357562D01*
X14403342Y23357562D02*
X14308104Y23262324D01*
X14308104Y23262324D02*
X14260485Y23167086D01*
X14260485Y23167086D02*
X14212866Y22976610D01*
X14212866Y22976610D02*
X14212866Y22833753D01*
X14212866Y22833753D02*
X14260485Y22643277D01*
X14260485Y22643277D02*
X14308104Y22548039D01*
X14308104Y22548039D02*
X14403342Y22452800D01*
X14403342Y22452800D02*
X14546199Y22405181D01*
X14546199Y22405181D02*
X14784294Y22405181D01*
X13879532Y23405181D02*
X13260485Y23405181D01*
X13260485Y23405181D02*
X13593818Y23024229D01*
X13593818Y23024229D02*
X13450961Y23024229D01*
X13450961Y23024229D02*
X13355723Y22976610D01*
X13355723Y22976610D02*
X13308104Y22928991D01*
X13308104Y22928991D02*
X13260485Y22833753D01*
X13260485Y22833753D02*
X13260485Y22595658D01*
X13260485Y22595658D02*
X13308104Y22500420D01*
X13308104Y22500420D02*
X13355723Y22452800D01*
X13355723Y22452800D02*
X13450961Y22405181D01*
X13450961Y22405181D02*
X13736675Y22405181D01*
X13736675Y22405181D02*
X13831913Y22452800D01*
X13831913Y22452800D02*
X13879532Y22500420D01*
X35075904Y94131181D02*
X35075904Y93321658D01*
X35075904Y93321658D02*
X35028285Y93226420D01*
X35028285Y93226420D02*
X34980666Y93178800D01*
X34980666Y93178800D02*
X34885428Y93131181D01*
X34885428Y93131181D02*
X34694952Y93131181D01*
X34694952Y93131181D02*
X34599714Y93178800D01*
X34599714Y93178800D02*
X34552095Y93226420D01*
X34552095Y93226420D02*
X34504476Y93321658D01*
X34504476Y93321658D02*
X34504476Y94131181D01*
X33504476Y93131181D02*
X34075904Y93131181D01*
X33790190Y93131181D02*
X33790190Y94131181D01*
X33790190Y94131181D02*
X33885428Y93988324D01*
X33885428Y93988324D02*
X33980666Y93893086D01*
X33980666Y93893086D02*
X34075904Y93845467D01*
X28530666Y96626420D02*
X28578285Y96578800D01*
X28578285Y96578800D02*
X28721142Y96531181D01*
X28721142Y96531181D02*
X28816380Y96531181D01*
X28816380Y96531181D02*
X28959237Y96578800D01*
X28959237Y96578800D02*
X29054475Y96674039D01*
X29054475Y96674039D02*
X29102094Y96769277D01*
X29102094Y96769277D02*
X29149713Y96959753D01*
X29149713Y96959753D02*
X29149713Y97102610D01*
X29149713Y97102610D02*
X29102094Y97293086D01*
X29102094Y97293086D02*
X29054475Y97388324D01*
X29054475Y97388324D02*
X28959237Y97483562D01*
X28959237Y97483562D02*
X28816380Y97531181D01*
X28816380Y97531181D02*
X28721142Y97531181D01*
X28721142Y97531181D02*
X28578285Y97483562D01*
X28578285Y97483562D02*
X28530666Y97435943D01*
X27673523Y97197848D02*
X27673523Y96531181D01*
X27911618Y97578800D02*
X28149713Y96864515D01*
X28149713Y96864515D02*
X27530666Y96864515D01*
X23197333Y97481181D02*
X23197333Y96766896D01*
X23197333Y96766896D02*
X23244952Y96624039D01*
X23244952Y96624039D02*
X23340190Y96528800D01*
X23340190Y96528800D02*
X23483047Y96481181D01*
X23483047Y96481181D02*
X23578285Y96481181D01*
X22197333Y96481181D02*
X22768761Y96481181D01*
X22483047Y96481181D02*
X22483047Y97481181D01*
X22483047Y97481181D02*
X22578285Y97338324D01*
X22578285Y97338324D02*
X22673523Y97243086D01*
X22673523Y97243086D02*
X22768761Y97195467D01*
X29350904Y71731181D02*
X29350904Y70921658D01*
X29350904Y70921658D02*
X29303285Y70826420D01*
X29303285Y70826420D02*
X29255666Y70778800D01*
X29255666Y70778800D02*
X29160428Y70731181D01*
X29160428Y70731181D02*
X28969952Y70731181D01*
X28969952Y70731181D02*
X28874714Y70778800D01*
X28874714Y70778800D02*
X28827095Y70826420D01*
X28827095Y70826420D02*
X28779476Y70921658D01*
X28779476Y70921658D02*
X28779476Y71731181D01*
X28350904Y71635943D02*
X28303285Y71683562D01*
X28303285Y71683562D02*
X28208047Y71731181D01*
X28208047Y71731181D02*
X27969952Y71731181D01*
X27969952Y71731181D02*
X27874714Y71683562D01*
X27874714Y71683562D02*
X27827095Y71635943D01*
X27827095Y71635943D02*
X27779476Y71540705D01*
X27779476Y71540705D02*
X27779476Y71445467D01*
X27779476Y71445467D02*
X27827095Y71302610D01*
X27827095Y71302610D02*
X28398523Y70731181D01*
X28398523Y70731181D02*
X27779476Y70731181D01*
X20600894Y13032581D02*
X20600894Y14032581D01*
X20600894Y14032581D02*
X20362799Y14032581D01*
X20362799Y14032581D02*
X20219942Y13984962D01*
X20219942Y13984962D02*
X20124704Y13889724D01*
X20124704Y13889724D02*
X20077085Y13794486D01*
X20077085Y13794486D02*
X20029466Y13604010D01*
X20029466Y13604010D02*
X20029466Y13461153D01*
X20029466Y13461153D02*
X20077085Y13270677D01*
X20077085Y13270677D02*
X20124704Y13175439D01*
X20124704Y13175439D02*
X20219942Y13080200D01*
X20219942Y13080200D02*
X20362799Y13032581D01*
X20362799Y13032581D02*
X20600894Y13032581D01*
X19648513Y13937343D02*
X19600894Y13984962D01*
X19600894Y13984962D02*
X19505656Y14032581D01*
X19505656Y14032581D02*
X19267561Y14032581D01*
X19267561Y14032581D02*
X19172323Y13984962D01*
X19172323Y13984962D02*
X19124704Y13937343D01*
X19124704Y13937343D02*
X19077085Y13842105D01*
X19077085Y13842105D02*
X19077085Y13746867D01*
X19077085Y13746867D02*
X19124704Y13604010D01*
X19124704Y13604010D02*
X19696132Y13032581D01*
X19696132Y13032581D02*
X19077085Y13032581D01*
X5147333Y97481181D02*
X5147333Y96766896D01*
X5147333Y96766896D02*
X5194952Y96624039D01*
X5194952Y96624039D02*
X5290190Y96528800D01*
X5290190Y96528800D02*
X5433047Y96481181D01*
X5433047Y96481181D02*
X5528285Y96481181D01*
X4718761Y97385943D02*
X4671142Y97433562D01*
X4671142Y97433562D02*
X4575904Y97481181D01*
X4575904Y97481181D02*
X4337809Y97481181D01*
X4337809Y97481181D02*
X4242571Y97433562D01*
X4242571Y97433562D02*
X4194952Y97385943D01*
X4194952Y97385943D02*
X4147333Y97290705D01*
X4147333Y97290705D02*
X4147333Y97195467D01*
X4147333Y97195467D02*
X4194952Y97052610D01*
X4194952Y97052610D02*
X4766380Y96481181D01*
X4766380Y96481181D02*
X4147333Y96481181D01*
X16108819Y12612667D02*
X15632628Y12946000D01*
X16108819Y13184095D02*
X15108819Y13184095D01*
X15108819Y13184095D02*
X15108819Y12803143D01*
X15108819Y12803143D02*
X15156438Y12707905D01*
X15156438Y12707905D02*
X15204057Y12660286D01*
X15204057Y12660286D02*
X15299295Y12612667D01*
X15299295Y12612667D02*
X15442152Y12612667D01*
X15442152Y12612667D02*
X15537390Y12660286D01*
X15537390Y12660286D02*
X15585009Y12707905D01*
X15585009Y12707905D02*
X15632628Y12803143D01*
X15632628Y12803143D02*
X15632628Y13184095D01*
X15204057Y12231714D02*
X15156438Y12184095D01*
X15156438Y12184095D02*
X15108819Y12088857D01*
X15108819Y12088857D02*
X15108819Y11850762D01*
X15108819Y11850762D02*
X15156438Y11755524D01*
X15156438Y11755524D02*
X15204057Y11707905D01*
X15204057Y11707905D02*
X15299295Y11660286D01*
X15299295Y11660286D02*
X15394533Y11660286D01*
X15394533Y11660286D02*
X15537390Y11707905D01*
X15537390Y11707905D02*
X16108819Y12279333D01*
X16108819Y12279333D02*
X16108819Y11660286D01*
X5246666Y28952420D02*
X5294285Y28904800D01*
X5294285Y28904800D02*
X5437142Y28857181D01*
X5437142Y28857181D02*
X5532380Y28857181D01*
X5532380Y28857181D02*
X5675237Y28904800D01*
X5675237Y28904800D02*
X5770475Y29000039D01*
X5770475Y29000039D02*
X5818094Y29095277D01*
X5818094Y29095277D02*
X5865713Y29285753D01*
X5865713Y29285753D02*
X5865713Y29428610D01*
X5865713Y29428610D02*
X5818094Y29619086D01*
X5818094Y29619086D02*
X5770475Y29714324D01*
X5770475Y29714324D02*
X5675237Y29809562D01*
X5675237Y29809562D02*
X5532380Y29857181D01*
X5532380Y29857181D02*
X5437142Y29857181D01*
X5437142Y29857181D02*
X5294285Y29809562D01*
X5294285Y29809562D02*
X5246666Y29761943D01*
X4294285Y28857181D02*
X4865713Y28857181D01*
X4579999Y28857181D02*
X4579999Y29857181D01*
X4579999Y29857181D02*
X4675237Y29714324D01*
X4675237Y29714324D02*
X4770475Y29619086D01*
X4770475Y29619086D02*
X4865713Y29571467D01*
X30380666Y96626420D02*
X30428285Y96578800D01*
X30428285Y96578800D02*
X30571142Y96531181D01*
X30571142Y96531181D02*
X30666380Y96531181D01*
X30666380Y96531181D02*
X30809237Y96578800D01*
X30809237Y96578800D02*
X30904475Y96674039D01*
X30904475Y96674039D02*
X30952094Y96769277D01*
X30952094Y96769277D02*
X30999713Y96959753D01*
X30999713Y96959753D02*
X30999713Y97102610D01*
X30999713Y97102610D02*
X30952094Y97293086D01*
X30952094Y97293086D02*
X30904475Y97388324D01*
X30904475Y97388324D02*
X30809237Y97483562D01*
X30809237Y97483562D02*
X30666380Y97531181D01*
X30666380Y97531181D02*
X30571142Y97531181D01*
X30571142Y97531181D02*
X30428285Y97483562D01*
X30428285Y97483562D02*
X30380666Y97435943D01*
X30047332Y97531181D02*
X29428285Y97531181D01*
X29428285Y97531181D02*
X29761618Y97150229D01*
X29761618Y97150229D02*
X29618761Y97150229D01*
X29618761Y97150229D02*
X29523523Y97102610D01*
X29523523Y97102610D02*
X29475904Y97054991D01*
X29475904Y97054991D02*
X29428285Y96959753D01*
X29428285Y96959753D02*
X29428285Y96721658D01*
X29428285Y96721658D02*
X29475904Y96626420D01*
X29475904Y96626420D02*
X29523523Y96578800D01*
X29523523Y96578800D02*
X29618761Y96531181D01*
X29618761Y96531181D02*
X29904475Y96531181D01*
X29904475Y96531181D02*
X29999713Y96578800D01*
X29999713Y96578800D02*
X30047332Y96626420D01*
X22404294Y22405181D02*
X22404294Y23405181D01*
X22404294Y23405181D02*
X22166199Y23405181D01*
X22166199Y23405181D02*
X22023342Y23357562D01*
X22023342Y23357562D02*
X21928104Y23262324D01*
X21928104Y23262324D02*
X21880485Y23167086D01*
X21880485Y23167086D02*
X21832866Y22976610D01*
X21832866Y22976610D02*
X21832866Y22833753D01*
X21832866Y22833753D02*
X21880485Y22643277D01*
X21880485Y22643277D02*
X21928104Y22548039D01*
X21928104Y22548039D02*
X22023342Y22452800D01*
X22023342Y22452800D02*
X22166199Y22405181D01*
X22166199Y22405181D02*
X22404294Y22405181D01*
X20880485Y22405181D02*
X21451913Y22405181D01*
X21166199Y22405181D02*
X21166199Y23405181D01*
X21166199Y23405181D02*
X21261437Y23262324D01*
X21261437Y23262324D02*
X21356675Y23167086D01*
X21356675Y23167086D02*
X21451913Y23119467D01*
X3214666Y22813181D02*
X3547999Y23289372D01*
X3786094Y22813181D02*
X3786094Y23813181D01*
X3786094Y23813181D02*
X3405142Y23813181D01*
X3405142Y23813181D02*
X3309904Y23765562D01*
X3309904Y23765562D02*
X3262285Y23717943D01*
X3262285Y23717943D02*
X3214666Y23622705D01*
X3214666Y23622705D02*
X3214666Y23479848D01*
X3214666Y23479848D02*
X3262285Y23384610D01*
X3262285Y23384610D02*
X3309904Y23336991D01*
X3309904Y23336991D02*
X3405142Y23289372D01*
X3405142Y23289372D02*
X3786094Y23289372D01*
X2881332Y23813181D02*
X2262285Y23813181D01*
X2262285Y23813181D02*
X2595618Y23432229D01*
X2595618Y23432229D02*
X2452761Y23432229D01*
X2452761Y23432229D02*
X2357523Y23384610D01*
X2357523Y23384610D02*
X2309904Y23336991D01*
X2309904Y23336991D02*
X2262285Y23241753D01*
X2262285Y23241753D02*
X2262285Y23003658D01*
X2262285Y23003658D02*
X2309904Y22908420D01*
X2309904Y22908420D02*
X2357523Y22860800D01*
X2357523Y22860800D02*
X2452761Y22813181D01*
X2452761Y22813181D02*
X2738475Y22813181D01*
X2738475Y22813181D02*
X2833713Y22860800D01*
X2833713Y22860800D02*
X2881332Y22908420D01*
D11*
%TO.C,R8*%
X31156621Y70716000D02*
X30821379Y70716000D01*
X31156621Y69956000D02*
X30821379Y69956000D01*
%TO.C,R5*%
X30336936Y18646000D02*
X34691064Y18646000D01*
X30336936Y15226000D02*
X34691064Y15226000D01*
%TO.C,C6*%
X32979000Y69610165D02*
X32979000Y69841835D01*
X33699000Y69610165D02*
X33699000Y69841835D01*
%TO.C,C7*%
X34729000Y69610165D02*
X34729000Y69841835D01*
X35449000Y69610165D02*
X35449000Y69841835D01*
%TO.C,R7*%
X32231621Y94866000D02*
X31896379Y94866000D01*
X32231621Y94106000D02*
X31896379Y94106000D01*
%TO.C,D4*%
X10714000Y17652000D02*
X16224000Y17652000D01*
X10714000Y14352000D02*
X10714000Y17652000D01*
X10714000Y14352000D02*
X16224000Y14352000D01*
%TO.C,C2*%
X2080000Y36802000D02*
X2580000Y36802000D01*
X2330000Y36552000D02*
X2330000Y37052000D01*
X2820000Y39557563D02*
X2820000Y39422000D01*
X2820000Y39557563D02*
X3884437Y40622000D01*
X2820000Y37166437D02*
X2820000Y37302000D01*
X2820000Y37166437D02*
X3884437Y36102000D01*
X3884437Y40622000D02*
X7340000Y40622000D01*
X3884437Y36102000D02*
X7340000Y36102000D01*
X7340000Y40622000D02*
X7340000Y39422000D01*
X7340000Y36102000D02*
X7340000Y37302000D01*
%TO.C,D3*%
X10714000Y21970000D02*
X16224000Y21970000D01*
X10714000Y18670000D02*
X10714000Y21970000D01*
X10714000Y18670000D02*
X16224000Y18670000D01*
%TO.C,U1*%
X27904000Y90896000D02*
X27904000Y88136000D01*
X27904000Y85376000D02*
X27904000Y88136000D01*
X28179000Y90896000D02*
X27904000Y90896000D01*
X28179000Y85376000D02*
X27904000Y85376000D01*
X35049000Y90896000D02*
X35324000Y90896000D01*
X35049000Y85376000D02*
X35324000Y85376000D01*
X35324000Y90896000D02*
X35324000Y88136000D01*
X35324000Y85376000D02*
X35324000Y88136000D01*
X28179000Y91686000D02*
X27849000Y91446000D01*
X27849000Y91926000D01*
X28179000Y91686000D01*
G36*
X28179000Y91686000D02*
G01*
X27849000Y91446000D01*
X27849000Y91926000D01*
X28179000Y91686000D01*
G37*
%TO.C,C4*%
X27604000Y95201835D02*
X27604000Y94970165D01*
X28324000Y95201835D02*
X28324000Y94970165D01*
%TO.C,J1*%
X24227000Y97078000D02*
X25557000Y97078000D01*
X24227000Y95748000D02*
X24227000Y97078000D01*
X24227000Y94478000D02*
X26887000Y94478000D01*
X24227000Y48698000D02*
X24227000Y94478000D01*
X24227000Y48698000D02*
X26887000Y48698000D01*
X26887000Y48698000D02*
X26887000Y94478000D01*
%TO.C,U2*%
X27729000Y79446000D02*
X27729000Y76686000D01*
X27729000Y73926000D02*
X27729000Y76686000D01*
X28004000Y79446000D02*
X27729000Y79446000D01*
X28004000Y73926000D02*
X27729000Y73926000D01*
X34874000Y79446000D02*
X35149000Y79446000D01*
X34874000Y73926000D02*
X35149000Y73926000D01*
X35149000Y79446000D02*
X35149000Y76686000D01*
X35149000Y73926000D02*
X35149000Y76686000D01*
X35204000Y72896000D02*
X34874000Y73136000D01*
X35204000Y73376000D01*
X35204000Y72896000D01*
G36*
X35204000Y72896000D02*
G01*
X34874000Y73136000D01*
X35204000Y73376000D01*
X35204000Y72896000D01*
G37*
%TO.C,D2*%
X18334000Y17652000D02*
X23844000Y17652000D01*
X18334000Y14352000D02*
X18334000Y17652000D01*
X18334000Y14352000D02*
X23844000Y14352000D01*
%TO.C,J2*%
X727000Y97078000D02*
X2057000Y97078000D01*
X727000Y95748000D02*
X727000Y97078000D01*
X727000Y94478000D02*
X3387000Y94478000D01*
X727000Y48698000D02*
X727000Y94478000D01*
X727000Y48698000D02*
X3387000Y48698000D01*
X3387000Y48698000D02*
X3387000Y94478000D01*
%TO.C,R2*%
X13701500Y12191276D02*
X13701500Y12700724D01*
X14746500Y12191276D02*
X14746500Y12700724D01*
%TO.C,C1*%
X2080000Y30952000D02*
X2580000Y30952000D01*
X2330000Y30702000D02*
X2330000Y31202000D01*
X2820000Y33707563D02*
X2820000Y33572000D01*
X2820000Y33707563D02*
X3884437Y34772000D01*
X2820000Y31316437D02*
X2820000Y31452000D01*
X2820000Y31316437D02*
X3884437Y30252000D01*
X3884437Y34772000D02*
X7340000Y34772000D01*
X3884437Y30252000D02*
X7340000Y30252000D01*
X7340000Y34772000D02*
X7340000Y33572000D01*
X7340000Y30252000D02*
X7340000Y31452000D01*
%TO.C,C3*%
X29354000Y95201835D02*
X29354000Y94970165D01*
X30074000Y95201835D02*
X30074000Y94970165D01*
%TO.C,D1*%
X18334000Y21970000D02*
X23844000Y21970000D01*
X18334000Y18670000D02*
X18334000Y21970000D01*
X18334000Y18670000D02*
X23844000Y18670000D01*
%TO.C,R3*%
X3215621Y22478000D02*
X2880379Y22478000D01*
X3215621Y21718000D02*
X2880379Y21718000D01*
%TD*%
M02*
