%TF.GenerationSoftware,KiCad,Pcbnew,7.0.8*%
%TF.CreationDate,2024-01-30T16:00:27+08:00*%
%TF.ProjectId,esp32_temperature_controller,65737033-325f-4746-956d-706572617475,rev?*%
%TF.SameCoordinates,PX50e7ea0PY815a420*%
%TF.FileFunction,Copper,L1,Top*%
%TF.FilePolarity,Positive*%
%FSLAX46Y46*%
G04 Gerber Fmt 4.6, Leading zero omitted, Abs format (unit mm)*
G04 Created by KiCad (PCBNEW 7.0.8) date 2024-01-30 16:00:27*
%MOMM*%
%LPD*%
G01*
G04 APERTURE LIST*
G04 Aperture macros list*
%AMRoundRect*
0 Rectangle with rounded corners*
0 $1 Rounding radius*
0 $2 $3 $4 $5 $6 $7 $8 $9 X,Y pos of 4 corners*
0 Add a 4 corners polygon primitive as box body*
4,1,4,$2,$3,$4,$5,$6,$7,$8,$9,$2,$3,0*
0 Add four circle primitives for the rounded corners*
1,1,$1+$1,$2,$3*
1,1,$1+$1,$4,$5*
1,1,$1+$1,$6,$7*
1,1,$1+$1,$8,$9*
0 Add four rect primitives between the rounded corners*
20,1,$1+$1,$2,$3,$4,$5,0*
20,1,$1+$1,$4,$5,$6,$7,0*
20,1,$1+$1,$6,$7,$8,$9,0*
20,1,$1+$1,$8,$9,$2,$3,0*%
G04 Aperture macros list end*
%TA.AperFunction,SMDPad,CuDef*%
%ADD10RoundRect,0.160000X0.197500X0.160000X-0.197500X0.160000X-0.197500X-0.160000X0.197500X-0.160000X0*%
%TD*%
%TA.AperFunction,ComponentPad*%
%ADD11R,1.600000X1.600000*%
%TD*%
%TA.AperFunction,ComponentPad*%
%ADD12O,1.600000X1.600000*%
%TD*%
%TA.AperFunction,SMDPad,CuDef*%
%ADD13RoundRect,0.250000X0.362500X1.425000X-0.362500X1.425000X-0.362500X-1.425000X0.362500X-1.425000X0*%
%TD*%
%TA.AperFunction,ComponentPad*%
%ADD14C,1.600000*%
%TD*%
%TA.AperFunction,ComponentPad*%
%ADD15RoundRect,0.250000X-0.725000X0.600000X-0.725000X-0.600000X0.725000X-0.600000X0.725000X0.600000X0*%
%TD*%
%TA.AperFunction,ComponentPad*%
%ADD16O,1.950000X1.700000*%
%TD*%
%TA.AperFunction,ComponentPad*%
%ADD17RoundRect,0.250000X-0.650000X-1.550000X0.650000X-1.550000X0.650000X1.550000X-0.650000X1.550000X0*%
%TD*%
%TA.AperFunction,ComponentPad*%
%ADD18O,1.800000X3.600000*%
%TD*%
%TA.AperFunction,SMDPad,CuDef*%
%ADD19RoundRect,0.155000X0.155000X-0.212500X0.155000X0.212500X-0.155000X0.212500X-0.155000X-0.212500X0*%
%TD*%
%TA.AperFunction,SMDPad,CuDef*%
%ADD20RoundRect,0.237500X0.287500X0.237500X-0.287500X0.237500X-0.287500X-0.237500X0.287500X-0.237500X0*%
%TD*%
%TA.AperFunction,SMDPad,CuDef*%
%ADD21RoundRect,0.237500X-0.237500X0.250000X-0.237500X-0.250000X0.237500X-0.250000X0.237500X0.250000X0*%
%TD*%
%TA.AperFunction,SMDPad,CuDef*%
%ADD22RoundRect,0.160000X-0.197500X-0.160000X0.197500X-0.160000X0.197500X0.160000X-0.197500X0.160000X0*%
%TD*%
%TA.AperFunction,SMDPad,CuDef*%
%ADD23RoundRect,0.237500X-0.237500X0.287500X-0.237500X-0.287500X0.237500X-0.287500X0.237500X0.287500X0*%
%TD*%
%TA.AperFunction,ComponentPad*%
%ADD24R,1.700000X1.700000*%
%TD*%
%TA.AperFunction,ComponentPad*%
%ADD25O,1.700000X1.700000*%
%TD*%
%TA.AperFunction,SMDPad,CuDef*%
%ADD26RoundRect,0.075000X0.075000X-0.325000X0.075000X0.325000X-0.075000X0.325000X-0.075000X-0.325000X0*%
%TD*%
%TA.AperFunction,SMDPad,CuDef*%
%ADD27RoundRect,0.075000X0.325000X-0.075000X0.325000X0.075000X-0.325000X0.075000X-0.325000X-0.075000X0*%
%TD*%
%TA.AperFunction,SMDPad,CuDef*%
%ADD28R,3.350000X3.350000*%
%TD*%
%TA.AperFunction,SMDPad,CuDef*%
%ADD29RoundRect,0.160000X0.160000X-0.197500X0.160000X0.197500X-0.160000X0.197500X-0.160000X-0.197500X0*%
%TD*%
%TA.AperFunction,ComponentPad*%
%ADD30RoundRect,0.575000X0.575000X0.575000X-0.575000X0.575000X-0.575000X-0.575000X0.575000X-0.575000X0*%
%TD*%
%TA.AperFunction,ComponentPad*%
%ADD31C,2.300000*%
%TD*%
%TA.AperFunction,ComponentPad*%
%ADD32R,2.000000X2.000000*%
%TD*%
%TA.AperFunction,ComponentPad*%
%ADD33C,2.000000*%
%TD*%
%TA.AperFunction,ComponentPad*%
%ADD34R,2.000000X1.905000*%
%TD*%
%TA.AperFunction,ComponentPad*%
%ADD35O,2.000000X1.905000*%
%TD*%
%TA.AperFunction,ViaPad*%
%ADD36C,0.500000*%
%TD*%
%TA.AperFunction,Conductor*%
%ADD37C,0.170000*%
%TD*%
%TA.AperFunction,Conductor*%
%ADD38C,0.300000*%
%TD*%
G04 APERTURE END LIST*
D10*
%TO.P,R8,1*%
%TO.N,Net-(U2-ISENSOR)*%
X32093500Y63500000D03*
%TO.P,R8,2*%
%TO.N,Net-(U2-BIAS)*%
X30898500Y63500000D03*
%TD*%
D11*
%TO.P,U4,1*%
%TO.N,Net-(R4-Pad1)*%
X31735000Y21072000D03*
D12*
%TO.P,U4,2*%
%TO.N,GND*%
X29195000Y21072000D03*
%TO.P,U4,3,NC*%
%TO.N,unconnected-(U4-NC-Pad3)*%
X26655000Y21072000D03*
%TO.P,U4,4*%
%TO.N,Net-(D5-G)*%
X26655000Y13452000D03*
%TO.P,U4,5,NC*%
%TO.N,unconnected-(U4-NC-Pad5)*%
X29195000Y13452000D03*
%TO.P,U4,6*%
%TO.N,Net-(R5-Pad1)*%
X31735000Y13452000D03*
%TD*%
D13*
%TO.P,R6,1*%
%TO.N,LINE*%
X21758500Y6096000D03*
%TO.P,R6,2*%
%TO.N,Net-(D6-K)*%
X15833500Y6096000D03*
%TD*%
D14*
%TO.P,RV1,1*%
%TO.N,NEUT*%
X24638000Y1778000D03*
%TO.P,RV1,2*%
%TO.N,LINE*%
X26638000Y6778000D03*
%TD*%
D15*
%TO.P,J6,1,Pin_1*%
%TO.N,Net-(J6-Pin_1)*%
X36830000Y81026000D03*
D16*
%TO.P,J6,2,Pin_2*%
%TO.N,Net-(J6-Pin_2)*%
X36830000Y78526000D03*
%TO.P,J6,3,Pin_3*%
%TO.N,Net-(J6-Pin_3)*%
X36830000Y76026000D03*
%TO.P,J6,4,Pin_4*%
%TO.N,Net-(J6-Pin_4)*%
X36830000Y73526000D03*
%TD*%
D17*
%TO.P,J3,1,Pin_1*%
%TO.N,/LIVE*%
X3302000Y3556000D03*
D18*
%TO.P,J3,2,Pin_2*%
%TO.N,NEUT*%
X8382000Y3556000D03*
%TD*%
D19*
%TO.P,C5,1*%
%TO.N,Net-(J5-Pin_3)*%
X31496000Y90364500D03*
%TO.P,C5,2*%
%TO.N,Net-(J5-Pin_2)*%
X31496000Y91499500D03*
%TD*%
D17*
%TO.P,J4,1,Pin_1*%
%TO.N,NEUT*%
X31750000Y3556000D03*
D18*
%TO.P,J4,2,Pin_2*%
%TO.N,Net-(D5-A1)*%
X36830000Y3556000D03*
%TD*%
D15*
%TO.P,J5,1,Pin_1*%
%TO.N,Net-(J5-Pin_1)*%
X36830000Y94702000D03*
D16*
%TO.P,J5,2,Pin_2*%
%TO.N,Net-(J5-Pin_2)*%
X36830000Y92202000D03*
%TO.P,J5,3,Pin_3*%
%TO.N,Net-(J5-Pin_3)*%
X36830000Y89702000D03*
%TO.P,J5,4,Pin_4*%
%TO.N,Net-(J5-Pin_4)*%
X36830000Y87202000D03*
%TD*%
D20*
%TO.P,D7,1,K*%
%TO.N,GND*%
X30889000Y94486000D03*
%TO.P,D7,2,A*%
%TO.N,Net-(D7-A)*%
X29139000Y94486000D03*
%TD*%
D10*
%TO.P,R9,1*%
%TO.N,/TEMP_CLK*%
X30151000Y82804000D03*
%TO.P,R9,2*%
%TO.N,Net-(J2-Pin_6)*%
X28956000Y82804000D03*
%TD*%
D21*
%TO.P,R1,1*%
%TO.N,Net-(D1-A)*%
X24384000Y13866500D03*
%TO.P,R1,2*%
%TO.N,LINE*%
X24384000Y12041500D03*
%TD*%
D22*
%TO.P,R10,1*%
%TO.N,/LED_HEATING_STATE*%
X28566500Y91536000D03*
%TO.P,R10,2*%
%TO.N,Net-(D7-A)*%
X29761500Y91536000D03*
%TD*%
D23*
%TO.P,D6,1,K*%
%TO.N,Net-(D6-K)*%
X12700000Y7225000D03*
%TO.P,D6,2,A*%
%TO.N,NEUT*%
X12700000Y5475000D03*
%TD*%
D24*
%TO.P,J1,1,Pin_1*%
%TO.N,+3V3*%
X2057000Y95748000D03*
D25*
%TO.P,J1,2,Pin_2*%
%TO.N,unconnected-(J1-Pin_2-Pad2)*%
X2057000Y93208000D03*
%TO.P,J1,3,Pin_3*%
%TO.N,unconnected-(J1-Pin_3-Pad3)*%
X2057000Y90668000D03*
%TO.P,J1,4,Pin_4*%
%TO.N,unconnected-(J1-Pin_4-Pad4)*%
X2057000Y88128000D03*
%TO.P,J1,5,Pin_5*%
%TO.N,unconnected-(J1-Pin_5-Pad5)*%
X2057000Y85588000D03*
%TO.P,J1,6,Pin_6*%
%TO.N,unconnected-(J1-Pin_6-Pad6)*%
X2057000Y83048000D03*
%TO.P,J1,7,Pin_7*%
%TO.N,unconnected-(J1-Pin_7-Pad7)*%
X2057000Y80508000D03*
%TO.P,J1,8,Pin_8*%
%TO.N,unconnected-(J1-Pin_8-Pad8)*%
X2057000Y77968000D03*
%TO.P,J1,9,Pin_9*%
%TO.N,unconnected-(J1-Pin_9-Pad9)*%
X2057000Y75428000D03*
%TO.P,J1,10,Pin_10*%
%TO.N,unconnected-(J1-Pin_10-Pad10)*%
X2057000Y72888000D03*
%TO.P,J1,11,Pin_11*%
%TO.N,unconnected-(J1-Pin_11-Pad11)*%
X2057000Y70348000D03*
%TO.P,J1,12,Pin_12*%
%TO.N,unconnected-(J1-Pin_12-Pad12)*%
X2057000Y67808000D03*
%TO.P,J1,13,Pin_13*%
%TO.N,unconnected-(J1-Pin_13-Pad13)*%
X2057000Y65268000D03*
%TO.P,J1,14,Pin_14*%
%TO.N,GND*%
X2057000Y62728000D03*
%TO.P,J1,15,Pin_15*%
%TO.N,unconnected-(J1-Pin_15-Pad15)*%
X2057000Y60188000D03*
%TO.P,J1,16,Pin_16*%
%TO.N,unconnected-(J1-Pin_16-Pad16)*%
X2057000Y57648000D03*
%TO.P,J1,17,Pin_17*%
%TO.N,/ZERO_CROSS*%
X2057000Y55108000D03*
%TO.P,J1,18,Pin_18*%
%TO.N,/HEATER_CTRL*%
X2057000Y52568000D03*
%TO.P,J1,19,Pin_19*%
%TO.N,unconnected-(J1-Pin_19-Pad19)*%
X2057000Y50028000D03*
%TD*%
D19*
%TO.P,C8,1*%
%TO.N,Net-(J6-Pin_3)*%
X31750000Y76902500D03*
%TO.P,C8,2*%
%TO.N,Net-(J6-Pin_2)*%
X31750000Y78037500D03*
%TD*%
D11*
%TO.P,U3,1*%
%TO.N,Net-(D2-K)*%
X9134000Y17013000D03*
D12*
%TO.P,U3,2*%
%TO.N,Net-(D1-K)*%
X9134000Y19553000D03*
%TO.P,U3,3*%
%TO.N,/ZERO_CROSS*%
X1514000Y19553000D03*
%TO.P,U3,4*%
%TO.N,+3V3*%
X1514000Y17013000D03*
%TD*%
D26*
%TO.P,U2,1,BIAS*%
%TO.N,Net-(U2-BIAS)*%
X30420000Y64830000D03*
%TO.P,U2,2,REFIN+*%
X31070000Y64830000D03*
%TO.P,U2,3,REFIN-*%
%TO.N,Net-(U2-ISENSOR)*%
X31720000Y64830000D03*
%TO.P,U2,4,ISENSOR*%
X32370000Y64830000D03*
%TO.P,U2,5,FORCE+*%
%TO.N,Net-(J6-Pin_1)*%
X33020000Y64830000D03*
D27*
%TO.P,U2,6,FORCE2*%
%TO.N,GND*%
X34170000Y65980000D03*
%TO.P,U2,7,RTDIN+*%
%TO.N,Net-(J6-Pin_2)*%
X34170000Y66630000D03*
%TO.P,U2,8,RTDIN-*%
%TO.N,Net-(J6-Pin_3)*%
X34170000Y67280000D03*
%TO.P,U2,9,FORCE-*%
%TO.N,Net-(J6-Pin_4)*%
X34170000Y67930000D03*
%TO.P,U2,10,GND*%
%TO.N,GND*%
X34170000Y68580000D03*
D26*
%TO.P,U2,11,SDI*%
%TO.N,/TEMP_DI*%
X33020000Y69730000D03*
%TO.P,U2,12,SCLK*%
%TO.N,/TEMP_CLK*%
X32370000Y69730000D03*
%TO.P,U2,13,~{CS}*%
%TO.N,/TEMP2_CS*%
X31720000Y69730000D03*
%TO.P,U2,14,SDO*%
%TO.N,/TEMP_DO*%
X31070000Y69730000D03*
%TO.P,U2,15,DGND*%
%TO.N,GND*%
X30420000Y69730000D03*
D27*
%TO.P,U2,16,GND*%
X29270000Y68580000D03*
%TO.P,U2,17,NC*%
%TO.N,unconnected-(U2-NC-Pad17)*%
X29270000Y67930000D03*
%TO.P,U2,18,~{DRDY}*%
%TO.N,/TEMP2_RDY*%
X29270000Y67280000D03*
%TO.P,U2,19,DVDD*%
%TO.N,+3V3*%
X29270000Y66630000D03*
%TO.P,U2,20,VDD*%
X29270000Y65980000D03*
D28*
%TO.P,U2,21,GND*%
%TO.N,GND*%
X31720000Y67280000D03*
%TD*%
D11*
%TO.P,J7,1,Pin_1*%
%TO.N,+3V3*%
X37846000Y58420000D03*
D12*
%TO.P,J7,2,Pin_2*%
%TO.N,/DHT_SDA*%
X37846000Y60960000D03*
%TO.P,J7,3,Pin_3*%
%TO.N,GND*%
X37846000Y63500000D03*
%TO.P,J7,4,Pin_4*%
%TO.N,/DHT_SCL*%
X37846000Y66040000D03*
%TD*%
D29*
%TO.P,R4,1*%
%TO.N,Net-(R4-Pad1)*%
X13462000Y48678500D03*
%TO.P,R4,2*%
%TO.N,/HEATER_CTRL*%
X13462000Y49873500D03*
%TD*%
D24*
%TO.P,J2,1,Pin_1*%
%TO.N,GND*%
X25557000Y95748000D03*
D25*
%TO.P,J2,2,Pin_2*%
%TO.N,/LED_HEATING_STATE*%
X25557000Y93208000D03*
%TO.P,J2,3,Pin_3*%
%TO.N,/TEMP1_RDY*%
X25557000Y90668000D03*
%TO.P,J2,4,Pin_4*%
%TO.N,/TEMP_DI*%
X25557000Y88128000D03*
%TO.P,J2,5,Pin_5*%
%TO.N,/TEMP1_CS*%
X25557000Y85588000D03*
%TO.P,J2,6,Pin_6*%
%TO.N,Net-(J2-Pin_6)*%
X25557000Y83048000D03*
%TO.P,J2,7,Pin_7*%
%TO.N,GND*%
X25557000Y80508000D03*
%TO.P,J2,8,Pin_8*%
%TO.N,/TEMP_DO*%
X25557000Y77968000D03*
%TO.P,J2,9,Pin_9*%
%TO.N,unconnected-(J2-Pin_9-Pad9)*%
X25557000Y75428000D03*
%TO.P,J2,10,Pin_10*%
%TO.N,/TEMP2_CS*%
X25557000Y72888000D03*
%TO.P,J2,11,Pin_11*%
%TO.N,unconnected-(J2-Pin_11-Pad11)*%
X25557000Y70348000D03*
%TO.P,J2,12,Pin_12*%
%TO.N,/TEMP2_RDY*%
X25557000Y67808000D03*
%TO.P,J2,13,Pin_13*%
%TO.N,unconnected-(J2-Pin_13-Pad13)*%
X25557000Y65268000D03*
%TO.P,J2,14,Pin_14*%
%TO.N,/DHT_SCL*%
X25557000Y62728000D03*
%TO.P,J2,15,Pin_15*%
%TO.N,/DHT_SDA*%
X25557000Y60188000D03*
%TO.P,J2,16,Pin_16*%
%TO.N,unconnected-(J2-Pin_16-Pad16)*%
X25557000Y57648000D03*
%TO.P,J2,17,Pin_17*%
%TO.N,unconnected-(J2-Pin_17-Pad17)*%
X25557000Y55108000D03*
%TO.P,J2,18,Pin_18*%
%TO.N,unconnected-(J2-Pin_18-Pad18)*%
X25557000Y52568000D03*
%TO.P,J2,19,Pin_19*%
%TO.N,unconnected-(J2-Pin_19-Pad19)*%
X25557000Y50028000D03*
%TD*%
D30*
%TO.P,F1,1*%
%TO.N,LINE*%
X22188000Y11938000D03*
X17588000Y11938000D03*
D31*
%TO.P,F1,2*%
%TO.N,/LIVE*%
X6288000Y11938000D03*
X1688000Y11938000D03*
%TD*%
D32*
%TO.P,PS1,1,AC/L*%
%TO.N,LINE*%
X36830000Y31750000D03*
D33*
%TO.P,PS1,2,AC/N*%
%TO.N,NEUT*%
X36830000Y37750000D03*
%TO.P,PS1,3,-Vout*%
%TO.N,GND*%
X3230000Y25750000D03*
%TO.P,PS1,4,+Vout*%
%TO.N,+3V3*%
X3230000Y43750000D03*
%TD*%
D34*
%TO.P,D5,1,A1*%
%TO.N,Net-(D5-A1)*%
X38029000Y11938000D03*
D35*
%TO.P,D5,2,A2*%
%TO.N,LINE*%
X38029000Y14478000D03*
%TO.P,D5,3,G*%
%TO.N,Net-(D5-G)*%
X38029000Y17018000D03*
%TD*%
D36*
%TO.N,+3V3*%
X29718000Y65024000D03*
X27940000Y66742500D03*
%TO.N,GND*%
X20814000Y45457430D03*
X6514000Y35571716D03*
X6514000Y85000286D03*
X13664000Y65228858D03*
X35264000Y51286000D03*
X28702000Y65024000D03*
X6514000Y94886000D03*
X20814000Y65228858D03*
X27940000Y85598000D03*
X35264000Y57586000D03*
X20814000Y55343144D03*
X20814000Y75114572D03*
X6514000Y45457430D03*
X13664000Y75114572D03*
X20814000Y25686000D03*
X13664000Y25686000D03*
X29564000Y51286000D03*
X28448000Y75184000D03*
X29564000Y57586000D03*
X13664000Y55343144D03*
X20814000Y94886000D03*
X13664000Y85000286D03*
X6514000Y55343144D03*
X13664000Y35571716D03*
X13664000Y94886000D03*
X28448000Y79248000D03*
X28448000Y77216000D03*
X20814000Y85000286D03*
X29718000Y84836000D03*
X6514000Y25686000D03*
X6514000Y65228858D03*
X6514000Y75114572D03*
X20814000Y35571716D03*
%TO.N,Net-(D1-A)*%
X24384000Y17780000D03*
%TO.N,Net-(D5-A1)*%
X37084000Y8636000D03*
X38608000Y10160000D03*
X35052000Y6686000D03*
X38100000Y7702000D03*
X36576000Y6686000D03*
X36576000Y7702000D03*
X37084000Y10160000D03*
X38608000Y8636000D03*
X37846000Y10160000D03*
X38100000Y6686000D03*
X35052000Y7702000D03*
%TO.N,/TEMP_DI*%
X32512000Y82804000D03*
%TO.N,/TEMP_CLK*%
X31496000Y82804000D03*
%TO.N,/TEMP1_CS*%
X31496000Y83566000D03*
%TO.N,/TEMP_DO*%
X30988000Y82042000D03*
%TO.N,/TEMP2_CS*%
X31750000Y72136000D03*
%TD*%
D37*
%TO.N,+3V3*%
X27940000Y66742500D02*
X29170000Y66742500D01*
X29282500Y65459500D02*
X29718000Y65024000D01*
X29282500Y65980000D02*
X29282500Y65459500D01*
X29170000Y66742500D02*
X29282500Y66630000D01*
X29210000Y65907500D02*
X29282500Y65980000D01*
%TO.N,Net-(J5-Pin_3)*%
X36167500Y90364500D02*
X36830000Y89702000D01*
X31496000Y90364500D02*
X36167500Y90364500D01*
%TO.N,Net-(J5-Pin_2)*%
X31496000Y91499500D02*
X36127500Y91499500D01*
X36127500Y91499500D02*
X36830000Y92202000D01*
%TO.N,Net-(J6-Pin_3)*%
X34570000Y67280000D02*
X38354000Y71064000D01*
X31750000Y76902500D02*
X35953500Y76902500D01*
X34157500Y67280000D02*
X34570000Y67280000D01*
X38354000Y74502000D02*
X36830000Y76026000D01*
X38354000Y71064000D02*
X38354000Y74502000D01*
X35953500Y76902500D02*
X36830000Y76026000D01*
%TO.N,Net-(J6-Pin_2)*%
X34157500Y66630000D02*
X34626000Y66630000D01*
X31750000Y78037500D02*
X36341500Y78037500D01*
X34626000Y66630000D02*
X38796000Y70800000D01*
X36341500Y78037500D02*
X36830000Y78526000D01*
X38796000Y70800000D02*
X38796000Y76560000D01*
X38796000Y76560000D02*
X36830000Y78526000D01*
%TO.N,Net-(D1-A)*%
X24384000Y13551500D02*
X24384000Y17780000D01*
%TO.N,Net-(D5-G)*%
X30221000Y17018000D02*
X38029000Y17018000D01*
X26655000Y13452000D02*
X30221000Y17018000D01*
%TO.N,Net-(D6-K)*%
X12700000Y7225000D02*
X14704500Y7225000D01*
X14704500Y7225000D02*
X15833500Y6096000D01*
D38*
%TO.N,NEUT*%
X34798000Y9398000D02*
X31750000Y6350000D01*
D37*
X10301000Y5475000D02*
X8382000Y3556000D01*
D38*
X39116000Y9398000D02*
X34798000Y9398000D01*
X31750000Y6350000D02*
X31750000Y3556000D01*
X36830000Y37750000D02*
X39751000Y34829000D01*
X39751000Y10033000D02*
X39116000Y9398000D01*
D37*
X12700000Y5475000D02*
X10301000Y5475000D01*
D38*
X39751000Y34829000D02*
X39751000Y10033000D01*
D37*
%TO.N,/HEATER_CTRL*%
X10767500Y52568000D02*
X13462000Y49873500D01*
X2057000Y52568000D02*
X10767500Y52568000D01*
%TO.N,/DHT_SCL*%
X34534000Y62728000D02*
X34114000Y62728000D01*
X25557000Y62728000D02*
X34114000Y62728000D01*
X37846000Y66040000D02*
X34534000Y62728000D01*
%TO.N,/DHT_SDA*%
X25557000Y60188000D02*
X37074000Y60188000D01*
X37074000Y60188000D02*
X37846000Y60960000D01*
%TO.N,Net-(J6-Pin_1)*%
X39522400Y70486000D02*
X39522400Y78333600D01*
X36614406Y67586000D02*
X36622400Y67586000D01*
X33020000Y64830000D02*
X33858406Y64830000D01*
X36622400Y67586000D02*
X39522400Y70486000D01*
X39522400Y78333600D02*
X36830000Y81026000D01*
X33858406Y64830000D02*
X36614406Y67586000D01*
%TO.N,Net-(J6-Pin_4)*%
X37846000Y71206000D02*
X37846000Y72510000D01*
X34157500Y67930000D02*
X34570000Y67930000D01*
X37846000Y72510000D02*
X36830000Y73526000D01*
X34570000Y67930000D02*
X37846000Y71206000D01*
%TO.N,Net-(R4-Pad1)*%
X31735000Y26939000D02*
X31735000Y21072000D01*
X13462000Y48678500D02*
X13462000Y45212000D01*
X13462000Y45212000D02*
X31735000Y26939000D01*
%TO.N,Net-(U2-ISENSOR)*%
X31720000Y64842500D02*
X31720000Y63873500D01*
X32370000Y64842500D02*
X32370000Y63776500D01*
X32370000Y63776500D02*
X32093500Y63500000D01*
X31720000Y63873500D02*
X32093500Y63500000D01*
%TO.N,Net-(U2-BIAS)*%
X31070000Y64842500D02*
X31070000Y63671500D01*
X30420000Y63978500D02*
X30898500Y63500000D01*
X30420000Y64842500D02*
X30420000Y63978500D01*
X31070000Y63671500D02*
X30898500Y63500000D01*
%TO.N,Net-(J2-Pin_6)*%
X25801000Y82804000D02*
X25557000Y83048000D01*
X28956000Y82804000D02*
X25801000Y82804000D01*
%TO.N,/TEMP_DI*%
X31205000Y76528454D02*
X31205000Y78449000D01*
X32512000Y82804000D02*
X32512000Y83235894D01*
X27619894Y88128000D02*
X25557000Y88128000D01*
X32512000Y79756000D02*
X32512000Y82804000D01*
X31205000Y78449000D02*
X32512000Y79756000D01*
X32512000Y83235894D02*
X27619894Y88128000D01*
X33020000Y69717500D02*
X33020000Y74713454D01*
X32572000Y82744000D02*
X32512000Y82804000D01*
X33020000Y74713454D02*
X31205000Y76528454D01*
%TO.N,/TEMP_CLK*%
X30885000Y76395906D02*
X30885000Y78637000D01*
X31496000Y79248000D02*
X31496000Y82804000D01*
X30885000Y78637000D02*
X31496000Y79248000D01*
X30151000Y82804000D02*
X31496000Y82804000D01*
X32370000Y69717500D02*
X32370000Y74910906D01*
X32370000Y74910906D02*
X30885000Y76395906D01*
%TO.N,/TEMP1_CS*%
X31496000Y83566000D02*
X27579000Y83566000D01*
X27579000Y83566000D02*
X25557000Y85588000D01*
%TO.N,/TEMP_DO*%
X30565000Y76263358D02*
X30565000Y79079000D01*
X29631000Y82042000D02*
X25557000Y77968000D01*
X31070000Y69717500D02*
X31070000Y75758358D01*
X30565000Y79079000D02*
X30988000Y79502000D01*
X31070000Y75758358D02*
X30565000Y76263358D01*
X30988000Y79502000D02*
X30988000Y82042000D01*
X30988000Y82042000D02*
X29631000Y82042000D01*
%TO.N,/TEMP2_CS*%
X31720000Y72106000D02*
X31750000Y72136000D01*
X31720000Y69717500D02*
X31720000Y72106000D01*
%TO.N,/TEMP2_RDY*%
X29282500Y67280000D02*
X26085000Y67280000D01*
X26085000Y67280000D02*
X25557000Y67808000D01*
%TO.N,/LED_HEATING_STATE*%
X26894500Y93208000D02*
X28566500Y91536000D01*
X25557000Y93208000D02*
X26894500Y93208000D01*
%TO.N,Net-(D7-A)*%
X29761500Y92388500D02*
X29139000Y93011000D01*
X29139000Y93011000D02*
X29139000Y94486000D01*
X29761500Y91536000D02*
X29761500Y92388500D01*
%TD*%
%TA.AperFunction,Conductor*%
%TO.N,LINE*%
G36*
X37283449Y15737556D02*
G01*
X37331435Y15716508D01*
X37508095Y15639017D01*
X37741524Y15579905D01*
X37921400Y15565000D01*
X37921402Y15565000D01*
X38136598Y15565000D01*
X38136600Y15565000D01*
X38316476Y15579905D01*
X38549905Y15639017D01*
X38770422Y15735745D01*
X38770421Y15735745D01*
X38774551Y15737556D01*
X38824361Y15748000D01*
X38976500Y15748000D01*
X39043539Y15728315D01*
X39089294Y15675511D01*
X39100500Y15624000D01*
X39100500Y13586000D01*
X39080815Y13518961D01*
X39028011Y13473206D01*
X38976500Y13462000D01*
X36322000Y13462000D01*
X36322000Y10172500D01*
X36302315Y10105461D01*
X36249511Y10059706D01*
X36198000Y10048500D01*
X34883505Y10048500D01*
X34867494Y10050268D01*
X34867472Y10050026D01*
X34859705Y10050760D01*
X34859704Y10050760D01*
X34787797Y10048500D01*
X34757075Y10048500D01*
X34757071Y10048500D01*
X34757061Y10048499D01*
X34749793Y10047581D01*
X34743976Y10047124D01*
X34695436Y10045598D01*
X34695425Y10045596D01*
X34675049Y10039677D01*
X34656008Y10035734D01*
X34634953Y10033074D01*
X34634937Y10033070D01*
X34589771Y10015188D01*
X34584244Y10013296D01*
X34537599Y9999744D01*
X34519327Y9988938D01*
X34501861Y9980381D01*
X34482128Y9972568D01*
X34442830Y9944017D01*
X34437953Y9940814D01*
X34424281Y9932728D01*
X34396132Y9916080D01*
X34381126Y9901074D01*
X34366336Y9888442D01*
X34349167Y9875968D01*
X34349165Y9875966D01*
X34318194Y9838530D01*
X34314262Y9834209D01*
X33914372Y9434319D01*
X33853049Y9400834D01*
X33826691Y9398000D01*
X27686000Y9398000D01*
X27686000Y5204000D01*
X27666315Y5136961D01*
X27613511Y5091206D01*
X27562000Y5080000D01*
X19174000Y5080000D01*
X19106961Y5099685D01*
X19061206Y5152489D01*
X19050000Y5204000D01*
X19050000Y9144000D01*
X15872000Y9144000D01*
X15804961Y9163685D01*
X15759206Y9216489D01*
X15748000Y9268000D01*
X15748000Y13592000D01*
X15767685Y13659039D01*
X15820489Y13704794D01*
X15872000Y13716000D01*
X23284501Y13716000D01*
X23351540Y13696315D01*
X23397295Y13643511D01*
X23408501Y13592000D01*
X23408501Y13567314D01*
X23418825Y13466248D01*
X23426969Y13441672D01*
X23473092Y13302484D01*
X23556685Y13166958D01*
X23563661Y13155649D01*
X23585681Y13133629D01*
X23619166Y13072306D01*
X23622000Y13045948D01*
X23622000Y12700000D01*
X25022000Y12700000D01*
X25089039Y12680315D01*
X25134794Y12627511D01*
X25146000Y12576000D01*
X25146000Y11938000D01*
X34290000Y11938000D01*
X34290000Y15624000D01*
X34309685Y15691039D01*
X34362489Y15736794D01*
X34414000Y15748000D01*
X37233639Y15748000D01*
X37283449Y15737556D01*
G37*
%TD.AperFunction*%
%TD*%
%TA.AperFunction,Conductor*%
%TO.N,/LIVE*%
G36*
X8071039Y13696315D02*
G01*
X8116794Y13643511D01*
X8128000Y13592000D01*
X8128000Y9268000D01*
X8108315Y9200961D01*
X8055511Y9155206D01*
X8004000Y9144000D01*
X5334000Y9144000D01*
X5334000Y378000D01*
X5314315Y310961D01*
X5261511Y265206D01*
X5210000Y254000D01*
X378000Y254000D01*
X310961Y273685D01*
X265206Y326489D01*
X254000Y378000D01*
X254000Y13592000D01*
X273685Y13659039D01*
X326489Y13704794D01*
X378000Y13716000D01*
X8004000Y13716000D01*
X8071039Y13696315D01*
G37*
%TD.AperFunction*%
%TD*%
%TA.AperFunction,Conductor*%
%TO.N,NEUT*%
G36*
X33471039Y8616315D02*
G01*
X33516794Y8563511D01*
X33528000Y8512000D01*
X33528000Y378000D01*
X33508315Y310961D01*
X33455511Y265206D01*
X33404000Y254000D01*
X6474000Y254000D01*
X6406961Y273685D01*
X6361206Y326489D01*
X6350000Y378000D01*
X6350000Y6226000D01*
X6369685Y6293039D01*
X6422489Y6338794D01*
X6474000Y6350000D01*
X11306000Y6350000D01*
X11373039Y6330315D01*
X11418794Y6277511D01*
X11430000Y6226000D01*
X11430000Y3810000D01*
X28702000Y3810000D01*
X28702000Y8512000D01*
X28721685Y8579039D01*
X28774489Y8624794D01*
X28826000Y8636000D01*
X33404000Y8636000D01*
X33471039Y8616315D01*
G37*
%TD.AperFunction*%
%TD*%
%TA.AperFunction,Conductor*%
%TO.N,Net-(D5-A1)*%
G36*
X39797334Y9056874D02*
G01*
X39853268Y9015003D01*
X39877684Y8949538D01*
X39878000Y8940693D01*
X39878000Y124500D01*
X39858315Y57461D01*
X39805511Y11706D01*
X39754000Y500D01*
X34414000Y500D01*
X34346961Y20185D01*
X34301206Y72989D01*
X34290000Y124500D01*
X34290000Y7918692D01*
X34309685Y7985731D01*
X34326319Y8006373D01*
X34919627Y8599681D01*
X34980950Y8633166D01*
X35007308Y8636000D01*
X36830000Y8636000D01*
X36835196Y8641197D01*
X36849685Y8690539D01*
X36902489Y8736294D01*
X36954000Y8747500D01*
X39030495Y8747500D01*
X39046505Y8745733D01*
X39046528Y8745974D01*
X39054289Y8745242D01*
X39054296Y8745240D01*
X39126203Y8747500D01*
X39156925Y8747500D01*
X39164190Y8748419D01*
X39170016Y8748878D01*
X39218569Y8750403D01*
X39238956Y8756327D01*
X39257996Y8760269D01*
X39279058Y8762929D01*
X39324235Y8780817D01*
X39329735Y8782700D01*
X39376398Y8796256D01*
X39394665Y8807061D01*
X39412136Y8815620D01*
X39431871Y8823432D01*
X39471177Y8851990D01*
X39476043Y8855187D01*
X39517865Y8879919D01*
X39532870Y8894925D01*
X39547668Y8907564D01*
X39564837Y8920037D01*
X39595809Y8957478D01*
X39599724Y8961780D01*
X39666321Y9028377D01*
X39727643Y9061859D01*
X39797334Y9056874D01*
G37*
%TD.AperFunction*%
%TA.AperFunction,Conductor*%
G36*
X39043539Y12934315D02*
G01*
X39089294Y12881511D01*
X39100500Y12830000D01*
X39100500Y10353808D01*
X39080815Y10286769D01*
X39064181Y10266127D01*
X38882873Y10084819D01*
X38821550Y10051334D01*
X38795192Y10048500D01*
X36954000Y10048500D01*
X36886961Y10068185D01*
X36841206Y10120989D01*
X36830000Y10172500D01*
X36830000Y12830000D01*
X36849685Y12897039D01*
X36902489Y12942794D01*
X36954000Y12954000D01*
X38976500Y12954000D01*
X39043539Y12934315D01*
G37*
%TD.AperFunction*%
%TD*%
%TA.AperFunction,Conductor*%
%TO.N,GND*%
G36*
X39821039Y97770315D02*
G01*
X39866794Y97717511D01*
X39878000Y97666000D01*
X39878000Y79105384D01*
X39858315Y79038345D01*
X39805511Y78992590D01*
X39736353Y78982646D01*
X39672797Y79011671D01*
X39666319Y79017703D01*
X38341818Y80342204D01*
X38308333Y80403527D01*
X38305499Y80429885D01*
X38305499Y81676002D01*
X38305498Y81676019D01*
X38294999Y81778797D01*
X38294998Y81778800D01*
X38261604Y81879575D01*
X38239814Y81945334D01*
X38147712Y82094656D01*
X38023656Y82218712D01*
X37874334Y82310814D01*
X37707797Y82365999D01*
X37707795Y82366000D01*
X37605010Y82376500D01*
X36054998Y82376500D01*
X36054981Y82376499D01*
X35952203Y82366000D01*
X35952200Y82365999D01*
X35785668Y82310815D01*
X35785663Y82310813D01*
X35636342Y82218711D01*
X35512289Y82094658D01*
X35420187Y81945337D01*
X35420186Y81945334D01*
X35365001Y81778797D01*
X35365001Y81778796D01*
X35365000Y81778796D01*
X35354500Y81676017D01*
X35354500Y80375999D01*
X35354501Y80375982D01*
X35365000Y80273204D01*
X35365001Y80273201D01*
X35420185Y80106669D01*
X35420186Y80106666D01*
X35512288Y79957344D01*
X35636344Y79833288D01*
X35780257Y79744522D01*
X35791120Y79737822D01*
X35837845Y79685874D01*
X35849068Y79616912D01*
X35821224Y79552829D01*
X35813706Y79544602D01*
X35666501Y79397397D01*
X35666501Y79397396D01*
X35530967Y79203835D01*
X35530965Y79203831D01*
X35431098Y78989665D01*
X35431094Y78989656D01*
X35369937Y78761411D01*
X35369937Y78761408D01*
X35367731Y78736192D01*
X35342278Y78671123D01*
X35285687Y78630145D01*
X35244203Y78623000D01*
X32510379Y78623000D01*
X32443340Y78642685D01*
X32422698Y78659319D01*
X32420700Y78661317D01*
X32387215Y78722640D01*
X32392199Y78792332D01*
X32420700Y78836679D01*
X32628683Y79044662D01*
X32896007Y79311987D01*
X32902097Y79317328D01*
X32929583Y79338417D01*
X33023433Y79460724D01*
X33025568Y79465877D01*
X33048045Y79520144D01*
X33082429Y79603154D01*
X33097500Y79717627D01*
X33097500Y79717633D01*
X33102551Y79756000D01*
X33098030Y79790337D01*
X33097500Y79798434D01*
X33097500Y82289466D01*
X33116507Y82355439D01*
X33123143Y82365999D01*
X33192456Y82476310D01*
X33248313Y82635941D01*
X33248313Y82635942D01*
X33248314Y82635944D01*
X33267249Y82803998D01*
X33267249Y82804003D01*
X33248314Y82972057D01*
X33221740Y83048001D01*
X33192456Y83131690D01*
X33192454Y83131693D01*
X33192454Y83131694D01*
X33110487Y83262142D01*
X33092542Y83311929D01*
X33082430Y83388740D01*
X33023433Y83531170D01*
X33002920Y83557903D01*
X32952168Y83624045D01*
X32952154Y83624061D01*
X32929583Y83653477D01*
X32929581Y83653478D01*
X32929581Y83653479D01*
X32902105Y83674562D01*
X32896008Y83679908D01*
X28063905Y88512011D01*
X28058566Y88518099D01*
X28037477Y88545583D01*
X28027062Y88553575D01*
X28004500Y88570888D01*
X27915170Y88639433D01*
X27915168Y88639435D01*
X27772743Y88698428D01*
X27772741Y88698429D01*
X27772740Y88698429D01*
X27654234Y88714031D01*
X27619895Y88718552D01*
X27619893Y88718552D01*
X27600083Y88715944D01*
X27585553Y88714031D01*
X27577454Y88713500D01*
X26853086Y88713500D01*
X26786047Y88733185D01*
X26740705Y88785094D01*
X26731038Y88805824D01*
X26731034Y88805831D01*
X26595494Y88999403D01*
X26428402Y89166494D01*
X26428396Y89166499D01*
X26242842Y89296425D01*
X26199217Y89351002D01*
X26192023Y89420500D01*
X26223546Y89482855D01*
X26242842Y89499575D01*
X26308615Y89545630D01*
X26428401Y89629505D01*
X26595495Y89796599D01*
X26731035Y89990170D01*
X26830903Y90204337D01*
X26892063Y90432592D01*
X26912659Y90668000D01*
X26892063Y90903408D01*
X26830903Y91131663D01*
X26731035Y91345829D01*
X26595495Y91539401D01*
X26595494Y91539403D01*
X26428402Y91706494D01*
X26428396Y91706499D01*
X26242842Y91836425D01*
X26199217Y91891002D01*
X26192023Y91960500D01*
X26223546Y92022855D01*
X26242842Y92039575D01*
X26307715Y92085000D01*
X26428401Y92169505D01*
X26595495Y92336599D01*
X26651740Y92416927D01*
X26706315Y92460550D01*
X26775813Y92467744D01*
X26838168Y92436222D01*
X26840995Y92433483D01*
X27672181Y91602297D01*
X27705666Y91540974D01*
X27708500Y91514617D01*
X27708500Y91322612D01*
X27714546Y91256074D01*
X27714548Y91256067D01*
X27762265Y91102934D01*
X27762267Y91102930D01*
X27845242Y90965671D01*
X27845246Y90965666D01*
X27958665Y90852247D01*
X27958670Y90852243D01*
X28095929Y90769268D01*
X28095933Y90769266D01*
X28150100Y90752388D01*
X28249067Y90721548D01*
X28315619Y90715500D01*
X28817380Y90715501D01*
X28817388Y90715501D01*
X28883926Y90721547D01*
X28883927Y90721548D01*
X28883933Y90721548D01*
X29037069Y90769267D01*
X29099850Y90807221D01*
X29167405Y90825056D01*
X29228149Y90807221D01*
X29290931Y90769267D01*
X29290934Y90769266D01*
X29290933Y90769266D01*
X29345100Y90752388D01*
X29444067Y90721548D01*
X29510619Y90715500D01*
X30012380Y90715501D01*
X30012388Y90715501D01*
X30078926Y90721547D01*
X30078927Y90721548D01*
X30078933Y90721548D01*
X30232069Y90769267D01*
X30302717Y90811976D01*
X30369329Y90852243D01*
X30369330Y90852245D01*
X30369335Y90852247D01*
X30482753Y90965665D01*
X30500558Y90995118D01*
X30520407Y91027952D01*
X30571934Y91075140D01*
X30640793Y91086979D01*
X30705122Y91059711D01*
X30733258Y91026921D01*
X30734629Y91024602D01*
X30734630Y91024600D01*
X30741859Y91012377D01*
X30752065Y90995118D01*
X30769245Y90927394D01*
X30752064Y90868881D01*
X30734630Y90839401D01*
X30734628Y90839396D01*
X30688424Y90680363D01*
X30688423Y90680357D01*
X30685500Y90643205D01*
X30685501Y90085798D01*
X30688423Y90048646D01*
X30688423Y90048643D01*
X30688424Y90048642D01*
X30720742Y89937404D01*
X30734630Y89889600D01*
X30818934Y89747050D01*
X30818941Y89747041D01*
X30936040Y89629942D01*
X30936049Y89629935D01*
X30975435Y89606642D01*
X31078600Y89545630D01*
X31120541Y89533445D01*
X31237637Y89499425D01*
X31237640Y89499425D01*
X31237642Y89499424D01*
X31250027Y89498450D01*
X31274795Y89496500D01*
X31274796Y89496501D01*
X31274797Y89496500D01*
X31717202Y89496501D01*
X31754358Y89499424D01*
X31913400Y89545630D01*
X32055954Y89629937D01*
X32168699Y89742683D01*
X32230020Y89776166D01*
X32256379Y89779000D01*
X35228979Y89779000D01*
X35296018Y89759315D01*
X35341773Y89706511D01*
X35352507Y89665808D01*
X35369936Y89466597D01*
X35369938Y89466587D01*
X35431094Y89238345D01*
X35431096Y89238341D01*
X35431097Y89238337D01*
X35464596Y89166499D01*
X35530964Y89024172D01*
X35530965Y89024170D01*
X35666505Y88830598D01*
X35833597Y88663506D01*
X35990595Y88553575D01*
X36034220Y88498998D01*
X36041414Y88429500D01*
X36009891Y88367145D01*
X35990595Y88350425D01*
X35833597Y88240495D01*
X35666506Y88073403D01*
X35666501Y88073396D01*
X35530967Y87879835D01*
X35530965Y87879831D01*
X35431098Y87665665D01*
X35431094Y87665656D01*
X35369938Y87437414D01*
X35369936Y87437404D01*
X35349341Y87202001D01*
X35349341Y87202000D01*
X35369936Y86966597D01*
X35369938Y86966587D01*
X35431094Y86738345D01*
X35431096Y86738341D01*
X35431097Y86738337D01*
X35481031Y86631254D01*
X35530964Y86524172D01*
X35530965Y86524170D01*
X35666505Y86330598D01*
X35833597Y86163506D01*
X36027169Y86027966D01*
X36027171Y86027965D01*
X36241337Y85928097D01*
X36469592Y85866937D01*
X36646034Y85851500D01*
X37013966Y85851500D01*
X37190408Y85866937D01*
X37418663Y85928097D01*
X37632829Y86027965D01*
X37826401Y86163505D01*
X37993495Y86330599D01*
X38129035Y86524170D01*
X38228903Y86738337D01*
X38290063Y86966592D01*
X38310659Y87202000D01*
X38290063Y87437408D01*
X38228903Y87665663D01*
X38129035Y87879829D01*
X38129034Y87879831D01*
X37993494Y88073403D01*
X37826403Y88240494D01*
X37770187Y88279856D01*
X37669401Y88350427D01*
X37625778Y88405001D01*
X37618584Y88474500D01*
X37650106Y88536855D01*
X37669398Y88553572D01*
X37826401Y88663505D01*
X37993495Y88830599D01*
X38129035Y89024170D01*
X38228903Y89238337D01*
X38290063Y89466592D01*
X38310659Y89702000D01*
X38290063Y89937408D01*
X38228903Y90165663D01*
X38129035Y90379829D01*
X38092091Y90432592D01*
X37993494Y90573403D01*
X37826403Y90740494D01*
X37731107Y90807220D01*
X37669401Y90850427D01*
X37625778Y90905001D01*
X37618584Y90974500D01*
X37650106Y91036855D01*
X37669398Y91053572D01*
X37826401Y91163505D01*
X37993495Y91330599D01*
X38129035Y91524170D01*
X38228903Y91738337D01*
X38290063Y91966592D01*
X38310659Y92202000D01*
X38307924Y92233255D01*
X38300478Y92318370D01*
X38290063Y92437408D01*
X38228903Y92665663D01*
X38129035Y92879829D01*
X38129034Y92879831D01*
X37993494Y93073403D01*
X37846295Y93220602D01*
X37812810Y93281925D01*
X37817794Y93351617D01*
X37859666Y93407550D01*
X37868880Y93413822D01*
X37916847Y93443408D01*
X38023656Y93509288D01*
X38147712Y93633344D01*
X38239814Y93782666D01*
X38294999Y93949203D01*
X38305500Y94051991D01*
X38305499Y95352008D01*
X38294999Y95454797D01*
X38239814Y95621334D01*
X38147712Y95770656D01*
X38023656Y95894712D01*
X37874334Y95986814D01*
X37707797Y96041999D01*
X37707795Y96042000D01*
X37605010Y96052500D01*
X36054998Y96052500D01*
X36054981Y96052499D01*
X35952203Y96042000D01*
X35952200Y96041999D01*
X35785668Y95986815D01*
X35785663Y95986813D01*
X35636342Y95894711D01*
X35512289Y95770658D01*
X35420187Y95621337D01*
X35420186Y95621334D01*
X35365001Y95454797D01*
X35365001Y95454796D01*
X35365000Y95454796D01*
X35354500Y95352017D01*
X35354500Y94051999D01*
X35354501Y94051982D01*
X35365000Y93949204D01*
X35365001Y93949201D01*
X35386001Y93885829D01*
X35420186Y93782666D01*
X35501467Y93650887D01*
X35512289Y93633343D01*
X35636344Y93509288D01*
X35791120Y93413822D01*
X35837845Y93361874D01*
X35849068Y93292912D01*
X35821224Y93228829D01*
X35813706Y93220602D01*
X35666501Y93073397D01*
X35666501Y93073396D01*
X35530967Y92879835D01*
X35530965Y92879831D01*
X35431098Y92665665D01*
X35431094Y92665656D01*
X35369938Y92437414D01*
X35369936Y92437404D01*
X35361117Y92336602D01*
X35352147Y92234066D01*
X35349008Y92198192D01*
X35323555Y92133124D01*
X35266965Y92092145D01*
X35225480Y92085000D01*
X32256379Y92085000D01*
X32189340Y92104685D01*
X32168702Y92121315D01*
X32055954Y92234063D01*
X32055953Y92234064D01*
X32055950Y92234066D01*
X31945287Y92299512D01*
X31913400Y92318370D01*
X31913399Y92318371D01*
X31913398Y92318371D01*
X31913395Y92318372D01*
X31754362Y92364576D01*
X31754356Y92364577D01*
X31717205Y92367500D01*
X31717203Y92367500D01*
X31274798Y92367499D01*
X31237645Y92364577D01*
X31078599Y92318370D01*
X30936049Y92234066D01*
X30936040Y92234059D01*
X30818941Y92116960D01*
X30818932Y92116949D01*
X30755077Y92008976D01*
X30704008Y91961293D01*
X30635266Y91948790D01*
X30570677Y91975436D01*
X30542232Y92007945D01*
X30482753Y92106335D01*
X30383318Y92205770D01*
X30349834Y92267093D01*
X30347000Y92293451D01*
X30347000Y92346061D01*
X30347531Y92354162D01*
X30352052Y92388500D01*
X30348310Y92416924D01*
X30331929Y92541346D01*
X30310134Y92593963D01*
X30272934Y92683775D01*
X30272932Y92683777D01*
X30201668Y92776651D01*
X30201654Y92776667D01*
X30179083Y92806083D01*
X30179081Y92806084D01*
X30179081Y92806085D01*
X30151605Y92827168D01*
X30145508Y92832514D01*
X29760819Y93217203D01*
X29727334Y93278526D01*
X29724500Y93304884D01*
X29724500Y93496007D01*
X29744185Y93563046D01*
X29783402Y93601545D01*
X29887350Y93665660D01*
X30009340Y93787650D01*
X30099908Y93934484D01*
X30154174Y94098247D01*
X30164500Y94199323D01*
X30164499Y94772676D01*
X30162676Y94790518D01*
X30154174Y94873753D01*
X30099908Y95037516D01*
X30009340Y95184350D01*
X29887350Y95306340D01*
X29740516Y95396908D01*
X29576753Y95451174D01*
X29576751Y95451175D01*
X29475678Y95461500D01*
X28802330Y95461500D01*
X28802312Y95461499D01*
X28701247Y95451175D01*
X28537484Y95396908D01*
X28537481Y95396907D01*
X28390648Y95306339D01*
X28268661Y95184352D01*
X28178093Y95037519D01*
X28178092Y95037516D01*
X28123826Y94873753D01*
X28123826Y94873752D01*
X28123825Y94873752D01*
X28113500Y94772685D01*
X28113500Y94199331D01*
X28113501Y94199313D01*
X28123825Y94098248D01*
X28160109Y93988751D01*
X28178092Y93934484D01*
X28268660Y93787650D01*
X28390650Y93665660D01*
X28494596Y93601545D01*
X28541321Y93549598D01*
X28553500Y93496007D01*
X28553500Y93053442D01*
X28552969Y93045340D01*
X28548448Y93011001D01*
X28548448Y93011000D01*
X28568571Y92858155D01*
X28568572Y92858151D01*
X28627565Y92715727D01*
X28627566Y92715725D01*
X28627567Y92715724D01*
X28690414Y92633820D01*
X28721417Y92593417D01*
X28732362Y92585018D01*
X28740368Y92578875D01*
X28781571Y92522447D01*
X28785725Y92452701D01*
X28751512Y92391781D01*
X28689794Y92359028D01*
X28664881Y92356500D01*
X28625384Y92356500D01*
X28558345Y92376185D01*
X28537703Y92392819D01*
X27957925Y92972597D01*
X27338511Y93592011D01*
X27333172Y93598099D01*
X27312083Y93625583D01*
X27301969Y93633344D01*
X27279106Y93650888D01*
X27189776Y93719433D01*
X27189774Y93719435D01*
X27047349Y93778428D01*
X27047347Y93778429D01*
X27047346Y93778429D01*
X26932873Y93793500D01*
X26894501Y93798552D01*
X26894498Y93798552D01*
X26868976Y93795192D01*
X26799941Y93805958D01*
X26747685Y93852338D01*
X26740408Y93865728D01*
X26731035Y93885829D01*
X26696965Y93934487D01*
X26595494Y94079403D01*
X26428402Y94246494D01*
X26428395Y94246499D01*
X26234834Y94382033D01*
X26234830Y94382035D01*
X26185174Y94405190D01*
X26020663Y94481903D01*
X26020659Y94481904D01*
X26020655Y94481906D01*
X25792413Y94543062D01*
X25792403Y94543064D01*
X25557001Y94563659D01*
X25556999Y94563659D01*
X25321596Y94543064D01*
X25321586Y94543062D01*
X25093344Y94481906D01*
X25093335Y94481902D01*
X24879171Y94382036D01*
X24879169Y94382035D01*
X24685597Y94246495D01*
X24518505Y94079403D01*
X24382965Y93885831D01*
X24382964Y93885829D01*
X24283098Y93671665D01*
X24283094Y93671656D01*
X24221938Y93443414D01*
X24221936Y93443404D01*
X24201341Y93208001D01*
X24201341Y93208000D01*
X24221936Y92972597D01*
X24221938Y92972587D01*
X24283094Y92744345D01*
X24283096Y92744341D01*
X24283097Y92744337D01*
X24364459Y92569857D01*
X24382965Y92530170D01*
X24382967Y92530166D01*
X24518501Y92336605D01*
X24518506Y92336598D01*
X24685597Y92169507D01*
X24685603Y92169502D01*
X24871158Y92039575D01*
X24914783Y91984998D01*
X24921977Y91915500D01*
X24890454Y91853145D01*
X24871158Y91836425D01*
X24685597Y91706495D01*
X24518505Y91539403D01*
X24382965Y91345831D01*
X24382964Y91345829D01*
X24283098Y91131665D01*
X24283094Y91131656D01*
X24221938Y90903414D01*
X24221936Y90903404D01*
X24201341Y90668001D01*
X24201341Y90668000D01*
X24221936Y90432597D01*
X24221938Y90432587D01*
X24283094Y90204345D01*
X24283096Y90204341D01*
X24283097Y90204337D01*
X24338373Y90085798D01*
X24382965Y89990170D01*
X24382967Y89990166D01*
X24518501Y89796605D01*
X24518506Y89796598D01*
X24685597Y89629507D01*
X24685603Y89629502D01*
X24871158Y89499575D01*
X24914783Y89444998D01*
X24921977Y89375500D01*
X24890454Y89313145D01*
X24871158Y89296425D01*
X24685597Y89166495D01*
X24518505Y88999403D01*
X24382965Y88805831D01*
X24382964Y88805829D01*
X24283098Y88591665D01*
X24283094Y88591656D01*
X24221938Y88363414D01*
X24221936Y88363404D01*
X24201341Y88128001D01*
X24201341Y88128000D01*
X24221936Y87892597D01*
X24221938Y87892587D01*
X24283094Y87664345D01*
X24283096Y87664341D01*
X24283097Y87664337D01*
X24339911Y87542500D01*
X24382965Y87450170D01*
X24382967Y87450166D01*
X24518501Y87256605D01*
X24518506Y87256598D01*
X24685597Y87089507D01*
X24685603Y87089502D01*
X24871158Y86959575D01*
X24914783Y86904998D01*
X24921977Y86835500D01*
X24890454Y86773145D01*
X24871158Y86756425D01*
X24685597Y86626495D01*
X24518505Y86459403D01*
X24382965Y86265831D01*
X24382964Y86265829D01*
X24283098Y86051665D01*
X24283094Y86051656D01*
X24221938Y85823414D01*
X24221936Y85823404D01*
X24201341Y85588001D01*
X24201341Y85588000D01*
X24221936Y85352597D01*
X24221938Y85352587D01*
X24283094Y85124345D01*
X24283096Y85124341D01*
X24283097Y85124337D01*
X24300163Y85087739D01*
X24382965Y84910170D01*
X24382967Y84910166D01*
X24518501Y84716605D01*
X24518506Y84716598D01*
X24685597Y84549507D01*
X24685603Y84549502D01*
X24871158Y84419575D01*
X24914783Y84364998D01*
X24921977Y84295500D01*
X24890454Y84233145D01*
X24871158Y84216425D01*
X24685597Y84086495D01*
X24518505Y83919403D01*
X24382965Y83725831D01*
X24382964Y83725829D01*
X24283098Y83511665D01*
X24283094Y83511656D01*
X24221938Y83283414D01*
X24221936Y83283404D01*
X24201341Y83048001D01*
X24201341Y83048000D01*
X24221936Y82812597D01*
X24221938Y82812587D01*
X24283094Y82584345D01*
X24283096Y82584341D01*
X24283097Y82584337D01*
X24380013Y82376500D01*
X24382965Y82370170D01*
X24382967Y82370166D01*
X24489017Y82218712D01*
X24518505Y82176599D01*
X24685599Y82009505D01*
X24714101Y81989548D01*
X24879165Y81873968D01*
X24879167Y81873967D01*
X24879170Y81873965D01*
X25093337Y81774097D01*
X25321592Y81712937D01*
X25509918Y81696461D01*
X25556999Y81692341D01*
X25557000Y81692341D01*
X25557001Y81692341D01*
X25596234Y81695774D01*
X25792408Y81712937D01*
X26020663Y81774097D01*
X26234830Y81873965D01*
X26428401Y82009505D01*
X26539143Y82120247D01*
X26599324Y82180427D01*
X26600726Y82179025D01*
X26651668Y82212911D01*
X26688477Y82218500D01*
X28198550Y82218500D01*
X28265589Y82198815D01*
X28286231Y82182181D01*
X28348165Y82120247D01*
X28348170Y82120243D01*
X28485429Y82037268D01*
X28485433Y82037266D01*
X28528092Y82023973D01*
X28586240Y81985236D01*
X28614214Y81921211D01*
X28603133Y81852225D01*
X28578883Y81817907D01*
X26057260Y79296284D01*
X25995937Y79262799D01*
X25937486Y79264190D01*
X25792413Y79303062D01*
X25792403Y79303064D01*
X25557001Y79323659D01*
X25556999Y79323659D01*
X25321596Y79303064D01*
X25321586Y79303062D01*
X25093344Y79241906D01*
X25093335Y79241902D01*
X24879171Y79142036D01*
X24879169Y79142035D01*
X24685597Y79006495D01*
X24518505Y78839403D01*
X24382965Y78645831D01*
X24382964Y78645829D01*
X24315938Y78502090D01*
X24285596Y78437021D01*
X24283098Y78431665D01*
X24283094Y78431656D01*
X24221938Y78203414D01*
X24221936Y78203404D01*
X24201341Y77968001D01*
X24201341Y77968000D01*
X24221936Y77732597D01*
X24221938Y77732587D01*
X24283094Y77504345D01*
X24283096Y77504341D01*
X24283097Y77504337D01*
X24382965Y77290170D01*
X24382967Y77290166D01*
X24518501Y77096605D01*
X24518506Y77096598D01*
X24685597Y76929507D01*
X24685603Y76929502D01*
X24871158Y76799575D01*
X24914783Y76744998D01*
X24921977Y76675500D01*
X24890454Y76613145D01*
X24871158Y76596425D01*
X24685597Y76466495D01*
X24518505Y76299403D01*
X24382965Y76105831D01*
X24382964Y76105829D01*
X24283098Y75891665D01*
X24283097Y75891663D01*
X24221938Y75663414D01*
X24221936Y75663404D01*
X24201341Y75428001D01*
X24201341Y75428000D01*
X24221936Y75192597D01*
X24221938Y75192587D01*
X24283094Y74964345D01*
X24283096Y74964341D01*
X24283097Y74964337D01*
X24323555Y74877575D01*
X24382965Y74750170D01*
X24382967Y74750166D01*
X24518501Y74556605D01*
X24518506Y74556598D01*
X24685597Y74389507D01*
X24685603Y74389502D01*
X24871158Y74259575D01*
X24914783Y74204998D01*
X24921977Y74135500D01*
X24890454Y74073145D01*
X24871158Y74056425D01*
X24685597Y73926495D01*
X24518505Y73759403D01*
X24382965Y73565831D01*
X24382964Y73565829D01*
X24283098Y73351665D01*
X24283094Y73351656D01*
X24221938Y73123414D01*
X24221936Y73123404D01*
X24201341Y72888001D01*
X24201341Y72888000D01*
X24221936Y72652597D01*
X24221938Y72652587D01*
X24283094Y72424345D01*
X24283096Y72424341D01*
X24283097Y72424337D01*
X24316845Y72351965D01*
X24382965Y72210170D01*
X24382967Y72210166D01*
X24518501Y72016605D01*
X24518506Y72016598D01*
X24685597Y71849507D01*
X24685603Y71849502D01*
X24871158Y71719575D01*
X24914783Y71664998D01*
X24921977Y71595500D01*
X24890454Y71533145D01*
X24871158Y71516425D01*
X24685597Y71386495D01*
X24518505Y71219403D01*
X24382965Y71025831D01*
X24382964Y71025829D01*
X24283098Y70811665D01*
X24283094Y70811656D01*
X24221938Y70583414D01*
X24221936Y70583404D01*
X24201341Y70348001D01*
X24201341Y70348000D01*
X24221936Y70112597D01*
X24221938Y70112587D01*
X24283094Y69884345D01*
X24283096Y69884341D01*
X24283097Y69884337D01*
X24382965Y69670170D01*
X24382967Y69670166D01*
X24518501Y69476605D01*
X24518506Y69476598D01*
X24685597Y69309507D01*
X24685603Y69309502D01*
X24871158Y69179575D01*
X24914783Y69124998D01*
X24921977Y69055500D01*
X24890454Y68993145D01*
X24871158Y68976425D01*
X24685597Y68846495D01*
X24518505Y68679403D01*
X24382965Y68485831D01*
X24382964Y68485829D01*
X24283098Y68271665D01*
X24283094Y68271656D01*
X24221938Y68043414D01*
X24221936Y68043404D01*
X24201341Y67808001D01*
X24201341Y67808000D01*
X24221936Y67572597D01*
X24221938Y67572587D01*
X24283094Y67344345D01*
X24283096Y67344341D01*
X24283097Y67344337D01*
X24319282Y67266739D01*
X24382965Y67130170D01*
X24382967Y67130166D01*
X24472393Y67002454D01*
X24505620Y66955000D01*
X24518501Y66936605D01*
X24518506Y66936598D01*
X24685597Y66769507D01*
X24685603Y66769502D01*
X24871158Y66639575D01*
X24914783Y66584998D01*
X24921977Y66515500D01*
X24890454Y66453145D01*
X24871158Y66436425D01*
X24685597Y66306495D01*
X24518505Y66139403D01*
X24382965Y65945831D01*
X24382964Y65945829D01*
X24283098Y65731665D01*
X24283094Y65731656D01*
X24221938Y65503414D01*
X24221936Y65503404D01*
X24201341Y65268001D01*
X24201341Y65268000D01*
X24221936Y65032597D01*
X24221938Y65032587D01*
X24283094Y64804345D01*
X24283096Y64804341D01*
X24283097Y64804337D01*
X24315648Y64734532D01*
X24382965Y64590170D01*
X24382967Y64590166D01*
X24483913Y64446002D01*
X24517920Y64397434D01*
X24518501Y64396605D01*
X24518506Y64396598D01*
X24685597Y64229507D01*
X24685603Y64229502D01*
X24871158Y64099575D01*
X24914783Y64044998D01*
X24921977Y63975500D01*
X24890454Y63913145D01*
X24871158Y63896425D01*
X24685597Y63766495D01*
X24518505Y63599403D01*
X24382965Y63405831D01*
X24382964Y63405829D01*
X24283098Y63191665D01*
X24283094Y63191656D01*
X24221938Y62963414D01*
X24221936Y62963404D01*
X24201341Y62728001D01*
X24201341Y62728000D01*
X24221936Y62492597D01*
X24221938Y62492587D01*
X24283094Y62264345D01*
X24283096Y62264341D01*
X24283097Y62264337D01*
X24348843Y62123345D01*
X24382965Y62050170D01*
X24382967Y62050166D01*
X24518501Y61856605D01*
X24518506Y61856598D01*
X24685597Y61689507D01*
X24685603Y61689502D01*
X24871158Y61559575D01*
X24914783Y61504998D01*
X24921977Y61435500D01*
X24890454Y61373145D01*
X24871158Y61356425D01*
X24685597Y61226495D01*
X24518505Y61059403D01*
X24382965Y60865831D01*
X24382964Y60865829D01*
X24283098Y60651665D01*
X24283094Y60651656D01*
X24221938Y60423414D01*
X24221936Y60423404D01*
X24201341Y60188001D01*
X24201341Y60188000D01*
X24221936Y59952597D01*
X24221938Y59952587D01*
X24283094Y59724345D01*
X24283096Y59724341D01*
X24283097Y59724337D01*
X24373296Y59530906D01*
X24382965Y59510170D01*
X24382967Y59510166D01*
X24518501Y59316605D01*
X24518506Y59316598D01*
X24685597Y59149507D01*
X24685603Y59149502D01*
X24871158Y59019575D01*
X24914783Y58964998D01*
X24921977Y58895500D01*
X24890454Y58833145D01*
X24871158Y58816425D01*
X24685597Y58686495D01*
X24518505Y58519403D01*
X24382965Y58325831D01*
X24382964Y58325829D01*
X24283098Y58111665D01*
X24283094Y58111656D01*
X24221938Y57883414D01*
X24221936Y57883404D01*
X24201341Y57648001D01*
X24201341Y57648000D01*
X24221936Y57412597D01*
X24221938Y57412587D01*
X24283094Y57184345D01*
X24283096Y57184341D01*
X24283097Y57184337D01*
X24313331Y57119501D01*
X24382965Y56970170D01*
X24382967Y56970166D01*
X24518501Y56776605D01*
X24518506Y56776598D01*
X24685597Y56609507D01*
X24685603Y56609502D01*
X24871158Y56479575D01*
X24914783Y56424998D01*
X24921977Y56355500D01*
X24890454Y56293145D01*
X24871158Y56276425D01*
X24685597Y56146495D01*
X24518505Y55979403D01*
X24382965Y55785831D01*
X24382964Y55785829D01*
X24283098Y55571665D01*
X24283094Y55571656D01*
X24221938Y55343414D01*
X24221936Y55343404D01*
X24201341Y55108001D01*
X24201341Y55108000D01*
X24221936Y54872597D01*
X24221938Y54872587D01*
X24283094Y54644345D01*
X24283096Y54644341D01*
X24283097Y54644337D01*
X24382965Y54430170D01*
X24382967Y54430166D01*
X24518501Y54236605D01*
X24518506Y54236598D01*
X24685597Y54069507D01*
X24685603Y54069502D01*
X24871158Y53939575D01*
X24914783Y53884998D01*
X24921977Y53815500D01*
X24890454Y53753145D01*
X24871158Y53736425D01*
X24685597Y53606495D01*
X24518505Y53439403D01*
X24382965Y53245831D01*
X24382964Y53245829D01*
X24283098Y53031665D01*
X24283094Y53031656D01*
X24221938Y52803414D01*
X24221936Y52803404D01*
X24201341Y52568001D01*
X24201341Y52568000D01*
X24221936Y52332597D01*
X24221938Y52332587D01*
X24283094Y52104345D01*
X24283096Y52104341D01*
X24283097Y52104337D01*
X24339911Y51982500D01*
X24382965Y51890170D01*
X24382967Y51890166D01*
X24518501Y51696605D01*
X24518506Y51696598D01*
X24685597Y51529507D01*
X24685603Y51529502D01*
X24871158Y51399575D01*
X24914783Y51344998D01*
X24921977Y51275500D01*
X24890454Y51213145D01*
X24871158Y51196425D01*
X24685597Y51066495D01*
X24518505Y50899403D01*
X24382965Y50705831D01*
X24382964Y50705829D01*
X24283098Y50491665D01*
X24283094Y50491656D01*
X24221938Y50263414D01*
X24221936Y50263404D01*
X24201341Y50028001D01*
X24201341Y50028000D01*
X24221936Y49792597D01*
X24221938Y49792587D01*
X24283094Y49564345D01*
X24283096Y49564341D01*
X24283097Y49564337D01*
X24286954Y49556066D01*
X24382965Y49350170D01*
X24382967Y49350166D01*
X24432515Y49279405D01*
X24518505Y49156599D01*
X24685599Y48989505D01*
X24771465Y48929381D01*
X24879165Y48853968D01*
X24879167Y48853967D01*
X24879170Y48853965D01*
X25093337Y48754097D01*
X25321592Y48692937D01*
X25509918Y48676461D01*
X25556999Y48672341D01*
X25557000Y48672341D01*
X25557001Y48672341D01*
X25596234Y48675774D01*
X25792408Y48692937D01*
X26020663Y48754097D01*
X26234830Y48853965D01*
X26428401Y48989505D01*
X26595495Y49156599D01*
X26731035Y49350170D01*
X26830903Y49564337D01*
X26892063Y49792592D01*
X26912659Y50028000D01*
X26892063Y50263408D01*
X26830903Y50491663D01*
X26731035Y50705829D01*
X26687630Y50767819D01*
X26595494Y50899403D01*
X26428402Y51066494D01*
X26428396Y51066499D01*
X26242842Y51196425D01*
X26199217Y51251002D01*
X26192023Y51320500D01*
X26223546Y51382855D01*
X26242842Y51399575D01*
X26265026Y51415109D01*
X26428401Y51529505D01*
X26595495Y51696599D01*
X26731035Y51890170D01*
X26830903Y52104337D01*
X26892063Y52332592D01*
X26912659Y52568000D01*
X26892063Y52803408D01*
X26830903Y53031663D01*
X26731035Y53245829D01*
X26595495Y53439401D01*
X26595494Y53439403D01*
X26428402Y53606494D01*
X26428396Y53606499D01*
X26242842Y53736425D01*
X26199217Y53791002D01*
X26192023Y53860500D01*
X26223546Y53922855D01*
X26242842Y53939575D01*
X26265026Y53955109D01*
X26428401Y54069505D01*
X26595495Y54236599D01*
X26731035Y54430170D01*
X26830903Y54644337D01*
X26892063Y54872592D01*
X26912659Y55108000D01*
X26892063Y55343408D01*
X26830903Y55571663D01*
X26731035Y55785829D01*
X26595495Y55979401D01*
X26595494Y55979403D01*
X26428402Y56146494D01*
X26428396Y56146499D01*
X26242842Y56276425D01*
X26199217Y56331002D01*
X26192023Y56400500D01*
X26223546Y56462855D01*
X26242842Y56479575D01*
X26265026Y56495109D01*
X26428401Y56609505D01*
X26595495Y56776599D01*
X26731035Y56970170D01*
X26830903Y57184337D01*
X26892063Y57412592D01*
X26912659Y57648000D01*
X26892063Y57883408D01*
X26830903Y58111663D01*
X26731035Y58325829D01*
X26595495Y58519401D01*
X26595494Y58519403D01*
X26428402Y58686494D01*
X26428396Y58686499D01*
X26242842Y58816425D01*
X26199217Y58871002D01*
X26192023Y58940500D01*
X26223546Y59002855D01*
X26242842Y59019575D01*
X26265026Y59035109D01*
X26428401Y59149505D01*
X26595495Y59316599D01*
X26731035Y59510170D01*
X26736234Y59521321D01*
X26740705Y59530906D01*
X26786878Y59583345D01*
X26853086Y59602500D01*
X36475890Y59602500D01*
X36542929Y59582815D01*
X36588684Y59530011D01*
X36598628Y59460853D01*
X36592072Y59435167D01*
X36551908Y59327483D01*
X36545501Y59267884D01*
X36545501Y59267877D01*
X36545500Y59267865D01*
X36545500Y57572130D01*
X36545501Y57572124D01*
X36551908Y57512517D01*
X36602202Y57377672D01*
X36602206Y57377665D01*
X36688452Y57262456D01*
X36688455Y57262453D01*
X36803664Y57176207D01*
X36803671Y57176203D01*
X36938517Y57125909D01*
X36938516Y57125909D01*
X36945444Y57125165D01*
X36998127Y57119500D01*
X38693872Y57119501D01*
X38753483Y57125909D01*
X38888331Y57176204D01*
X39003546Y57262454D01*
X39089796Y57377669D01*
X39140091Y57512517D01*
X39146500Y57572127D01*
X39146499Y59267872D01*
X39140091Y59327483D01*
X39090347Y59460853D01*
X39089797Y59462329D01*
X39089793Y59462336D01*
X39003547Y59577545D01*
X39003544Y59577548D01*
X38888335Y59663794D01*
X38888328Y59663798D01*
X38753482Y59714092D01*
X38753483Y59714092D01*
X38718404Y59717863D01*
X38653853Y59744601D01*
X38614005Y59801994D01*
X38611512Y59871819D01*
X38647165Y59931908D01*
X38660539Y59942728D01*
X38685140Y59959954D01*
X38846045Y60120859D01*
X38846047Y60120861D01*
X38976568Y60307266D01*
X39072739Y60513504D01*
X39131635Y60733308D01*
X39151468Y60960000D01*
X39131635Y61186692D01*
X39072739Y61406496D01*
X38976568Y61612734D01*
X38846047Y61799139D01*
X38846045Y61799142D01*
X38685141Y61960046D01*
X38498734Y62090568D01*
X38498732Y62090569D01*
X38292497Y62186739D01*
X38292488Y62186742D01*
X38072697Y62245634D01*
X38072693Y62245635D01*
X38072692Y62245635D01*
X38072691Y62245636D01*
X38072686Y62245636D01*
X37846002Y62265468D01*
X37845998Y62265468D01*
X37619313Y62245636D01*
X37619302Y62245634D01*
X37399511Y62186742D01*
X37399502Y62186739D01*
X37193267Y62090569D01*
X37193265Y62090568D01*
X37006858Y61960046D01*
X36845954Y61799142D01*
X36715432Y61612735D01*
X36715431Y61612733D01*
X36619261Y61406498D01*
X36619258Y61406489D01*
X36560366Y61186698D01*
X36560364Y61186687D01*
X36549228Y61059401D01*
X36540532Y60960000D01*
X36545054Y60908308D01*
X36531289Y60839809D01*
X36482674Y60789625D01*
X36421527Y60773500D01*
X26853086Y60773500D01*
X26786047Y60793185D01*
X26740705Y60845094D01*
X26731038Y60865824D01*
X26731034Y60865831D01*
X26595494Y61059403D01*
X26428402Y61226494D01*
X26428396Y61226499D01*
X26242842Y61356425D01*
X26199217Y61411002D01*
X26192023Y61480500D01*
X26223546Y61542855D01*
X26242842Y61559575D01*
X26318762Y61612735D01*
X26428401Y61689505D01*
X26595495Y61856599D01*
X26731035Y62050170D01*
X26736234Y62061321D01*
X26740705Y62070906D01*
X26786878Y62123345D01*
X26853086Y62142500D01*
X34075627Y62142500D01*
X34491560Y62142500D01*
X34499659Y62141970D01*
X34514189Y62140057D01*
X34533999Y62137448D01*
X34534000Y62137448D01*
X34534001Y62137448D01*
X34549929Y62139546D01*
X34686846Y62157571D01*
X34829276Y62216567D01*
X34920877Y62286855D01*
X34920876Y62286855D01*
X34932058Y62295434D01*
X34932061Y62295439D01*
X34951583Y62310417D01*
X34972672Y62337903D01*
X34978014Y62343994D01*
X37386564Y64752544D01*
X37447885Y64786027D01*
X37506336Y64784637D01*
X37619308Y64754365D01*
X37781230Y64740199D01*
X37845998Y64734532D01*
X37846000Y64734532D01*
X37846002Y64734532D01*
X37902673Y64739491D01*
X38072692Y64754365D01*
X38292496Y64813261D01*
X38498734Y64909432D01*
X38685139Y65039953D01*
X38846047Y65200861D01*
X38976568Y65387266D01*
X39072739Y65593504D01*
X39131635Y65813308D01*
X39148737Y66008782D01*
X39151468Y66039999D01*
X39151468Y66040002D01*
X39143680Y66129019D01*
X39131635Y66266692D01*
X39072739Y66486496D01*
X38976568Y66692734D01*
X38846047Y66879139D01*
X38846045Y66879142D01*
X38685141Y67040046D01*
X38498734Y67170568D01*
X38498732Y67170569D01*
X38292497Y67266739D01*
X38292488Y67266742D01*
X38072697Y67325634D01*
X38072693Y67325635D01*
X38072692Y67325635D01*
X38072691Y67325636D01*
X38072686Y67325636D01*
X37846002Y67345468D01*
X37845998Y67345468D01*
X37619313Y67325636D01*
X37619302Y67325634D01*
X37479945Y67288294D01*
X37410095Y67289957D01*
X37352232Y67329120D01*
X37324729Y67393349D01*
X37336316Y67462251D01*
X37360168Y67495747D01*
X39666319Y69801899D01*
X39727642Y69835383D01*
X39797334Y69830399D01*
X39853267Y69788527D01*
X39877684Y69723063D01*
X39878000Y69714217D01*
X39878000Y48638000D01*
X39858315Y48570961D01*
X39805511Y48525206D01*
X39754000Y48514000D01*
X26924000Y48514000D01*
X26924000Y34290000D01*
X32727712Y28738623D01*
X32762551Y28678060D01*
X32766000Y28649016D01*
X32766000Y22490858D01*
X32746315Y22423819D01*
X32693511Y22378064D01*
X32628747Y22367568D01*
X32615923Y22368947D01*
X32582873Y22372500D01*
X32582869Y22372500D01*
X32444500Y22372500D01*
X32377461Y22392185D01*
X32331706Y22444989D01*
X32320500Y22496500D01*
X32320500Y26896567D01*
X32321031Y26904669D01*
X32325551Y26939001D01*
X32325551Y26939002D01*
X32320771Y26975311D01*
X32320769Y26975329D01*
X32320500Y26977373D01*
X32305429Y27091846D01*
X32283634Y27144463D01*
X32246434Y27234275D01*
X32212797Y27278110D01*
X32176150Y27325871D01*
X32176145Y27325878D01*
X32176140Y27325883D01*
X32152583Y27356583D01*
X32125102Y27377670D01*
X32119012Y27383011D01*
X14083819Y45418204D01*
X14050334Y45479527D01*
X14047500Y45505885D01*
X14047500Y47921050D01*
X14067185Y47988089D01*
X14083819Y48008731D01*
X14145753Y48070665D01*
X14228733Y48207931D01*
X14276452Y48361067D01*
X14282500Y48427619D01*
X14282499Y48929380D01*
X14282499Y48929381D01*
X14282499Y48929389D01*
X14276453Y48995927D01*
X14276452Y48995930D01*
X14276452Y48995933D01*
X14228733Y49149069D01*
X14190779Y49211851D01*
X14172944Y49279405D01*
X14190780Y49340150D01*
X14196835Y49350166D01*
X14228733Y49402931D01*
X14276452Y49556067D01*
X14282500Y49622619D01*
X14282499Y50124380D01*
X14282499Y50124389D01*
X14276453Y50190927D01*
X14276452Y50190930D01*
X14276452Y50190933D01*
X14228733Y50344069D01*
X14228732Y50344071D01*
X14145757Y50481330D01*
X14145753Y50481335D01*
X14032334Y50594754D01*
X14032329Y50594758D01*
X13895070Y50677733D01*
X13895066Y50677735D01*
X13741933Y50725452D01*
X13741935Y50725452D01*
X13715312Y50727872D01*
X13675381Y50731500D01*
X13675378Y50731500D01*
X13483385Y50731500D01*
X13416346Y50751185D01*
X13395704Y50767819D01*
X12865523Y51298000D01*
X11211511Y52952011D01*
X11206172Y52958099D01*
X11185083Y52985583D01*
X11152106Y53010888D01*
X11062776Y53079433D01*
X11062774Y53079435D01*
X10920349Y53138428D01*
X10920347Y53138429D01*
X10920346Y53138429D01*
X10801840Y53154031D01*
X10767501Y53158552D01*
X10767499Y53158552D01*
X10747689Y53155944D01*
X10733159Y53154031D01*
X10725060Y53153500D01*
X3353086Y53153500D01*
X3286047Y53173185D01*
X3240705Y53225094D01*
X3231038Y53245824D01*
X3231034Y53245831D01*
X3095494Y53439403D01*
X2928402Y53606494D01*
X2928396Y53606499D01*
X2742842Y53736425D01*
X2699217Y53791002D01*
X2692023Y53860500D01*
X2723546Y53922855D01*
X2742842Y53939575D01*
X2765026Y53955109D01*
X2928401Y54069505D01*
X3095495Y54236599D01*
X3231035Y54430170D01*
X3330903Y54644337D01*
X3392063Y54872592D01*
X3412659Y55108000D01*
X3392063Y55343408D01*
X3330903Y55571663D01*
X3231035Y55785829D01*
X3095495Y55979401D01*
X3095494Y55979403D01*
X2928402Y56146494D01*
X2928396Y56146499D01*
X2742842Y56276425D01*
X2699217Y56331002D01*
X2692023Y56400500D01*
X2723546Y56462855D01*
X2742842Y56479575D01*
X2765026Y56495109D01*
X2928401Y56609505D01*
X3095495Y56776599D01*
X3231035Y56970170D01*
X3330903Y57184337D01*
X3392063Y57412592D01*
X3412659Y57648000D01*
X3392063Y57883408D01*
X3330903Y58111663D01*
X3231035Y58325829D01*
X3095495Y58519401D01*
X3095494Y58519403D01*
X2928402Y58686494D01*
X2928396Y58686499D01*
X2742842Y58816425D01*
X2699217Y58871002D01*
X2692023Y58940500D01*
X2723546Y59002855D01*
X2742842Y59019575D01*
X2765026Y59035109D01*
X2928401Y59149505D01*
X3095495Y59316599D01*
X3231035Y59510170D01*
X3330903Y59724337D01*
X3392063Y59952592D01*
X3412659Y60188000D01*
X3392063Y60423408D01*
X3330903Y60651663D01*
X3231035Y60865829D01*
X3201291Y60908309D01*
X3095494Y61059403D01*
X2928402Y61226494D01*
X2928395Y61226499D01*
X2734834Y61362033D01*
X2734830Y61362035D01*
X2734828Y61362036D01*
X2520663Y61461903D01*
X2520659Y61461904D01*
X2520655Y61461906D01*
X2292413Y61523062D01*
X2292403Y61523064D01*
X2057001Y61543659D01*
X2056999Y61543659D01*
X1821596Y61523064D01*
X1821586Y61523062D01*
X1593344Y61461906D01*
X1593335Y61461902D01*
X1379171Y61362036D01*
X1379169Y61362035D01*
X1185597Y61226495D01*
X1018505Y61059403D01*
X882965Y60865831D01*
X882964Y60865829D01*
X783098Y60651665D01*
X783094Y60651656D01*
X721938Y60423414D01*
X721936Y60423404D01*
X701341Y60188001D01*
X701341Y60188000D01*
X721936Y59952597D01*
X721938Y59952587D01*
X783094Y59724345D01*
X783096Y59724341D01*
X783097Y59724337D01*
X873296Y59530906D01*
X882965Y59510170D01*
X882967Y59510166D01*
X1018501Y59316605D01*
X1018506Y59316598D01*
X1185597Y59149507D01*
X1185603Y59149502D01*
X1371158Y59019575D01*
X1414783Y58964998D01*
X1421977Y58895500D01*
X1390454Y58833145D01*
X1371158Y58816425D01*
X1185597Y58686495D01*
X1018505Y58519403D01*
X882965Y58325831D01*
X882964Y58325829D01*
X783098Y58111665D01*
X783094Y58111656D01*
X721938Y57883414D01*
X721936Y57883404D01*
X701341Y57648001D01*
X701341Y57648000D01*
X721936Y57412597D01*
X721938Y57412587D01*
X783094Y57184345D01*
X783096Y57184341D01*
X783097Y57184337D01*
X813331Y57119501D01*
X882965Y56970170D01*
X882967Y56970166D01*
X1018501Y56776605D01*
X1018506Y56776598D01*
X1185597Y56609507D01*
X1185603Y56609502D01*
X1371158Y56479575D01*
X1414783Y56424998D01*
X1421977Y56355500D01*
X1390454Y56293145D01*
X1371158Y56276425D01*
X1185597Y56146495D01*
X1018505Y55979403D01*
X882965Y55785831D01*
X882964Y55785829D01*
X783098Y55571665D01*
X783094Y55571656D01*
X721938Y55343414D01*
X721936Y55343404D01*
X701341Y55108001D01*
X701341Y55108000D01*
X721936Y54872597D01*
X721938Y54872587D01*
X783094Y54644345D01*
X783096Y54644341D01*
X783097Y54644337D01*
X882965Y54430170D01*
X882967Y54430166D01*
X1018501Y54236605D01*
X1018506Y54236598D01*
X1185597Y54069507D01*
X1185603Y54069502D01*
X1371158Y53939575D01*
X1414783Y53884998D01*
X1421977Y53815500D01*
X1390454Y53753145D01*
X1371158Y53736425D01*
X1185597Y53606495D01*
X1018505Y53439403D01*
X882965Y53245831D01*
X882964Y53245829D01*
X783098Y53031665D01*
X783094Y53031656D01*
X721938Y52803414D01*
X721936Y52803404D01*
X701341Y52568001D01*
X701341Y52568000D01*
X721936Y52332597D01*
X721938Y52332587D01*
X783094Y52104345D01*
X783096Y52104341D01*
X783097Y52104337D01*
X839911Y51982500D01*
X882965Y51890170D01*
X882967Y51890166D01*
X1018501Y51696605D01*
X1018506Y51696598D01*
X1185597Y51529507D01*
X1185603Y51529502D01*
X1371158Y51399575D01*
X1414783Y51344998D01*
X1421977Y51275500D01*
X1390454Y51213145D01*
X1371158Y51196425D01*
X1185597Y51066495D01*
X1018505Y50899403D01*
X882965Y50705831D01*
X882964Y50705829D01*
X783098Y50491665D01*
X783094Y50491656D01*
X721938Y50263414D01*
X721936Y50263404D01*
X701341Y50028001D01*
X701341Y50028000D01*
X721936Y49792597D01*
X721938Y49792587D01*
X783094Y49564345D01*
X783096Y49564341D01*
X783097Y49564337D01*
X786954Y49556066D01*
X882965Y49350170D01*
X882967Y49350166D01*
X932515Y49279405D01*
X1018505Y49156599D01*
X1185599Y48989505D01*
X1271465Y48929381D01*
X1379165Y48853968D01*
X1379167Y48853967D01*
X1379170Y48853965D01*
X1593337Y48754097D01*
X1821592Y48692937D01*
X2009918Y48676461D01*
X2056999Y48672341D01*
X2057000Y48672341D01*
X2057001Y48672341D01*
X2096234Y48675774D01*
X2292408Y48692937D01*
X2520663Y48754097D01*
X2734830Y48853965D01*
X2928401Y48989505D01*
X3095495Y49156599D01*
X3231035Y49350170D01*
X3330903Y49564337D01*
X3392063Y49792592D01*
X3412659Y50028000D01*
X3392063Y50263408D01*
X3330903Y50491663D01*
X3231035Y50705829D01*
X3187630Y50767819D01*
X3095494Y50899403D01*
X2928402Y51066494D01*
X2928396Y51066499D01*
X2742842Y51196425D01*
X2699217Y51251002D01*
X2692023Y51320500D01*
X2723546Y51382855D01*
X2742842Y51399575D01*
X2765026Y51415109D01*
X2928401Y51529505D01*
X3095495Y51696599D01*
X3231035Y51890170D01*
X3236234Y51901321D01*
X3240705Y51910906D01*
X3286878Y51963345D01*
X3353086Y51982500D01*
X10473616Y51982500D01*
X10540655Y51962815D01*
X10561297Y51946181D01*
X12605181Y49902296D01*
X12638666Y49840973D01*
X12641500Y49814616D01*
X12641500Y49622612D01*
X12647546Y49556074D01*
X12647548Y49556067D01*
X12695265Y49402934D01*
X12695267Y49402930D01*
X12733219Y49340149D01*
X12751055Y49272594D01*
X12733219Y49211851D01*
X12695267Y49149071D01*
X12695265Y49149067D01*
X12647548Y48995935D01*
X12641500Y48929379D01*
X12641500Y48427612D01*
X12647546Y48361074D01*
X12647548Y48361067D01*
X12695265Y48207934D01*
X12695267Y48207930D01*
X12778242Y48070671D01*
X12778246Y48070666D01*
X12840181Y48008731D01*
X12873666Y47947408D01*
X12876500Y47921050D01*
X12876500Y45254442D01*
X12875969Y45246340D01*
X12871448Y45212001D01*
X12871448Y45211997D01*
X12875967Y45177661D01*
X12875970Y45177652D01*
X12891571Y45059155D01*
X12891572Y45059151D01*
X12950565Y44916726D01*
X12950567Y44916724D01*
X13044417Y44794417D01*
X13071901Y44773328D01*
X13077989Y44767989D01*
X22345532Y35500446D01*
X31113181Y26732797D01*
X31146666Y26671474D01*
X31149500Y26645116D01*
X31149500Y22496500D01*
X31129815Y22429461D01*
X31077011Y22383706D01*
X31025501Y22372500D01*
X30887130Y22372500D01*
X30887123Y22372499D01*
X30827516Y22366092D01*
X30692671Y22315798D01*
X30692664Y22315794D01*
X30577455Y22229548D01*
X30577452Y22229545D01*
X30491206Y22114336D01*
X30491202Y22114329D01*
X30440908Y21979483D01*
X30434501Y21919884D01*
X30434500Y21919865D01*
X30434500Y20224130D01*
X30434501Y20224126D01*
X30436745Y20203254D01*
X30424339Y20134495D01*
X30376728Y20083358D01*
X30313455Y20066000D01*
X28318000Y20066000D01*
X28250961Y20085685D01*
X28205206Y20138489D01*
X28194000Y20190000D01*
X28194000Y23876000D01*
X5080000Y23876000D01*
X5080000Y15618000D01*
X5060315Y15550961D01*
X5007511Y15505206D01*
X4956000Y15494000D01*
X1811636Y15494000D01*
X1744597Y15513685D01*
X1698842Y15566489D01*
X1688898Y15635647D01*
X1717923Y15699203D01*
X1776701Y15736977D01*
X1779543Y15737775D01*
X1896838Y15769204D01*
X1960496Y15786261D01*
X2166734Y15882432D01*
X2353139Y16012953D01*
X2514047Y16173861D01*
X2644568Y16360266D01*
X2740739Y16566504D01*
X2799635Y16786308D01*
X2819468Y17013000D01*
X2799635Y17239692D01*
X2754916Y17406585D01*
X2740741Y17459489D01*
X2740738Y17459498D01*
X2731205Y17479941D01*
X2644568Y17665734D01*
X2514047Y17852139D01*
X2514045Y17852142D01*
X2353141Y18013046D01*
X2166734Y18143568D01*
X2166728Y18143571D01*
X2113158Y18168551D01*
X2108724Y18170619D01*
X2056285Y18216790D01*
X2037133Y18283983D01*
X2057348Y18350865D01*
X2108725Y18395382D01*
X2166734Y18422432D01*
X2353139Y18552953D01*
X2514047Y18713861D01*
X2644568Y18900266D01*
X2740739Y19106504D01*
X2799635Y19326308D01*
X2819468Y19553000D01*
X2799635Y19779692D01*
X2740739Y19999496D01*
X2644568Y20205734D01*
X2514047Y20392139D01*
X2514045Y20392142D01*
X2353141Y20553046D01*
X2166734Y20683568D01*
X2166732Y20683569D01*
X1960497Y20779739D01*
X1960488Y20779742D01*
X1740697Y20838634D01*
X1740693Y20838635D01*
X1740692Y20838635D01*
X1740691Y20838636D01*
X1740686Y20838636D01*
X1514002Y20858468D01*
X1513998Y20858468D01*
X1287313Y20838636D01*
X1287302Y20838634D01*
X1067511Y20779742D01*
X1067502Y20779739D01*
X861267Y20683569D01*
X861265Y20683568D01*
X674858Y20553046D01*
X513954Y20392142D01*
X383432Y20205735D01*
X383431Y20205733D01*
X287261Y19999498D01*
X287258Y19999489D01*
X244275Y19839070D01*
X207910Y19779409D01*
X145063Y19748880D01*
X75688Y19757175D01*
X21810Y19801660D01*
X535Y19868212D01*
X500Y19871163D01*
X500Y43749995D01*
X1724357Y43749995D01*
X1744890Y43502188D01*
X1744892Y43502176D01*
X1805936Y43261119D01*
X1905826Y43033394D01*
X2041833Y42825218D01*
X2041836Y42825215D01*
X2210256Y42642262D01*
X2406491Y42489526D01*
X2625190Y42371172D01*
X2860386Y42290429D01*
X3105665Y42249500D01*
X3354335Y42249500D01*
X3599614Y42290429D01*
X3834810Y42371172D01*
X4053509Y42489526D01*
X4249744Y42642262D01*
X4418164Y42825215D01*
X4554173Y43033393D01*
X4654063Y43261119D01*
X4715108Y43502179D01*
X4735643Y43750000D01*
X4715108Y43997821D01*
X4654063Y44238881D01*
X4554173Y44466607D01*
X4418166Y44674783D01*
X4332371Y44767981D01*
X4249744Y44857738D01*
X4053509Y45010474D01*
X4053507Y45010475D01*
X4053506Y45010476D01*
X3834811Y45128828D01*
X3834802Y45128831D01*
X3599616Y45209571D01*
X3354335Y45250500D01*
X3105665Y45250500D01*
X2860383Y45209571D01*
X2625197Y45128831D01*
X2625188Y45128828D01*
X2406493Y45010476D01*
X2210257Y44857739D01*
X2041833Y44674783D01*
X1905826Y44466607D01*
X1805936Y44238882D01*
X1744892Y43997825D01*
X1744890Y43997813D01*
X1724357Y43750006D01*
X1724357Y43749995D01*
X500Y43749995D01*
X500Y65268000D01*
X701341Y65268000D01*
X721936Y65032597D01*
X721938Y65032587D01*
X783094Y64804345D01*
X783096Y64804341D01*
X783097Y64804337D01*
X815648Y64734532D01*
X882965Y64590170D01*
X882967Y64590166D01*
X983913Y64446002D01*
X1018505Y64396599D01*
X1185599Y64229505D01*
X1233468Y64195987D01*
X1379165Y64093968D01*
X1379167Y64093967D01*
X1379170Y64093965D01*
X1593337Y63994097D01*
X1821592Y63932937D01*
X2009918Y63916461D01*
X2056999Y63912341D01*
X2057000Y63912341D01*
X2057001Y63912341D01*
X2096234Y63915774D01*
X2292408Y63932937D01*
X2520663Y63994097D01*
X2734830Y64093965D01*
X2928401Y64229505D01*
X3095495Y64396599D01*
X3231035Y64590170D01*
X3330903Y64804337D01*
X3392063Y65032592D01*
X3412659Y65268000D01*
X3392063Y65503408D01*
X3330903Y65731663D01*
X3231035Y65945829D01*
X3207459Y65979500D01*
X3095494Y66139403D01*
X2928402Y66306494D01*
X2928396Y66306499D01*
X2742842Y66436425D01*
X2699217Y66491002D01*
X2692023Y66560500D01*
X2723546Y66622855D01*
X2742842Y66639575D01*
X2821283Y66694500D01*
X2928401Y66769505D01*
X3095495Y66936599D01*
X3231035Y67130170D01*
X3330903Y67344337D01*
X3392063Y67572592D01*
X3412659Y67808000D01*
X3411846Y67817287D01*
X3396779Y67989500D01*
X3392063Y68043408D01*
X3330903Y68271663D01*
X3231035Y68485829D01*
X3215723Y68507698D01*
X3095494Y68679403D01*
X2928402Y68846494D01*
X2928396Y68846499D01*
X2742842Y68976425D01*
X2699217Y69031002D01*
X2692023Y69100500D01*
X2723546Y69162855D01*
X2742842Y69179575D01*
X2765026Y69195109D01*
X2928401Y69309505D01*
X3095495Y69476599D01*
X3231035Y69670170D01*
X3330903Y69884337D01*
X3392063Y70112592D01*
X3412659Y70348000D01*
X3392063Y70583408D01*
X3330903Y70811663D01*
X3231035Y71025829D01*
X3095495Y71219401D01*
X3095494Y71219403D01*
X2928402Y71386494D01*
X2928396Y71386499D01*
X2742842Y71516425D01*
X2699217Y71571002D01*
X2692023Y71640500D01*
X2723546Y71702855D01*
X2742842Y71719575D01*
X2765026Y71735109D01*
X2928401Y71849505D01*
X3095495Y72016599D01*
X3231035Y72210170D01*
X3330903Y72424337D01*
X3392063Y72652592D01*
X3412659Y72888000D01*
X3392063Y73123408D01*
X3330903Y73351663D01*
X3231035Y73565829D01*
X3095495Y73759401D01*
X3095494Y73759403D01*
X2928402Y73926494D01*
X2928396Y73926499D01*
X2742842Y74056425D01*
X2699217Y74111002D01*
X2692023Y74180500D01*
X2723546Y74242855D01*
X2742842Y74259575D01*
X2765026Y74275109D01*
X2928401Y74389505D01*
X3095495Y74556599D01*
X3231035Y74750170D01*
X3330903Y74964337D01*
X3392063Y75192592D01*
X3412659Y75428000D01*
X3392063Y75663408D01*
X3330903Y75891663D01*
X3231035Y76105829D01*
X3227756Y76110513D01*
X3095494Y76299403D01*
X2928402Y76466494D01*
X2928396Y76466499D01*
X2742842Y76596425D01*
X2699217Y76651002D01*
X2692023Y76720500D01*
X2723546Y76782855D01*
X2742842Y76799575D01*
X2765026Y76815109D01*
X2928401Y76929505D01*
X3095495Y77096599D01*
X3231035Y77290170D01*
X3330903Y77504337D01*
X3392063Y77732592D01*
X3412659Y77968000D01*
X3392063Y78203408D01*
X3330903Y78431663D01*
X3231035Y78645829D01*
X3221590Y78659319D01*
X3095494Y78839403D01*
X2928402Y79006494D01*
X2928396Y79006499D01*
X2742842Y79136425D01*
X2699217Y79191002D01*
X2692023Y79260500D01*
X2723546Y79322855D01*
X2742842Y79339575D01*
X2765026Y79355109D01*
X2928401Y79469505D01*
X3095495Y79636599D01*
X3231035Y79830170D01*
X3330903Y80044337D01*
X3392063Y80272592D01*
X3412659Y80508000D01*
X3392063Y80743408D01*
X3330903Y80971663D01*
X3231035Y81185829D01*
X3128336Y81332500D01*
X3095494Y81379403D01*
X2928402Y81546494D01*
X2928396Y81546499D01*
X2742842Y81676425D01*
X2699217Y81731002D01*
X2692023Y81800500D01*
X2723546Y81862855D01*
X2742842Y81879575D01*
X2802304Y81921211D01*
X2928401Y82009505D01*
X3095495Y82176599D01*
X3231035Y82370170D01*
X3330903Y82584337D01*
X3392063Y82812592D01*
X3412659Y83048000D01*
X3392063Y83283408D01*
X3330903Y83511663D01*
X3231035Y83725829D01*
X3095495Y83919401D01*
X3095494Y83919403D01*
X2928402Y84086494D01*
X2928396Y84086499D01*
X2742842Y84216425D01*
X2699217Y84271002D01*
X2692023Y84340500D01*
X2723546Y84402855D01*
X2742842Y84419575D01*
X2765026Y84435109D01*
X2928401Y84549505D01*
X3095495Y84716599D01*
X3231035Y84910170D01*
X3330903Y85124337D01*
X3392063Y85352592D01*
X3412659Y85588000D01*
X3392063Y85823408D01*
X3330903Y86051663D01*
X3231035Y86265829D01*
X3185684Y86330598D01*
X3095494Y86459403D01*
X2928402Y86626494D01*
X2928396Y86626499D01*
X2742842Y86756425D01*
X2699217Y86811002D01*
X2692023Y86880500D01*
X2723546Y86942855D01*
X2742842Y86959575D01*
X2765026Y86975109D01*
X2928401Y87089505D01*
X3095495Y87256599D01*
X3231035Y87450170D01*
X3330903Y87664337D01*
X3392063Y87892592D01*
X3412659Y88128000D01*
X3392063Y88363408D01*
X3330903Y88591663D01*
X3231035Y88805829D01*
X3095495Y88999401D01*
X3095494Y88999403D01*
X2928402Y89166494D01*
X2928396Y89166499D01*
X2742842Y89296425D01*
X2699217Y89351002D01*
X2692023Y89420500D01*
X2723546Y89482855D01*
X2742842Y89499575D01*
X2808615Y89545630D01*
X2928401Y89629505D01*
X3095495Y89796599D01*
X3231035Y89990170D01*
X3330903Y90204337D01*
X3392063Y90432592D01*
X3412659Y90668000D01*
X3392063Y90903408D01*
X3330903Y91131663D01*
X3231035Y91345829D01*
X3095495Y91539401D01*
X3095494Y91539403D01*
X2928402Y91706494D01*
X2928396Y91706499D01*
X2742842Y91836425D01*
X2699217Y91891002D01*
X2692023Y91960500D01*
X2723546Y92022855D01*
X2742842Y92039575D01*
X2807715Y92085000D01*
X2928401Y92169505D01*
X3095495Y92336599D01*
X3231035Y92530170D01*
X3330903Y92744337D01*
X3392063Y92972592D01*
X3412659Y93208000D01*
X3411556Y93220602D01*
X3405230Y93292912D01*
X3392063Y93443408D01*
X3336470Y93650888D01*
X3330905Y93671656D01*
X3330904Y93671657D01*
X3330903Y93671663D01*
X3231035Y93885829D01*
X3231034Y93885831D01*
X3095496Y94079400D01*
X3076647Y94098249D01*
X2973567Y94201329D01*
X2940084Y94262649D01*
X2945068Y94332341D01*
X2986939Y94388275D01*
X3017915Y94405190D01*
X3149331Y94454204D01*
X3264546Y94540454D01*
X3350796Y94655669D01*
X3401091Y94790517D01*
X3407500Y94850127D01*
X3407499Y96645872D01*
X3401091Y96705483D01*
X3350796Y96840331D01*
X3350795Y96840332D01*
X3350793Y96840336D01*
X3264547Y96955545D01*
X3264544Y96955548D01*
X3149335Y97041794D01*
X3149328Y97041798D01*
X3014482Y97092092D01*
X3014483Y97092092D01*
X2954883Y97098499D01*
X2954881Y97098500D01*
X2954873Y97098500D01*
X2954864Y97098500D01*
X1159129Y97098500D01*
X1159123Y97098499D01*
X1099516Y97092092D01*
X964671Y97041798D01*
X964664Y97041794D01*
X849455Y96955548D01*
X849452Y96955545D01*
X763206Y96840336D01*
X763202Y96840329D01*
X712908Y96705483D01*
X706501Y96645884D01*
X706501Y96645877D01*
X706500Y96645865D01*
X706500Y94850130D01*
X706501Y94850124D01*
X712908Y94790517D01*
X763202Y94655672D01*
X763206Y94655665D01*
X849452Y94540456D01*
X849455Y94540453D01*
X964664Y94454207D01*
X964671Y94454203D01*
X1096081Y94405190D01*
X1152015Y94363319D01*
X1176432Y94297855D01*
X1161580Y94229582D01*
X1140430Y94201327D01*
X1018503Y94079400D01*
X882965Y93885831D01*
X882964Y93885829D01*
X783098Y93671665D01*
X783094Y93671656D01*
X721938Y93443414D01*
X721936Y93443404D01*
X701341Y93208001D01*
X701341Y93208000D01*
X721936Y92972597D01*
X721938Y92972587D01*
X783094Y92744345D01*
X783096Y92744341D01*
X783097Y92744337D01*
X864459Y92569857D01*
X882965Y92530170D01*
X882967Y92530166D01*
X1018501Y92336605D01*
X1018506Y92336598D01*
X1185597Y92169507D01*
X1185603Y92169502D01*
X1371158Y92039575D01*
X1414783Y91984998D01*
X1421977Y91915500D01*
X1390454Y91853145D01*
X1371158Y91836425D01*
X1185597Y91706495D01*
X1018505Y91539403D01*
X882965Y91345831D01*
X882964Y91345829D01*
X783098Y91131665D01*
X783094Y91131656D01*
X721938Y90903414D01*
X721936Y90903404D01*
X701341Y90668001D01*
X701341Y90668000D01*
X721936Y90432597D01*
X721938Y90432587D01*
X783094Y90204345D01*
X783096Y90204341D01*
X783097Y90204337D01*
X838373Y90085798D01*
X882965Y89990170D01*
X882967Y89990166D01*
X1018501Y89796605D01*
X1018506Y89796598D01*
X1185597Y89629507D01*
X1185603Y89629502D01*
X1371158Y89499575D01*
X1414783Y89444998D01*
X1421977Y89375500D01*
X1390454Y89313145D01*
X1371158Y89296425D01*
X1185597Y89166495D01*
X1018505Y88999403D01*
X882965Y88805831D01*
X882964Y88805829D01*
X783098Y88591665D01*
X783094Y88591656D01*
X721938Y88363414D01*
X721936Y88363404D01*
X701341Y88128001D01*
X701341Y88128000D01*
X721936Y87892597D01*
X721938Y87892587D01*
X783094Y87664345D01*
X783096Y87664341D01*
X783097Y87664337D01*
X839911Y87542500D01*
X882965Y87450170D01*
X882967Y87450166D01*
X1018501Y87256605D01*
X1018506Y87256598D01*
X1185597Y87089507D01*
X1185603Y87089502D01*
X1371158Y86959575D01*
X1414783Y86904998D01*
X1421977Y86835500D01*
X1390454Y86773145D01*
X1371158Y86756425D01*
X1185597Y86626495D01*
X1018505Y86459403D01*
X882965Y86265831D01*
X882964Y86265829D01*
X783098Y86051665D01*
X783094Y86051656D01*
X721938Y85823414D01*
X721936Y85823404D01*
X701341Y85588001D01*
X701341Y85588000D01*
X721936Y85352597D01*
X721938Y85352587D01*
X783094Y85124345D01*
X783096Y85124341D01*
X783097Y85124337D01*
X800163Y85087739D01*
X882965Y84910170D01*
X882967Y84910166D01*
X1018501Y84716605D01*
X1018506Y84716598D01*
X1185597Y84549507D01*
X1185603Y84549502D01*
X1371158Y84419575D01*
X1414783Y84364998D01*
X1421977Y84295500D01*
X1390454Y84233145D01*
X1371158Y84216425D01*
X1185597Y84086495D01*
X1018505Y83919403D01*
X882965Y83725831D01*
X882964Y83725829D01*
X783098Y83511665D01*
X783094Y83511656D01*
X721938Y83283414D01*
X721936Y83283404D01*
X701341Y83048001D01*
X701341Y83048000D01*
X721936Y82812597D01*
X721938Y82812587D01*
X783094Y82584345D01*
X783096Y82584341D01*
X783097Y82584337D01*
X880013Y82376500D01*
X882965Y82370170D01*
X882967Y82370166D01*
X989017Y82218712D01*
X1014596Y82182181D01*
X1018501Y82176605D01*
X1018506Y82176598D01*
X1185597Y82009507D01*
X1185603Y82009502D01*
X1371158Y81879575D01*
X1414783Y81824998D01*
X1421977Y81755500D01*
X1390454Y81693145D01*
X1371158Y81676425D01*
X1185597Y81546495D01*
X1018505Y81379403D01*
X882965Y81185831D01*
X882964Y81185829D01*
X783098Y80971665D01*
X783094Y80971656D01*
X721938Y80743414D01*
X721936Y80743404D01*
X701341Y80508001D01*
X701341Y80508000D01*
X721936Y80272597D01*
X721938Y80272587D01*
X783094Y80044345D01*
X783096Y80044341D01*
X783097Y80044337D01*
X823663Y79957344D01*
X882965Y79830170D01*
X882967Y79830166D01*
X1018501Y79636605D01*
X1018506Y79636598D01*
X1185597Y79469507D01*
X1185603Y79469502D01*
X1371158Y79339575D01*
X1414783Y79284998D01*
X1421977Y79215500D01*
X1390454Y79153145D01*
X1371158Y79136425D01*
X1185597Y79006495D01*
X1018505Y78839403D01*
X882965Y78645831D01*
X882964Y78645829D01*
X815938Y78502090D01*
X785596Y78437021D01*
X783098Y78431665D01*
X783094Y78431656D01*
X721938Y78203414D01*
X721936Y78203404D01*
X701341Y77968001D01*
X701341Y77968000D01*
X721936Y77732597D01*
X721938Y77732587D01*
X783094Y77504345D01*
X783096Y77504341D01*
X783097Y77504337D01*
X882965Y77290170D01*
X882967Y77290166D01*
X1018501Y77096605D01*
X1018506Y77096598D01*
X1185597Y76929507D01*
X1185603Y76929502D01*
X1371158Y76799575D01*
X1414783Y76744998D01*
X1421977Y76675500D01*
X1390454Y76613145D01*
X1371158Y76596425D01*
X1185597Y76466495D01*
X1018505Y76299403D01*
X882965Y76105831D01*
X882964Y76105829D01*
X783098Y75891665D01*
X783097Y75891663D01*
X721938Y75663414D01*
X721936Y75663404D01*
X701341Y75428001D01*
X701341Y75428000D01*
X721936Y75192597D01*
X721938Y75192587D01*
X783094Y74964345D01*
X783096Y74964341D01*
X783097Y74964337D01*
X823555Y74877575D01*
X882965Y74750170D01*
X882967Y74750166D01*
X1018501Y74556605D01*
X1018506Y74556598D01*
X1185597Y74389507D01*
X1185603Y74389502D01*
X1371158Y74259575D01*
X1414783Y74204998D01*
X1421977Y74135500D01*
X1390454Y74073145D01*
X1371158Y74056425D01*
X1185597Y73926495D01*
X1018505Y73759403D01*
X882965Y73565831D01*
X882964Y73565829D01*
X783098Y73351665D01*
X783094Y73351656D01*
X721938Y73123414D01*
X721936Y73123404D01*
X701341Y72888001D01*
X701341Y72888000D01*
X721936Y72652597D01*
X721938Y72652587D01*
X783094Y72424345D01*
X783096Y72424341D01*
X783097Y72424337D01*
X816845Y72351965D01*
X882965Y72210170D01*
X882967Y72210166D01*
X1018501Y72016605D01*
X1018506Y72016598D01*
X1185597Y71849507D01*
X1185603Y71849502D01*
X1371158Y71719575D01*
X1414783Y71664998D01*
X1421977Y71595500D01*
X1390454Y71533145D01*
X1371158Y71516425D01*
X1185597Y71386495D01*
X1018505Y71219403D01*
X882965Y71025831D01*
X882964Y71025829D01*
X783098Y70811665D01*
X783094Y70811656D01*
X721938Y70583414D01*
X721936Y70583404D01*
X701341Y70348001D01*
X701341Y70348000D01*
X721936Y70112597D01*
X721938Y70112587D01*
X783094Y69884345D01*
X783096Y69884341D01*
X783097Y69884337D01*
X882965Y69670170D01*
X882967Y69670166D01*
X1018501Y69476605D01*
X1018506Y69476598D01*
X1185597Y69309507D01*
X1185603Y69309502D01*
X1371158Y69179575D01*
X1414783Y69124998D01*
X1421977Y69055500D01*
X1390454Y68993145D01*
X1371158Y68976425D01*
X1185597Y68846495D01*
X1018505Y68679403D01*
X882965Y68485831D01*
X882964Y68485829D01*
X783098Y68271665D01*
X783094Y68271656D01*
X721938Y68043414D01*
X721936Y68043404D01*
X701341Y67808001D01*
X701341Y67808000D01*
X721936Y67572597D01*
X721938Y67572587D01*
X783094Y67344345D01*
X783096Y67344341D01*
X783097Y67344337D01*
X819282Y67266739D01*
X882965Y67130170D01*
X882967Y67130166D01*
X972393Y67002454D01*
X1005620Y66955000D01*
X1018501Y66936605D01*
X1018506Y66936598D01*
X1185597Y66769507D01*
X1185603Y66769502D01*
X1371158Y66639575D01*
X1414783Y66584998D01*
X1421977Y66515500D01*
X1390454Y66453145D01*
X1371158Y66436425D01*
X1185597Y66306495D01*
X1018505Y66139403D01*
X882965Y65945831D01*
X882964Y65945829D01*
X783098Y65731665D01*
X783094Y65731656D01*
X721938Y65503414D01*
X721936Y65503404D01*
X701341Y65268001D01*
X701341Y65268000D01*
X500Y65268000D01*
X500Y97666000D01*
X20185Y97733039D01*
X72989Y97778794D01*
X124500Y97790000D01*
X39754000Y97790000D01*
X39821039Y97770315D01*
G37*
%TD.AperFunction*%
%TA.AperFunction,Conductor*%
G36*
X27146385Y66674815D02*
G01*
X27192140Y66622011D01*
X27202566Y66584384D01*
X27203685Y66574447D01*
X27259544Y66414808D01*
X27259547Y66414803D01*
X27349518Y66271616D01*
X27349523Y66271610D01*
X27469109Y66152024D01*
X27469115Y66152019D01*
X27612302Y66062048D01*
X27612305Y66062046D01*
X27612309Y66062045D01*
X27612310Y66062044D01*
X27675311Y66039999D01*
X27771943Y66006186D01*
X27939997Y65987251D01*
X27940000Y65987251D01*
X27940003Y65987251D01*
X28108059Y66006187D01*
X28108061Y66006187D01*
X28204545Y66039948D01*
X28274324Y66043510D01*
X28334951Y66008782D01*
X28367179Y65946788D01*
X28369500Y65922907D01*
X28369500Y65867273D01*
X28384313Y65754765D01*
X28384313Y65754764D01*
X28435500Y65631187D01*
X28442302Y65614767D01*
X28534549Y65494549D01*
X28654767Y65402302D01*
X28654769Y65402302D01*
X28661215Y65397355D01*
X28659525Y65395153D01*
X28698404Y65354394D01*
X28711138Y65313741D01*
X28712071Y65306653D01*
X28771066Y65164224D01*
X28790038Y65139500D01*
X28864917Y65041917D01*
X28892401Y65020828D01*
X28898489Y65015489D01*
X28941310Y64972668D01*
X28974795Y64911345D01*
X28976849Y64898874D01*
X28981687Y64855942D01*
X29037544Y64696308D01*
X29037547Y64696303D01*
X29127518Y64553116D01*
X29127523Y64553110D01*
X29247109Y64433524D01*
X29247115Y64433519D01*
X29390302Y64343548D01*
X29390305Y64343546D01*
X29390309Y64343545D01*
X29390310Y64343544D01*
X29549941Y64287687D01*
X29549944Y64287686D01*
X29683489Y64272640D01*
X29718000Y64268751D01*
X29718000Y64268752D01*
X29724383Y64268032D01*
X29788797Y64240966D01*
X29828352Y64183371D01*
X29834500Y64144812D01*
X29834500Y64020942D01*
X29833969Y64012840D01*
X29829448Y63978501D01*
X29829448Y63978500D01*
X29849571Y63825655D01*
X29849572Y63825651D01*
X29908565Y63683227D01*
X29908566Y63683225D01*
X29908567Y63683224D01*
X29966829Y63607295D01*
X30002417Y63560917D01*
X30002418Y63560916D01*
X30002420Y63560914D01*
X30004181Y63559153D01*
X30005191Y63557303D01*
X30007365Y63554470D01*
X30006923Y63554132D01*
X30037666Y63497830D01*
X30040500Y63471472D01*
X30040500Y63437500D01*
X30020815Y63370461D01*
X29968011Y63324706D01*
X29916500Y63313500D01*
X26853086Y63313500D01*
X26786047Y63333185D01*
X26740705Y63385094D01*
X26731038Y63405824D01*
X26731034Y63405831D01*
X26595494Y63599403D01*
X26428402Y63766494D01*
X26428396Y63766499D01*
X26242842Y63896425D01*
X26199217Y63951002D01*
X26192023Y64020500D01*
X26223546Y64082855D01*
X26242842Y64099575D01*
X26307447Y64144812D01*
X26428401Y64229505D01*
X26595495Y64396599D01*
X26731035Y64590170D01*
X26830903Y64804337D01*
X26892063Y65032592D01*
X26912659Y65268000D01*
X26892063Y65503408D01*
X26830903Y65731663D01*
X26731035Y65945829D01*
X26707459Y65979500D01*
X26595494Y66139403D01*
X26428402Y66306494D01*
X26428401Y66306495D01*
X26306746Y66391679D01*
X26242841Y66436426D01*
X26199216Y66491003D01*
X26192024Y66560502D01*
X26223546Y66622856D01*
X26242835Y66639571D01*
X26289258Y66672077D01*
X26355465Y66694403D01*
X26360380Y66694500D01*
X27079346Y66694500D01*
X27146385Y66674815D01*
G37*
%TD.AperFunction*%
%TA.AperFunction,Conductor*%
G36*
X30345539Y81436815D02*
G01*
X30391294Y81384011D01*
X30402500Y81332500D01*
X30402500Y79795885D01*
X30382815Y79728846D01*
X30366181Y79708204D01*
X30180996Y79523020D01*
X30174894Y79517668D01*
X30147417Y79496584D01*
X30118733Y79459203D01*
X30118729Y79459198D01*
X30053567Y79374277D01*
X30053565Y79374275D01*
X29994572Y79231850D01*
X29994571Y79231846D01*
X29974448Y79079000D01*
X29978969Y79044662D01*
X29979500Y79036561D01*
X29979500Y76305800D01*
X29978969Y76297698D01*
X29974448Y76263359D01*
X29974448Y76263358D01*
X29994571Y76110513D01*
X29994572Y76110509D01*
X30053565Y75968085D01*
X30053566Y75968083D01*
X30053567Y75968082D01*
X30112205Y75891663D01*
X30147417Y75845775D01*
X30174901Y75824686D01*
X30180989Y75819347D01*
X30336922Y75663414D01*
X30448181Y75552155D01*
X30481666Y75490832D01*
X30484500Y75464474D01*
X30484500Y70351064D01*
X30475061Y70303612D01*
X30434314Y70205240D01*
X30434313Y70205236D01*
X30419500Y70092728D01*
X30419500Y69367273D01*
X30432461Y69268829D01*
X30434313Y69254764D01*
X30492302Y69114767D01*
X30584549Y68994549D01*
X30704767Y68902302D01*
X30844764Y68844313D01*
X30957280Y68829500D01*
X30957287Y68829500D01*
X31182713Y68829500D01*
X31182720Y68829500D01*
X31295236Y68844313D01*
X31347550Y68865983D01*
X31417015Y68873451D01*
X31442443Y68865986D01*
X31494764Y68844313D01*
X31607280Y68829500D01*
X31607287Y68829500D01*
X31832713Y68829500D01*
X31832720Y68829500D01*
X31945236Y68844313D01*
X31997550Y68865983D01*
X32067015Y68873451D01*
X32092443Y68865986D01*
X32144764Y68844313D01*
X32257280Y68829500D01*
X32257287Y68829500D01*
X32482713Y68829500D01*
X32482720Y68829500D01*
X32595236Y68844313D01*
X32647550Y68865983D01*
X32717015Y68873451D01*
X32742443Y68865986D01*
X32794764Y68844313D01*
X32907280Y68829500D01*
X32907287Y68829500D01*
X33132713Y68829500D01*
X33132720Y68829500D01*
X33245236Y68844313D01*
X33385233Y68902302D01*
X33505451Y68994549D01*
X33597698Y69114767D01*
X33655687Y69254764D01*
X33670500Y69367280D01*
X33670500Y70092720D01*
X33655687Y70205236D01*
X33642523Y70237016D01*
X33614939Y70303612D01*
X33605500Y70351064D01*
X33605500Y74671013D01*
X33606031Y74679115D01*
X33610552Y74713455D01*
X33610552Y74713456D01*
X33602318Y74776000D01*
X33590430Y74866300D01*
X33541215Y74985113D01*
X33531433Y75008730D01*
X33437583Y75131037D01*
X33410097Y75152128D01*
X33404007Y75157469D01*
X32456157Y76105319D01*
X32422672Y76166642D01*
X32427656Y76236334D01*
X32469528Y76292267D01*
X32534992Y76316684D01*
X32543838Y76317000D01*
X35239478Y76317000D01*
X35306517Y76297315D01*
X35352272Y76244511D01*
X35363006Y76182193D01*
X35349341Y76026002D01*
X35349341Y76026000D01*
X35369936Y75790597D01*
X35369938Y75790587D01*
X35431094Y75562345D01*
X35431096Y75562341D01*
X35431097Y75562337D01*
X35476732Y75464474D01*
X35530964Y75348172D01*
X35530965Y75348170D01*
X35666505Y75154598D01*
X35833597Y74987506D01*
X35990595Y74877575D01*
X36034220Y74822998D01*
X36041414Y74753500D01*
X36009891Y74691145D01*
X35990595Y74674425D01*
X35833597Y74564495D01*
X35666506Y74397403D01*
X35666501Y74397396D01*
X35530967Y74203835D01*
X35530965Y74203831D01*
X35431098Y73989665D01*
X35431094Y73989656D01*
X35369938Y73761414D01*
X35369936Y73761404D01*
X35349341Y73526001D01*
X35349341Y73526000D01*
X35369936Y73290597D01*
X35369938Y73290587D01*
X35431094Y73062345D01*
X35431096Y73062341D01*
X35431097Y73062337D01*
X35481031Y72955254D01*
X35530964Y72848172D01*
X35530965Y72848170D01*
X35666505Y72654598D01*
X35833597Y72487506D01*
X36027169Y72351966D01*
X36027171Y72351965D01*
X36241337Y72252097D01*
X36469592Y72190937D01*
X36646034Y72175500D01*
X37013966Y72175500D01*
X37125694Y72185276D01*
X37194191Y72171510D01*
X37244375Y72122895D01*
X37260500Y72061748D01*
X37260500Y71499884D01*
X37240815Y71432845D01*
X37224181Y71412203D01*
X34428797Y68616819D01*
X34367474Y68583334D01*
X34341116Y68580500D01*
X33807272Y68580500D01*
X33694764Y68565687D01*
X33694763Y68565687D01*
X33554770Y68507700D01*
X33434549Y68415451D01*
X33342300Y68295230D01*
X33284313Y68155237D01*
X33284313Y68155236D01*
X33269500Y68042728D01*
X33269500Y67817273D01*
X33284313Y67704765D01*
X33284313Y67704764D01*
X33305981Y67652451D01*
X33313448Y67582981D01*
X33305981Y67557549D01*
X33284313Y67505237D01*
X33284313Y67505236D01*
X33269500Y67392728D01*
X33269500Y67167273D01*
X33284313Y67054765D01*
X33284313Y67054764D01*
X33305981Y67002451D01*
X33313448Y66932981D01*
X33305981Y66907549D01*
X33284313Y66855237D01*
X33284313Y66855236D01*
X33269500Y66742728D01*
X33269500Y66517273D01*
X33284313Y66404765D01*
X33284313Y66404764D01*
X33341506Y66266687D01*
X33342302Y66264767D01*
X33434549Y66144549D01*
X33554767Y66052302D01*
X33694764Y65994313D01*
X33807280Y65979500D01*
X33880522Y65979500D01*
X33947561Y65959815D01*
X33993316Y65907011D01*
X34003260Y65837853D01*
X33974235Y65774297D01*
X33968203Y65767819D01*
X33718484Y65518101D01*
X33657161Y65484616D01*
X33587469Y65489600D01*
X33532428Y65530294D01*
X33505451Y65565451D01*
X33385233Y65657698D01*
X33385229Y65657700D01*
X33297547Y65694019D01*
X33245236Y65715687D01*
X33231171Y65717539D01*
X33132727Y65730500D01*
X33132720Y65730500D01*
X32907280Y65730500D01*
X32907272Y65730500D01*
X32794764Y65715687D01*
X32794763Y65715687D01*
X32742451Y65694019D01*
X32672981Y65686552D01*
X32647549Y65694019D01*
X32620646Y65705162D01*
X32595236Y65715687D01*
X32581171Y65717539D01*
X32482727Y65730500D01*
X32482720Y65730500D01*
X32257280Y65730500D01*
X32257272Y65730500D01*
X32144764Y65715687D01*
X32144763Y65715687D01*
X32092451Y65694019D01*
X32022981Y65686552D01*
X31997549Y65694019D01*
X31970646Y65705162D01*
X31945236Y65715687D01*
X31931171Y65717539D01*
X31832727Y65730500D01*
X31832720Y65730500D01*
X31607280Y65730500D01*
X31607272Y65730500D01*
X31494764Y65715687D01*
X31494763Y65715687D01*
X31442451Y65694019D01*
X31372981Y65686552D01*
X31347549Y65694019D01*
X31320646Y65705162D01*
X31295236Y65715687D01*
X31281171Y65717539D01*
X31182727Y65730500D01*
X31182720Y65730500D01*
X30957280Y65730500D01*
X30957272Y65730500D01*
X30844764Y65715687D01*
X30844763Y65715687D01*
X30792451Y65694019D01*
X30722981Y65686552D01*
X30697549Y65694019D01*
X30670646Y65705162D01*
X30645236Y65715687D01*
X30631171Y65717539D01*
X30532727Y65730500D01*
X30532720Y65730500D01*
X30307280Y65730500D01*
X30307273Y65730500D01*
X30303228Y65730234D01*
X30303117Y65731918D01*
X30240907Y65741639D01*
X30188667Y65788036D01*
X30169803Y65855311D01*
X30170371Y65863219D01*
X30170234Y65863228D01*
X30170500Y65867287D01*
X30170500Y66092714D01*
X30170499Y66092728D01*
X30164354Y66139403D01*
X30155687Y66205236D01*
X30134017Y66257551D01*
X30126549Y66327015D01*
X30134014Y66352444D01*
X30155687Y66404764D01*
X30170500Y66517280D01*
X30170500Y66742720D01*
X30155687Y66855236D01*
X30134017Y66907551D01*
X30126549Y66977015D01*
X30134014Y67002444D01*
X30155687Y67054764D01*
X30170500Y67167280D01*
X30170500Y67392720D01*
X30155687Y67505236D01*
X30134017Y67557551D01*
X30126549Y67627015D01*
X30134014Y67652444D01*
X30155687Y67704764D01*
X30170500Y67817280D01*
X30170500Y68042720D01*
X30155687Y68155236D01*
X30097698Y68295233D01*
X30005451Y68415451D01*
X29885233Y68507698D01*
X29885229Y68507700D01*
X29821801Y68533973D01*
X29745236Y68565687D01*
X29731171Y68567539D01*
X29632727Y68580500D01*
X29632720Y68580500D01*
X28907280Y68580500D01*
X28907272Y68580500D01*
X28794764Y68565687D01*
X28794763Y68565687D01*
X28654770Y68507700D01*
X28534549Y68415451D01*
X28442300Y68295230D01*
X28384313Y68155237D01*
X28384313Y68155236D01*
X28369500Y68042728D01*
X28369500Y67989500D01*
X28349815Y67922461D01*
X28297011Y67876706D01*
X28245500Y67865500D01*
X27021253Y67865500D01*
X26954214Y67885185D01*
X26908459Y67937989D01*
X26897725Y67978692D01*
X26896779Y67989500D01*
X26892063Y68043408D01*
X26830903Y68271663D01*
X26731035Y68485829D01*
X26715723Y68507698D01*
X26595494Y68679403D01*
X26428402Y68846494D01*
X26428396Y68846499D01*
X26242842Y68976425D01*
X26199217Y69031002D01*
X26192023Y69100500D01*
X26223546Y69162855D01*
X26242842Y69179575D01*
X26265026Y69195109D01*
X26428401Y69309505D01*
X26595495Y69476599D01*
X26731035Y69670170D01*
X26830903Y69884337D01*
X26892063Y70112592D01*
X26912659Y70348000D01*
X26892063Y70583408D01*
X26830903Y70811663D01*
X26731035Y71025829D01*
X26595495Y71219401D01*
X26595494Y71219403D01*
X26428402Y71386494D01*
X26428396Y71386499D01*
X26242842Y71516425D01*
X26199217Y71571002D01*
X26192023Y71640500D01*
X26223546Y71702855D01*
X26242842Y71719575D01*
X26265026Y71735109D01*
X26428401Y71849505D01*
X26595495Y72016599D01*
X26731035Y72210170D01*
X26830903Y72424337D01*
X26892063Y72652592D01*
X26912659Y72888000D01*
X26892063Y73123408D01*
X26830903Y73351663D01*
X26731035Y73565829D01*
X26595495Y73759401D01*
X26595494Y73759403D01*
X26428402Y73926494D01*
X26428396Y73926499D01*
X26242842Y74056425D01*
X26199217Y74111002D01*
X26192023Y74180500D01*
X26223546Y74242855D01*
X26242842Y74259575D01*
X26265026Y74275109D01*
X26428401Y74389505D01*
X26595495Y74556599D01*
X26731035Y74750170D01*
X26830903Y74964337D01*
X26892063Y75192592D01*
X26912659Y75428000D01*
X26892063Y75663408D01*
X26830903Y75891663D01*
X26731035Y76105829D01*
X26727756Y76110513D01*
X26595494Y76299403D01*
X26428402Y76466494D01*
X26428396Y76466499D01*
X26242842Y76596425D01*
X26199217Y76651002D01*
X26192023Y76720500D01*
X26223546Y76782855D01*
X26242842Y76799575D01*
X26265026Y76815109D01*
X26428401Y76929505D01*
X26595495Y77096599D01*
X26731035Y77290170D01*
X26830903Y77504337D01*
X26892063Y77732592D01*
X26912659Y77968000D01*
X26892063Y78203408D01*
X26870679Y78283213D01*
X26853189Y78348489D01*
X26854852Y78418339D01*
X26885281Y78468261D01*
X29837203Y81420181D01*
X29898526Y81453666D01*
X29924884Y81456500D01*
X30278500Y81456500D01*
X30345539Y81436815D01*
G37*
%TD.AperFunction*%
%TA.AperFunction,Conductor*%
G36*
X27393049Y87522815D02*
G01*
X27413691Y87506181D01*
X30556691Y84363181D01*
X30590176Y84301858D01*
X30585192Y84232166D01*
X30543320Y84176233D01*
X30477856Y84151816D01*
X30469010Y84151500D01*
X27872884Y84151500D01*
X27805845Y84171185D01*
X27785203Y84187819D01*
X26885283Y85087739D01*
X26851798Y85149062D01*
X26853189Y85207514D01*
X26892063Y85352592D01*
X26912659Y85588000D01*
X26892063Y85823408D01*
X26830903Y86051663D01*
X26731035Y86265829D01*
X26685684Y86330598D01*
X26595494Y86459403D01*
X26428402Y86626494D01*
X26428396Y86626499D01*
X26242842Y86756425D01*
X26199217Y86811002D01*
X26192023Y86880500D01*
X26223546Y86942855D01*
X26242842Y86959575D01*
X26265026Y86975109D01*
X26428401Y87089505D01*
X26595495Y87256599D01*
X26731035Y87450170D01*
X26736234Y87461321D01*
X26740705Y87470906D01*
X26786878Y87523345D01*
X26853086Y87542500D01*
X27326010Y87542500D01*
X27393049Y87522815D01*
G37*
%TD.AperFunction*%
%TD*%
M02*
