%TF.GenerationSoftware,KiCad,Pcbnew,8.0.0*%
%TF.CreationDate,2024-02-27T14:42:45+08:00*%
%TF.ProjectId,esp32_temperature_controller,65737033-325f-4746-956d-706572617475,rev?*%
%TF.SameCoordinates,PX50e7ea0PY815a420*%
%TF.FileFunction,Soldermask,Bot*%
%TF.FilePolarity,Negative*%
%FSLAX46Y46*%
G04 Gerber Fmt 4.6, Leading zero omitted, Abs format (unit mm)*
G04 Created by KiCad (PCBNEW 8.0.0) date 2024-02-27 14:42:45*
%MOMM*%
%LPD*%
G01*
G04 APERTURE LIST*
G04 Aperture macros list*
%AMRoundRect*
0 Rectangle with rounded corners*
0 $1 Rounding radius*
0 $2 $3 $4 $5 $6 $7 $8 $9 X,Y pos of 4 corners*
0 Add a 4 corners polygon primitive as box body*
4,1,4,$2,$3,$4,$5,$6,$7,$8,$9,$2,$3,0*
0 Add four circle primitives for the rounded corners*
1,1,$1+$1,$2,$3*
1,1,$1+$1,$4,$5*
1,1,$1+$1,$6,$7*
1,1,$1+$1,$8,$9*
0 Add four rect primitives between the rounded corners*
20,1,$1+$1,$2,$3,$4,$5,0*
20,1,$1+$1,$4,$5,$6,$7,0*
20,1,$1+$1,$6,$7,$8,$9,0*
20,1,$1+$1,$8,$9,$2,$3,0*%
G04 Aperture macros list end*
%ADD10R,1.600000X1.600000*%
%ADD11O,1.600000X1.600000*%
%ADD12C,1.600000*%
%ADD13RoundRect,0.250000X-0.725000X0.600000X-0.725000X-0.600000X0.725000X-0.600000X0.725000X0.600000X0*%
%ADD14O,1.950000X1.700000*%
%ADD15RoundRect,0.250000X-0.650000X-1.550000X0.650000X-1.550000X0.650000X1.550000X-0.650000X1.550000X0*%
%ADD16O,1.800000X3.600000*%
%ADD17RoundRect,0.575000X0.575000X0.575000X-0.575000X0.575000X-0.575000X-0.575000X0.575000X-0.575000X0*%
%ADD18C,2.300000*%
%ADD19R,2.000000X2.000000*%
%ADD20C,2.000000*%
%ADD21R,2.000000X1.905000*%
%ADD22O,2.000000X1.905000*%
%ADD23R,1.700000X1.700000*%
%ADD24O,1.700000X1.700000*%
%ADD25RoundRect,0.160000X-0.197500X-0.160000X0.197500X-0.160000X0.197500X0.160000X-0.197500X0.160000X0*%
%ADD26RoundRect,0.250000X-0.362500X-1.425000X0.362500X-1.425000X0.362500X1.425000X-0.362500X1.425000X0*%
%ADD27RoundRect,0.155000X0.155000X-0.212500X0.155000X0.212500X-0.155000X0.212500X-0.155000X-0.212500X0*%
%ADD28RoundRect,0.160000X0.197500X0.160000X-0.197500X0.160000X-0.197500X-0.160000X0.197500X-0.160000X0*%
%ADD29RoundRect,0.250000X-1.000000X-0.650000X1.000000X-0.650000X1.000000X0.650000X-1.000000X0.650000X0*%
%ADD30RoundRect,0.250000X-1.050000X-0.550000X1.050000X-0.550000X1.050000X0.550000X-1.050000X0.550000X0*%
%ADD31RoundRect,0.125000X-0.125000X0.825000X-0.125000X-0.825000X0.125000X-0.825000X0.125000X0.825000X0*%
%ADD32RoundRect,0.155000X-0.155000X0.212500X-0.155000X-0.212500X0.155000X-0.212500X0.155000X0.212500X0*%
%ADD33RoundRect,0.125000X0.125000X-0.825000X0.125000X0.825000X-0.125000X0.825000X-0.125000X-0.825000X0*%
%ADD34RoundRect,0.237500X0.237500X-0.250000X0.237500X0.250000X-0.237500X0.250000X-0.237500X-0.250000X0*%
G04 APERTURE END LIST*
D10*
%TO.C,U4*%
X31735000Y21072000D03*
D11*
X29195000Y21072000D03*
X26655000Y21072000D03*
X26655000Y13452000D03*
X29195000Y13452000D03*
X31735000Y13452000D03*
%TD*%
D12*
%TO.C,RV1*%
X24638000Y1778000D03*
X26638000Y6778000D03*
%TD*%
D13*
%TO.C,J6*%
X36830000Y81026000D03*
D14*
X36830000Y78526000D03*
X36830000Y76026000D03*
X36830000Y73526000D03*
%TD*%
D15*
%TO.C,J3*%
X3302000Y3556000D03*
D16*
X8382000Y3556000D03*
%TD*%
D15*
%TO.C,J4*%
X31750000Y3556000D03*
D16*
X36830000Y3556000D03*
%TD*%
D13*
%TO.C,J5*%
X36830000Y94702000D03*
D14*
X36830000Y92202000D03*
X36830000Y89702000D03*
X36830000Y87202000D03*
%TD*%
D10*
%TO.C,U3*%
X9134000Y17013000D03*
D11*
X9134000Y19553000D03*
X1514000Y19553000D03*
X1514000Y17013000D03*
%TD*%
D10*
%TO.C,J7*%
X37846000Y66070000D03*
D11*
X37846000Y63530000D03*
X37846000Y60990000D03*
X37846000Y58450000D03*
%TD*%
D17*
%TO.C,F1*%
X22188000Y11938000D03*
X17588000Y11938000D03*
D18*
X6288000Y11938000D03*
X1688000Y11938000D03*
%TD*%
D19*
%TO.C,PS1*%
X36830000Y31750000D03*
D20*
X36830000Y37750000D03*
X3230000Y25750000D03*
X3230000Y43750000D03*
%TD*%
D21*
%TO.C,D5*%
X38029000Y11938000D03*
D22*
X38029000Y14478000D03*
X38029000Y17018000D03*
%TD*%
D23*
%TO.C,J8*%
X11864000Y70806000D03*
D24*
X11864000Y68266000D03*
X11864000Y65726000D03*
X11864000Y63186000D03*
X11864000Y60646000D03*
X11864000Y58106000D03*
X11864000Y55566000D03*
X11864000Y53026000D03*
X11864000Y50486000D03*
%TD*%
D25*
%TO.C,R8*%
X30391500Y70336000D03*
X31586500Y70336000D03*
%TD*%
D26*
%TO.C,R5*%
X29551500Y16936000D03*
X35476500Y16936000D03*
%TD*%
D27*
%TO.C,C6*%
X33339000Y69158500D03*
X33339000Y70293500D03*
%TD*%
%TO.C,C7*%
X35089000Y69158500D03*
X35089000Y70293500D03*
%TD*%
D28*
%TO.C,R7*%
X32661500Y94486000D03*
X31466500Y94486000D03*
%TD*%
D29*
%TO.C,D4*%
X12224000Y16002000D03*
X16224000Y16002000D03*
%TD*%
D30*
%TO.C,C2*%
X3280000Y38362000D03*
X6880000Y38362000D03*
%TD*%
D29*
%TO.C,D3*%
X12224000Y20320000D03*
X16224000Y20320000D03*
%TD*%
D31*
%TO.C,U1*%
X28689000Y91636000D03*
X29339000Y91636000D03*
X29989000Y91636000D03*
X30639000Y91636000D03*
X31289000Y91636000D03*
X31939000Y91636000D03*
X32589000Y91636000D03*
X33239000Y91636000D03*
X33889000Y91636000D03*
X34539000Y91636000D03*
X34539000Y84636000D03*
X33889000Y84636000D03*
X33239000Y84636000D03*
X32589000Y84636000D03*
X31939000Y84636000D03*
X31289000Y84636000D03*
X30639000Y84636000D03*
X29989000Y84636000D03*
X29339000Y84636000D03*
X28689000Y84636000D03*
%TD*%
D32*
%TO.C,C4*%
X27964000Y95653500D03*
X27964000Y94518500D03*
%TD*%
D23*
%TO.C,J1*%
X25557000Y95748000D03*
D24*
X25557000Y93208000D03*
X25557000Y90668000D03*
X25557000Y88128000D03*
X25557000Y85588000D03*
X25557000Y83048000D03*
X25557000Y80508000D03*
X25557000Y77968000D03*
X25557000Y75428000D03*
X25557000Y72888000D03*
X25557000Y70348000D03*
X25557000Y67808000D03*
X25557000Y65268000D03*
X25557000Y62728000D03*
X25557000Y60188000D03*
X25557000Y57648000D03*
X25557000Y55108000D03*
X25557000Y52568000D03*
X25557000Y50028000D03*
%TD*%
D33*
%TO.C,U2*%
X34364000Y73186000D03*
X33714000Y73186000D03*
X33064000Y73186000D03*
X32414000Y73186000D03*
X31764000Y73186000D03*
X31114000Y73186000D03*
X30464000Y73186000D03*
X29814000Y73186000D03*
X29164000Y73186000D03*
X28514000Y73186000D03*
X28514000Y80186000D03*
X29164000Y80186000D03*
X29814000Y80186000D03*
X30464000Y80186000D03*
X31114000Y80186000D03*
X31764000Y80186000D03*
X32414000Y80186000D03*
X33064000Y80186000D03*
X33714000Y80186000D03*
X34364000Y80186000D03*
%TD*%
D29*
%TO.C,D2*%
X19844000Y16002000D03*
X23844000Y16002000D03*
%TD*%
D23*
%TO.C,J2*%
X2057000Y95748000D03*
D24*
X2057000Y93208000D03*
X2057000Y90668000D03*
X2057000Y88128000D03*
X2057000Y85588000D03*
X2057000Y83048000D03*
X2057000Y80508000D03*
X2057000Y77968000D03*
X2057000Y75428000D03*
X2057000Y72888000D03*
X2057000Y70348000D03*
X2057000Y67808000D03*
X2057000Y65268000D03*
X2057000Y62728000D03*
X2057000Y60188000D03*
X2057000Y57648000D03*
X2057000Y55108000D03*
X2057000Y52568000D03*
X2057000Y50028000D03*
%TD*%
D34*
%TO.C,R2*%
X14224000Y11533500D03*
X14224000Y13358500D03*
%TD*%
D30*
%TO.C,C1*%
X3280000Y32512000D03*
X6880000Y32512000D03*
%TD*%
D32*
%TO.C,C3*%
X29714000Y95653500D03*
X29714000Y94518500D03*
%TD*%
D29*
%TO.C,D1*%
X19844000Y20320000D03*
X23844000Y20320000D03*
%TD*%
D28*
%TO.C,R3*%
X3645500Y22098000D03*
X2450500Y22098000D03*
%TD*%
M02*
