%TF.GenerationSoftware,KiCad,Pcbnew,7.0.8*%
%TF.CreationDate,2024-01-30T16:00:28+08:00*%
%TF.ProjectId,esp32_temperature_controller,65737033-325f-4746-956d-706572617475,rev?*%
%TF.SameCoordinates,PX50e7ea0PY815a420*%
%TF.FileFunction,Soldermask,Top*%
%TF.FilePolarity,Negative*%
%FSLAX46Y46*%
G04 Gerber Fmt 4.6, Leading zero omitted, Abs format (unit mm)*
G04 Created by KiCad (PCBNEW 7.0.8) date 2024-01-30 16:00:28*
%MOMM*%
%LPD*%
G01*
G04 APERTURE LIST*
G04 Aperture macros list*
%AMRoundRect*
0 Rectangle with rounded corners*
0 $1 Rounding radius*
0 $2 $3 $4 $5 $6 $7 $8 $9 X,Y pos of 4 corners*
0 Add a 4 corners polygon primitive as box body*
4,1,4,$2,$3,$4,$5,$6,$7,$8,$9,$2,$3,0*
0 Add four circle primitives for the rounded corners*
1,1,$1+$1,$2,$3*
1,1,$1+$1,$4,$5*
1,1,$1+$1,$6,$7*
1,1,$1+$1,$8,$9*
0 Add four rect primitives between the rounded corners*
20,1,$1+$1,$2,$3,$4,$5,0*
20,1,$1+$1,$4,$5,$6,$7,0*
20,1,$1+$1,$6,$7,$8,$9,0*
20,1,$1+$1,$8,$9,$2,$3,0*%
G04 Aperture macros list end*
%ADD10RoundRect,0.160000X0.197500X0.160000X-0.197500X0.160000X-0.197500X-0.160000X0.197500X-0.160000X0*%
%ADD11R,1.600000X1.600000*%
%ADD12O,1.600000X1.600000*%
%ADD13RoundRect,0.250000X0.362500X1.425000X-0.362500X1.425000X-0.362500X-1.425000X0.362500X-1.425000X0*%
%ADD14C,1.600000*%
%ADD15RoundRect,0.250000X-0.725000X0.600000X-0.725000X-0.600000X0.725000X-0.600000X0.725000X0.600000X0*%
%ADD16O,1.950000X1.700000*%
%ADD17RoundRect,0.250000X-0.650000X-1.550000X0.650000X-1.550000X0.650000X1.550000X-0.650000X1.550000X0*%
%ADD18O,1.800000X3.600000*%
%ADD19RoundRect,0.155000X0.155000X-0.212500X0.155000X0.212500X-0.155000X0.212500X-0.155000X-0.212500X0*%
%ADD20RoundRect,0.237500X0.287500X0.237500X-0.287500X0.237500X-0.287500X-0.237500X0.287500X-0.237500X0*%
%ADD21RoundRect,0.237500X-0.237500X0.250000X-0.237500X-0.250000X0.237500X-0.250000X0.237500X0.250000X0*%
%ADD22RoundRect,0.160000X-0.197500X-0.160000X0.197500X-0.160000X0.197500X0.160000X-0.197500X0.160000X0*%
%ADD23RoundRect,0.237500X-0.237500X0.287500X-0.237500X-0.287500X0.237500X-0.287500X0.237500X0.287500X0*%
%ADD24R,1.700000X1.700000*%
%ADD25O,1.700000X1.700000*%
%ADD26RoundRect,0.075000X0.075000X-0.325000X0.075000X0.325000X-0.075000X0.325000X-0.075000X-0.325000X0*%
%ADD27RoundRect,0.075000X0.325000X-0.075000X0.325000X0.075000X-0.325000X0.075000X-0.325000X-0.075000X0*%
%ADD28R,3.350000X3.350000*%
%ADD29RoundRect,0.160000X0.160000X-0.197500X0.160000X0.197500X-0.160000X0.197500X-0.160000X-0.197500X0*%
%ADD30RoundRect,0.575000X0.575000X0.575000X-0.575000X0.575000X-0.575000X-0.575000X0.575000X-0.575000X0*%
%ADD31C,2.300000*%
%ADD32R,2.000000X2.000000*%
%ADD33C,2.000000*%
%ADD34R,2.000000X1.905000*%
%ADD35O,2.000000X1.905000*%
G04 APERTURE END LIST*
D10*
%TO.C,R8*%
X32093500Y63500000D03*
X30898500Y63500000D03*
%TD*%
D11*
%TO.C,U4*%
X31735000Y21072000D03*
D12*
X29195000Y21072000D03*
X26655000Y21072000D03*
X26655000Y13452000D03*
X29195000Y13452000D03*
X31735000Y13452000D03*
%TD*%
D13*
%TO.C,R6*%
X21758500Y6096000D03*
X15833500Y6096000D03*
%TD*%
D14*
%TO.C,RV1*%
X24638000Y1778000D03*
X26638000Y6778000D03*
%TD*%
D15*
%TO.C,J6*%
X36830000Y81026000D03*
D16*
X36830000Y78526000D03*
X36830000Y76026000D03*
X36830000Y73526000D03*
%TD*%
D17*
%TO.C,J3*%
X3302000Y3556000D03*
D18*
X8382000Y3556000D03*
%TD*%
D19*
%TO.C,C5*%
X31496000Y90364500D03*
X31496000Y91499500D03*
%TD*%
D17*
%TO.C,J4*%
X31750000Y3556000D03*
D18*
X36830000Y3556000D03*
%TD*%
D15*
%TO.C,J5*%
X36830000Y94702000D03*
D16*
X36830000Y92202000D03*
X36830000Y89702000D03*
X36830000Y87202000D03*
%TD*%
D20*
%TO.C,D7*%
X30889000Y94486000D03*
X29139000Y94486000D03*
%TD*%
D10*
%TO.C,R9*%
X30151000Y82804000D03*
X28956000Y82804000D03*
%TD*%
D21*
%TO.C,R1*%
X24384000Y13866500D03*
X24384000Y12041500D03*
%TD*%
D22*
%TO.C,R10*%
X28566500Y91536000D03*
X29761500Y91536000D03*
%TD*%
D23*
%TO.C,D6*%
X12700000Y7225000D03*
X12700000Y5475000D03*
%TD*%
D24*
%TO.C,J1*%
X2057000Y95748000D03*
D25*
X2057000Y93208000D03*
X2057000Y90668000D03*
X2057000Y88128000D03*
X2057000Y85588000D03*
X2057000Y83048000D03*
X2057000Y80508000D03*
X2057000Y77968000D03*
X2057000Y75428000D03*
X2057000Y72888000D03*
X2057000Y70348000D03*
X2057000Y67808000D03*
X2057000Y65268000D03*
X2057000Y62728000D03*
X2057000Y60188000D03*
X2057000Y57648000D03*
X2057000Y55108000D03*
X2057000Y52568000D03*
X2057000Y50028000D03*
%TD*%
D19*
%TO.C,C8*%
X31750000Y76902500D03*
X31750000Y78037500D03*
%TD*%
D11*
%TO.C,U3*%
X9134000Y17013000D03*
D12*
X9134000Y19553000D03*
X1514000Y19553000D03*
X1514000Y17013000D03*
%TD*%
D26*
%TO.C,U2*%
X30420000Y64830000D03*
X31070000Y64830000D03*
X31720000Y64830000D03*
X32370000Y64830000D03*
X33020000Y64830000D03*
D27*
X34170000Y65980000D03*
X34170000Y66630000D03*
X34170000Y67280000D03*
X34170000Y67930000D03*
X34170000Y68580000D03*
D26*
X33020000Y69730000D03*
X32370000Y69730000D03*
X31720000Y69730000D03*
X31070000Y69730000D03*
X30420000Y69730000D03*
D27*
X29270000Y68580000D03*
X29270000Y67930000D03*
X29270000Y67280000D03*
X29270000Y66630000D03*
X29270000Y65980000D03*
D28*
X31720000Y67280000D03*
%TD*%
D11*
%TO.C,J7*%
X37846000Y58420000D03*
D12*
X37846000Y60960000D03*
X37846000Y63500000D03*
X37846000Y66040000D03*
%TD*%
D29*
%TO.C,R4*%
X13462000Y48678500D03*
X13462000Y49873500D03*
%TD*%
D24*
%TO.C,J2*%
X25557000Y95748000D03*
D25*
X25557000Y93208000D03*
X25557000Y90668000D03*
X25557000Y88128000D03*
X25557000Y85588000D03*
X25557000Y83048000D03*
X25557000Y80508000D03*
X25557000Y77968000D03*
X25557000Y75428000D03*
X25557000Y72888000D03*
X25557000Y70348000D03*
X25557000Y67808000D03*
X25557000Y65268000D03*
X25557000Y62728000D03*
X25557000Y60188000D03*
X25557000Y57648000D03*
X25557000Y55108000D03*
X25557000Y52568000D03*
X25557000Y50028000D03*
%TD*%
D30*
%TO.C,F1*%
X22188000Y11938000D03*
X17588000Y11938000D03*
D31*
X6288000Y11938000D03*
X1688000Y11938000D03*
%TD*%
D32*
%TO.C,PS1*%
X36830000Y31750000D03*
D33*
X36830000Y37750000D03*
X3230000Y25750000D03*
X3230000Y43750000D03*
%TD*%
D34*
%TO.C,D5*%
X38029000Y11938000D03*
D35*
X38029000Y14478000D03*
X38029000Y17018000D03*
%TD*%
M02*
