%TF.GenerationSoftware,KiCad,Pcbnew,8.0.0*%
%TF.CreationDate,2024-02-27T14:42:45+08:00*%
%TF.ProjectId,esp32_temperature_controller,65737033-325f-4746-956d-706572617475,rev?*%
%TF.SameCoordinates,PX50e7ea0PY815a420*%
%TF.FileFunction,Copper,L2,Bot*%
%TF.FilePolarity,Positive*%
%FSLAX46Y46*%
G04 Gerber Fmt 4.6, Leading zero omitted, Abs format (unit mm)*
G04 Created by KiCad (PCBNEW 8.0.0) date 2024-02-27 14:42:45*
%MOMM*%
%LPD*%
G01*
G04 APERTURE LIST*
G04 Aperture macros list*
%AMRoundRect*
0 Rectangle with rounded corners*
0 $1 Rounding radius*
0 $2 $3 $4 $5 $6 $7 $8 $9 X,Y pos of 4 corners*
0 Add a 4 corners polygon primitive as box body*
4,1,4,$2,$3,$4,$5,$6,$7,$8,$9,$2,$3,0*
0 Add four circle primitives for the rounded corners*
1,1,$1+$1,$2,$3*
1,1,$1+$1,$4,$5*
1,1,$1+$1,$6,$7*
1,1,$1+$1,$8,$9*
0 Add four rect primitives between the rounded corners*
20,1,$1+$1,$2,$3,$4,$5,0*
20,1,$1+$1,$4,$5,$6,$7,0*
20,1,$1+$1,$6,$7,$8,$9,0*
20,1,$1+$1,$8,$9,$2,$3,0*%
G04 Aperture macros list end*
%TA.AperFunction,ComponentPad*%
%ADD10R,1.600000X1.600000*%
%TD*%
%TA.AperFunction,ComponentPad*%
%ADD11O,1.600000X1.600000*%
%TD*%
%TA.AperFunction,ComponentPad*%
%ADD12C,1.600000*%
%TD*%
%TA.AperFunction,ComponentPad*%
%ADD13RoundRect,0.250000X-0.725000X0.600000X-0.725000X-0.600000X0.725000X-0.600000X0.725000X0.600000X0*%
%TD*%
%TA.AperFunction,ComponentPad*%
%ADD14O,1.950000X1.700000*%
%TD*%
%TA.AperFunction,ComponentPad*%
%ADD15RoundRect,0.250000X-0.650000X-1.550000X0.650000X-1.550000X0.650000X1.550000X-0.650000X1.550000X0*%
%TD*%
%TA.AperFunction,ComponentPad*%
%ADD16O,1.800000X3.600000*%
%TD*%
%TA.AperFunction,ComponentPad*%
%ADD17RoundRect,0.575000X0.575000X0.575000X-0.575000X0.575000X-0.575000X-0.575000X0.575000X-0.575000X0*%
%TD*%
%TA.AperFunction,ComponentPad*%
%ADD18C,2.300000*%
%TD*%
%TA.AperFunction,ComponentPad*%
%ADD19R,2.000000X2.000000*%
%TD*%
%TA.AperFunction,ComponentPad*%
%ADD20C,2.000000*%
%TD*%
%TA.AperFunction,ComponentPad*%
%ADD21R,2.000000X1.905000*%
%TD*%
%TA.AperFunction,ComponentPad*%
%ADD22O,2.000000X1.905000*%
%TD*%
%TA.AperFunction,ComponentPad*%
%ADD23R,1.700000X1.700000*%
%TD*%
%TA.AperFunction,ComponentPad*%
%ADD24O,1.700000X1.700000*%
%TD*%
%TA.AperFunction,SMDPad,CuDef*%
%ADD25RoundRect,0.160000X-0.197500X-0.160000X0.197500X-0.160000X0.197500X0.160000X-0.197500X0.160000X0*%
%TD*%
%TA.AperFunction,SMDPad,CuDef*%
%ADD26RoundRect,0.250000X-0.362500X-1.425000X0.362500X-1.425000X0.362500X1.425000X-0.362500X1.425000X0*%
%TD*%
%TA.AperFunction,SMDPad,CuDef*%
%ADD27RoundRect,0.155000X0.155000X-0.212500X0.155000X0.212500X-0.155000X0.212500X-0.155000X-0.212500X0*%
%TD*%
%TA.AperFunction,SMDPad,CuDef*%
%ADD28RoundRect,0.160000X0.197500X0.160000X-0.197500X0.160000X-0.197500X-0.160000X0.197500X-0.160000X0*%
%TD*%
%TA.AperFunction,SMDPad,CuDef*%
%ADD29RoundRect,0.250000X-1.000000X-0.650000X1.000000X-0.650000X1.000000X0.650000X-1.000000X0.650000X0*%
%TD*%
%TA.AperFunction,SMDPad,CuDef*%
%ADD30RoundRect,0.250000X-1.050000X-0.550000X1.050000X-0.550000X1.050000X0.550000X-1.050000X0.550000X0*%
%TD*%
%TA.AperFunction,SMDPad,CuDef*%
%ADD31RoundRect,0.125000X-0.125000X0.825000X-0.125000X-0.825000X0.125000X-0.825000X0.125000X0.825000X0*%
%TD*%
%TA.AperFunction,SMDPad,CuDef*%
%ADD32RoundRect,0.155000X-0.155000X0.212500X-0.155000X-0.212500X0.155000X-0.212500X0.155000X0.212500X0*%
%TD*%
%TA.AperFunction,SMDPad,CuDef*%
%ADD33RoundRect,0.125000X0.125000X-0.825000X0.125000X0.825000X-0.125000X0.825000X-0.125000X-0.825000X0*%
%TD*%
%TA.AperFunction,SMDPad,CuDef*%
%ADD34RoundRect,0.237500X0.237500X-0.250000X0.237500X0.250000X-0.237500X0.250000X-0.237500X-0.250000X0*%
%TD*%
%TA.AperFunction,ViaPad*%
%ADD35C,0.500000*%
%TD*%
%TA.AperFunction,Conductor*%
%ADD36C,0.170000*%
%TD*%
%TA.AperFunction,Conductor*%
%ADD37C,0.500000*%
%TD*%
%TA.AperFunction,Conductor*%
%ADD38C,0.300000*%
%TD*%
G04 APERTURE END LIST*
D10*
%TO.P,U4,1*%
%TO.N,Net-(R4-Pad1)*%
X31735000Y21072000D03*
D11*
%TO.P,U4,2*%
%TO.N,GND*%
X29195000Y21072000D03*
%TO.P,U4,3,NC*%
%TO.N,unconnected-(U4-NC-Pad3)*%
X26655000Y21072000D03*
%TO.P,U4,4*%
%TO.N,Net-(D5-G)*%
X26655000Y13452000D03*
%TO.P,U4,5,NC*%
%TO.N,unconnected-(U4-NC-Pad5)*%
X29195000Y13452000D03*
%TO.P,U4,6*%
%TO.N,Net-(R5-Pad1)*%
X31735000Y13452000D03*
%TD*%
D12*
%TO.P,RV1,1*%
%TO.N,NEUT*%
X24638000Y1778000D03*
%TO.P,RV1,2*%
%TO.N,LINE*%
X26638000Y6778000D03*
%TD*%
D13*
%TO.P,J6,1,Pin_1*%
%TO.N,Net-(J6-Pin_1)*%
X36830000Y81026000D03*
D14*
%TO.P,J6,2,Pin_2*%
%TO.N,Net-(J6-Pin_2)*%
X36830000Y78526000D03*
%TO.P,J6,3,Pin_3*%
%TO.N,Net-(J6-Pin_3)*%
X36830000Y76026000D03*
%TO.P,J6,4,Pin_4*%
%TO.N,Net-(J6-Pin_4)*%
X36830000Y73526000D03*
%TD*%
D15*
%TO.P,J3,1,Pin_1*%
%TO.N,/LIVE*%
X3302000Y3556000D03*
D16*
%TO.P,J3,2,Pin_2*%
%TO.N,NEUT*%
X8382000Y3556000D03*
%TD*%
D15*
%TO.P,J4,1,Pin_1*%
%TO.N,NEUT*%
X31750000Y3556000D03*
D16*
%TO.P,J4,2,Pin_2*%
%TO.N,Net-(D5-A1)*%
X36830000Y3556000D03*
%TD*%
D13*
%TO.P,J5,1,Pin_1*%
%TO.N,Net-(J5-Pin_1)*%
X36830000Y94702000D03*
D14*
%TO.P,J5,2,Pin_2*%
%TO.N,Net-(J5-Pin_2)*%
X36830000Y92202000D03*
%TO.P,J5,3,Pin_3*%
%TO.N,Net-(J5-Pin_3)*%
X36830000Y89702000D03*
%TO.P,J5,4,Pin_4*%
%TO.N,Net-(J5-Pin_4)*%
X36830000Y87202000D03*
%TD*%
D10*
%TO.P,U3,1*%
%TO.N,Net-(D2-K)*%
X9134000Y17013000D03*
D11*
%TO.P,U3,2*%
%TO.N,Net-(D1-K)*%
X9134000Y19553000D03*
%TO.P,U3,3*%
%TO.N,/ZERO_CROSS*%
X1514000Y19553000D03*
%TO.P,U3,4*%
%TO.N,+3V3*%
X1514000Y17013000D03*
%TD*%
D10*
%TO.P,J7,1,Pin_1*%
%TO.N,+3V3*%
X37846000Y66070000D03*
D11*
%TO.P,J7,2,Pin_2*%
%TO.N,/DHT_SDA*%
X37846000Y63530000D03*
%TO.P,J7,3,Pin_3*%
%TO.N,GND*%
X37846000Y60990000D03*
%TO.P,J7,4,Pin_4*%
%TO.N,/DHT_SCL*%
X37846000Y58450000D03*
%TD*%
D17*
%TO.P,F1,1*%
%TO.N,LINE*%
X22188000Y11938000D03*
X17588000Y11938000D03*
D18*
%TO.P,F1,2*%
%TO.N,/LIVE*%
X6288000Y11938000D03*
X1688000Y11938000D03*
%TD*%
D19*
%TO.P,PS1,1,AC/L*%
%TO.N,LINE*%
X36830000Y31750000D03*
D20*
%TO.P,PS1,2,AC/N*%
%TO.N,NEUT*%
X36830000Y37750000D03*
%TO.P,PS1,3,-Vout*%
%TO.N,GND*%
X3230000Y25750000D03*
%TO.P,PS1,4,+Vout*%
%TO.N,+3V3*%
X3230000Y43750000D03*
%TD*%
D21*
%TO.P,D5,1,A1*%
%TO.N,Net-(D5-A1)*%
X38029000Y11938000D03*
D22*
%TO.P,D5,2,A2*%
%TO.N,LINE*%
X38029000Y14478000D03*
%TO.P,D5,3,G*%
%TO.N,Net-(D5-G)*%
X38029000Y17018000D03*
%TD*%
D23*
%TO.P,J8,1,Pin_1*%
%TO.N,/MTDI*%
X11864000Y70806000D03*
D24*
%TO.P,J8,2,Pin_2*%
%TO.N,/MTCK*%
X11864000Y68266000D03*
%TO.P,J8,3,Pin_3*%
%TO.N,/MTMS*%
X11864000Y65726000D03*
%TO.P,J8,4,Pin_4*%
%TO.N,/MTDO*%
X11864000Y63186000D03*
%TO.P,J8,5,Pin_5*%
%TO.N,/EN*%
X11864000Y60646000D03*
%TO.P,J8,6,Pin_6*%
%TO.N,/BOOT*%
X11864000Y58106000D03*
%TO.P,J8,7,Pin_7*%
%TO.N,/TX0*%
X11864000Y55566000D03*
%TO.P,J8,8,Pin_8*%
%TO.N,/RX0*%
X11864000Y53026000D03*
%TO.P,J8,9,Pin_9*%
%TO.N,GND*%
X11864000Y50486000D03*
%TD*%
D25*
%TO.P,R8,1*%
%TO.N,Net-(U2-ISENSOR)*%
X30391500Y70336000D03*
%TO.P,R8,2*%
%TO.N,Net-(U2-BIAS)*%
X31586500Y70336000D03*
%TD*%
D26*
%TO.P,R5,1*%
%TO.N,Net-(R5-Pad1)*%
X29551500Y16936000D03*
%TO.P,R5,2*%
%TO.N,LINE*%
X35476500Y16936000D03*
%TD*%
D27*
%TO.P,C6,1*%
%TO.N,GND*%
X33339000Y69158500D03*
%TO.P,C6,2*%
%TO.N,+3V3*%
X33339000Y70293500D03*
%TD*%
%TO.P,C7,1*%
%TO.N,GND*%
X35089000Y69158500D03*
%TO.P,C7,2*%
%TO.N,+3V3*%
X35089000Y70293500D03*
%TD*%
D28*
%TO.P,R7,1*%
%TO.N,Net-(U1-ISENSOR)*%
X32661500Y94486000D03*
%TO.P,R7,2*%
%TO.N,Net-(U1-BIAS)*%
X31466500Y94486000D03*
%TD*%
D29*
%TO.P,D4,1,K*%
%TO.N,Net-(D3-K)*%
X12224000Y16002000D03*
%TO.P,D4,2,A*%
%TO.N,Net-(D2-K)*%
X16224000Y16002000D03*
%TD*%
D30*
%TO.P,C2,1*%
%TO.N,+3V3*%
X3280000Y38362000D03*
%TO.P,C2,2*%
%TO.N,GND*%
X6880000Y38362000D03*
%TD*%
D29*
%TO.P,D3,1,K*%
%TO.N,Net-(D3-K)*%
X12224000Y20320000D03*
%TO.P,D3,2,A*%
%TO.N,Net-(D1-K)*%
X16224000Y20320000D03*
%TD*%
D31*
%TO.P,U1,1,~{DRDY}*%
%TO.N,/TEMP1_RDY*%
X28689000Y91636000D03*
%TO.P,U1,2,DVDD*%
%TO.N,+3V3*%
X29339000Y91636000D03*
%TO.P,U1,3,VDD*%
X29989000Y91636000D03*
%TO.P,U1,4,BIAS*%
%TO.N,Net-(U1-BIAS)*%
X30639000Y91636000D03*
%TO.P,U1,5,REFIN+*%
X31289000Y91636000D03*
%TO.P,U1,6,REFIN-*%
%TO.N,Net-(U1-ISENSOR)*%
X31939000Y91636000D03*
%TO.P,U1,7,ISENSOR*%
X32589000Y91636000D03*
%TO.P,U1,8,FORCE+*%
%TO.N,Net-(J5-Pin_1)*%
X33239000Y91636000D03*
%TO.P,U1,9,FORCE2*%
%TO.N,GND*%
X33889000Y91636000D03*
%TO.P,U1,10,RTDIN+*%
%TO.N,Net-(J5-Pin_2)*%
X34539000Y91636000D03*
%TO.P,U1,11,RTDIN-*%
%TO.N,Net-(J5-Pin_3)*%
X34539000Y84636000D03*
%TO.P,U1,12,FORCE-*%
%TO.N,Net-(J5-Pin_4)*%
X33889000Y84636000D03*
%TO.P,U1,13,GND*%
%TO.N,GND*%
X33239000Y84636000D03*
%TO.P,U1,14,SDI*%
%TO.N,/TEMP_DI*%
X32589000Y84636000D03*
%TO.P,U1,15,SCLK*%
%TO.N,/TEMP_CLK*%
X31939000Y84636000D03*
%TO.P,U1,16,~{CS}*%
%TO.N,/TEMP1_CS*%
X31289000Y84636000D03*
%TO.P,U1,17,SDO*%
%TO.N,/TEMP_DO*%
X30639000Y84636000D03*
%TO.P,U1,18,DGND*%
%TO.N,GND*%
X29989000Y84636000D03*
%TO.P,U1,19,GND*%
X29339000Y84636000D03*
%TO.P,U1,20,NC*%
%TO.N,unconnected-(U1-NC-Pad20)*%
X28689000Y84636000D03*
%TD*%
D32*
%TO.P,C4,1*%
%TO.N,GND*%
X27964000Y95653500D03*
%TO.P,C4,2*%
%TO.N,+3V3*%
X27964000Y94518500D03*
%TD*%
D23*
%TO.P,J1,1,Pin_1*%
%TO.N,+3V3*%
X25557000Y95748000D03*
D24*
%TO.P,J1,2,Pin_2*%
%TO.N,/EN*%
X25557000Y93208000D03*
%TO.P,J1,3,Pin_3*%
%TO.N,/LED_HEATER*%
X25557000Y90668000D03*
%TO.P,J1,4,Pin_4*%
%TO.N,/TEMP1_RDY*%
X25557000Y88128000D03*
%TO.P,J1,5,Pin_5*%
%TO.N,Net-(J1-Pin_5)*%
X25557000Y85588000D03*
%TO.P,J1,6,Pin_6*%
%TO.N,/TEMP1_CS*%
X25557000Y83048000D03*
%TO.P,J1,7,Pin_7*%
%TO.N,/TEMP_DI*%
X25557000Y80508000D03*
%TO.P,J1,8,Pin_8*%
%TO.N,/TEMP_DO*%
X25557000Y77968000D03*
%TO.P,J1,9,Pin_9*%
%TO.N,/TEMP2_CS*%
X25557000Y75428000D03*
%TO.P,J1,10,Pin_10*%
%TO.N,/TEMP2_RDY*%
X25557000Y72888000D03*
%TO.P,J1,11,Pin_11*%
%TO.N,unconnected-(J1-Pin_11-Pad11)*%
X25557000Y70348000D03*
%TO.P,J1,12,Pin_12*%
%TO.N,/MTMS*%
X25557000Y67808000D03*
%TO.P,J1,13,Pin_13*%
%TO.N,/MTDI*%
X25557000Y65268000D03*
%TO.P,J1,14,Pin_14*%
%TO.N,GND*%
X25557000Y62728000D03*
%TO.P,J1,15,Pin_15*%
%TO.N,/MTCK*%
X25557000Y60188000D03*
%TO.P,J1,16,Pin_16*%
%TO.N,/DHT_SDA*%
X25557000Y57648000D03*
%TO.P,J1,17,Pin_17*%
%TO.N,/DHT_SCL*%
X25557000Y55108000D03*
%TO.P,J1,18,Pin_18*%
%TO.N,unconnected-(J1-Pin_18-Pad18)*%
X25557000Y52568000D03*
%TO.P,J1,19,Pin_19*%
%TO.N,unconnected-(J1-Pin_19-Pad19)*%
X25557000Y50028000D03*
%TD*%
D33*
%TO.P,U2,1,~{DRDY}*%
%TO.N,/TEMP2_RDY*%
X34364000Y73186000D03*
%TO.P,U2,2,DVDD*%
%TO.N,+3V3*%
X33714000Y73186000D03*
%TO.P,U2,3,VDD*%
X33064000Y73186000D03*
%TO.P,U2,4,BIAS*%
%TO.N,Net-(U2-BIAS)*%
X32414000Y73186000D03*
%TO.P,U2,5,REFIN+*%
X31764000Y73186000D03*
%TO.P,U2,6,REFIN-*%
%TO.N,Net-(U2-ISENSOR)*%
X31114000Y73186000D03*
%TO.P,U2,7,ISENSOR*%
X30464000Y73186000D03*
%TO.P,U2,8,FORCE+*%
%TO.N,Net-(J6-Pin_1)*%
X29814000Y73186000D03*
%TO.P,U2,9,FORCE2*%
%TO.N,GND*%
X29164000Y73186000D03*
%TO.P,U2,10,RTDIN+*%
%TO.N,Net-(J6-Pin_2)*%
X28514000Y73186000D03*
%TO.P,U2,11,RTDIN-*%
%TO.N,Net-(J6-Pin_3)*%
X28514000Y80186000D03*
%TO.P,U2,12,FORCE-*%
%TO.N,Net-(J6-Pin_4)*%
X29164000Y80186000D03*
%TO.P,U2,13,GND*%
%TO.N,GND*%
X29814000Y80186000D03*
%TO.P,U2,14,SDI*%
%TO.N,/TEMP_DI*%
X30464000Y80186000D03*
%TO.P,U2,15,SCLK*%
%TO.N,/TEMP_CLK*%
X31114000Y80186000D03*
%TO.P,U2,16,~{CS}*%
%TO.N,/TEMP2_CS*%
X31764000Y80186000D03*
%TO.P,U2,17,SDO*%
%TO.N,/TEMP_DO*%
X32414000Y80186000D03*
%TO.P,U2,18,DGND*%
%TO.N,GND*%
X33064000Y80186000D03*
%TO.P,U2,19,GND*%
X33714000Y80186000D03*
%TO.P,U2,20,NC*%
%TO.N,unconnected-(U2-NC-Pad20)*%
X34364000Y80186000D03*
%TD*%
D29*
%TO.P,D2,1,K*%
%TO.N,Net-(D2-K)*%
X19844000Y16002000D03*
%TO.P,D2,2,A*%
%TO.N,Net-(D1-A)*%
X23844000Y16002000D03*
%TD*%
D23*
%TO.P,J2,1,Pin_1*%
%TO.N,GND*%
X2057000Y95748000D03*
D24*
%TO.P,J2,2,Pin_2*%
%TO.N,unconnected-(J2-Pin_2-Pad2)*%
X2057000Y93208000D03*
%TO.P,J2,3,Pin_3*%
%TO.N,unconnected-(J2-Pin_3-Pad3)*%
X2057000Y90668000D03*
%TO.P,J2,4,Pin_4*%
%TO.N,/TX0*%
X2057000Y88128000D03*
%TO.P,J2,5,Pin_5*%
%TO.N,/RX0*%
X2057000Y85588000D03*
%TO.P,J2,6,Pin_6*%
%TO.N,unconnected-(J2-Pin_6-Pad6)*%
X2057000Y83048000D03*
%TO.P,J2,7,Pin_7*%
%TO.N,GND*%
X2057000Y80508000D03*
%TO.P,J2,8,Pin_8*%
%TO.N,unconnected-(J2-Pin_8-Pad8)*%
X2057000Y77968000D03*
%TO.P,J2,9,Pin_9*%
%TO.N,unconnected-(J2-Pin_9-Pad9)*%
X2057000Y75428000D03*
%TO.P,J2,10,Pin_10*%
%TO.N,unconnected-(J2-Pin_10-Pad10)*%
X2057000Y72888000D03*
%TO.P,J2,11,Pin_11*%
%TO.N,unconnected-(J2-Pin_11-Pad11)*%
X2057000Y70348000D03*
%TO.P,J2,12,Pin_12*%
%TO.N,unconnected-(J2-Pin_12-Pad12)*%
X2057000Y67808000D03*
%TO.P,J2,13,Pin_13*%
%TO.N,unconnected-(J2-Pin_13-Pad13)*%
X2057000Y65268000D03*
%TO.P,J2,14,Pin_14*%
%TO.N,/BOOT*%
X2057000Y62728000D03*
%TO.P,J2,15,Pin_15*%
%TO.N,unconnected-(J2-Pin_15-Pad15)*%
X2057000Y60188000D03*
%TO.P,J2,16,Pin_16*%
%TO.N,/MTDO*%
X2057000Y57648000D03*
%TO.P,J2,17,Pin_17*%
%TO.N,unconnected-(J2-Pin_17-Pad17)*%
X2057000Y55108000D03*
%TO.P,J2,18,Pin_18*%
%TO.N,/ZERO_CROSS*%
X2057000Y52568000D03*
%TO.P,J2,19,Pin_19*%
%TO.N,/HEATER_CTRL*%
X2057000Y50028000D03*
%TD*%
D34*
%TO.P,R2,1*%
%TO.N,NEUT*%
X14224000Y11533500D03*
%TO.P,R2,2*%
%TO.N,Net-(D3-K)*%
X14224000Y13358500D03*
%TD*%
D30*
%TO.P,C1,1*%
%TO.N,+3V3*%
X3280000Y32512000D03*
%TO.P,C1,2*%
%TO.N,GND*%
X6880000Y32512000D03*
%TD*%
D32*
%TO.P,C3,1*%
%TO.N,GND*%
X29714000Y95653500D03*
%TO.P,C3,2*%
%TO.N,+3V3*%
X29714000Y94518500D03*
%TD*%
D29*
%TO.P,D1,1,K*%
%TO.N,Net-(D1-K)*%
X19844000Y20320000D03*
%TO.P,D1,2,A*%
%TO.N,Net-(D1-A)*%
X23844000Y20320000D03*
%TD*%
D28*
%TO.P,R3,1*%
%TO.N,GND*%
X3645500Y22098000D03*
%TO.P,R3,2*%
%TO.N,/ZERO_CROSS*%
X2450500Y22098000D03*
%TD*%
D35*
%TO.N,GND*%
X29114000Y96686000D03*
X35714000Y52386000D03*
X30614000Y96686000D03*
X20814000Y45457430D03*
X7714000Y77156000D03*
X6514000Y35571716D03*
X7714000Y89856000D03*
X18014000Y79646000D03*
X22714000Y79646000D03*
X13214000Y82226000D03*
X7714000Y92396000D03*
X35264000Y50386000D03*
X18364000Y62056000D03*
X22714000Y87266000D03*
X18014000Y82186000D03*
X18014000Y84726000D03*
X29664000Y83336000D03*
X37664000Y84386000D03*
X18364000Y59516000D03*
X3914000Y74616000D03*
X13714000Y45436000D03*
X6514000Y45457430D03*
X33814000Y88536000D03*
X7714000Y69536000D03*
X13214000Y87306000D03*
X20814000Y25686000D03*
X13214000Y84766000D03*
X3914000Y72076000D03*
X13664000Y25686000D03*
X35964000Y83336000D03*
X29564000Y50386000D03*
X7714000Y82236000D03*
X4614000Y94936000D03*
X7714000Y72076000D03*
X30014000Y52386000D03*
X3914000Y69536000D03*
X34614000Y78486000D03*
X13664000Y35571716D03*
X4614000Y92396000D03*
X7714000Y84776000D03*
X27714000Y84286000D03*
X4614000Y89856000D03*
X13214000Y79686000D03*
X18014000Y87266000D03*
X27414000Y80936000D03*
X29064000Y70236000D03*
X22714000Y82186000D03*
X7714000Y94936000D03*
X22714000Y84726000D03*
X7714000Y87316000D03*
X4614000Y87316000D03*
X6514000Y25686000D03*
X3914000Y77156000D03*
X18364000Y56976000D03*
X7714000Y74616000D03*
X20814000Y35571716D03*
X18364000Y54436000D03*
%TO.N,Net-(D1-A)*%
X24384000Y17780000D03*
%TO.N,Net-(D5-A1)*%
X37084000Y8636000D03*
X38608000Y10160000D03*
X35052000Y6686000D03*
X38100000Y7702000D03*
X36576000Y6686000D03*
X36576000Y7702000D03*
X37084000Y10160000D03*
X38608000Y8636000D03*
X37846000Y10160000D03*
X38100000Y6686000D03*
X35052000Y7702000D03*
%TO.N,/ZERO_CROSS*%
X964000Y23586000D03*
%TO.N,/TEMP_CLK*%
X31864000Y82536000D03*
%TO.N,/TEMP_DO*%
X32864000Y82536000D03*
X30664000Y83036000D03*
%TO.N,/TEMP2_CS*%
X31764000Y78836000D03*
%TO.N,/TEMP2_RDY*%
X35114000Y71686000D03*
%TD*%
D36*
%TO.N,+3V3*%
X35089000Y70861001D02*
X35089000Y70293500D01*
X4465000Y19964000D02*
X1514000Y17013000D01*
X27964000Y94486000D02*
X29339000Y93111000D01*
D37*
X37714000Y97286000D02*
X39214000Y95786000D01*
D36*
X3280000Y32512000D02*
X4465000Y31327000D01*
D37*
X26786500Y94518500D02*
X27964000Y94518500D01*
D36*
X33339000Y70293500D02*
X33339000Y71261000D01*
D37*
X3230000Y43750000D02*
X514000Y46466000D01*
X1295000Y97486000D02*
X23819000Y97486000D01*
D36*
X29989000Y93411000D02*
X29989000Y91636000D01*
D37*
X3280000Y32512000D02*
X3280000Y38362000D01*
D36*
X29714000Y94518500D02*
X29714000Y93686000D01*
X33339000Y71261000D02*
X33064000Y71536000D01*
D37*
X514000Y46466000D02*
X514000Y96705000D01*
D36*
X29714000Y93686000D02*
X29989000Y93411000D01*
D37*
X39214000Y95786000D02*
X39214000Y67438000D01*
D36*
X33714000Y73186000D02*
X33714000Y72236001D01*
D37*
X32791500Y97286000D02*
X37714000Y97286000D01*
D36*
X33064000Y71536000D02*
X33064000Y73186000D01*
D37*
X37846000Y67846500D02*
X35399000Y70293500D01*
D36*
X29339000Y93111000D02*
X29339000Y91636000D01*
D37*
X37846000Y66070000D02*
X37846000Y67846500D01*
D36*
X27964000Y94518500D02*
X27964000Y94486000D01*
D37*
X27964000Y94518500D02*
X29714000Y94518500D01*
X25557000Y95748000D02*
X26786500Y94518500D01*
X35089000Y70293500D02*
X33339000Y70293500D01*
X30024000Y94518500D02*
X32791500Y97286000D01*
D36*
X4465000Y31327000D02*
X4465000Y19964000D01*
D37*
X3280000Y38362000D02*
X3280000Y43700000D01*
X29714000Y94518500D02*
X30024000Y94518500D01*
X39214000Y67438000D02*
X37846000Y66070000D01*
X35399000Y70293500D02*
X35089000Y70293500D01*
D36*
X33714000Y72236001D02*
X35089000Y70861001D01*
D37*
X514000Y96705000D02*
X1295000Y97486000D01*
X3280000Y43700000D02*
X3230000Y43750000D01*
X23819000Y97486000D02*
X25557000Y95748000D01*
D36*
%TO.N,GND*%
X29578999Y81371000D02*
X27849000Y81371000D01*
X33239000Y84636000D02*
X33239000Y87961000D01*
X27849000Y81371000D02*
X27414000Y80936000D01*
X29164000Y70336000D02*
X29164000Y73186000D01*
X29814000Y80186000D02*
X29814000Y81135999D01*
X29814000Y81135999D02*
X29578999Y81371000D01*
X33239000Y87961000D02*
X33814000Y88536000D01*
X29064000Y70236000D02*
X29164000Y70336000D01*
X33889000Y88611000D02*
X33814000Y88536000D01*
X33889000Y91636000D02*
X33889000Y88611000D01*
%TO.N,Net-(J5-Pin_3)*%
X38040000Y88492000D02*
X36830000Y89702000D01*
X38040000Y86752578D02*
X38040000Y88492000D01*
X35923422Y84636000D02*
X38040000Y86752578D01*
X34539000Y84636000D02*
X35923422Y84636000D01*
%TO.N,Net-(J5-Pin_2)*%
X34539000Y91636000D02*
X35105000Y92202000D01*
X35105000Y92202000D02*
X36830000Y92202000D01*
%TO.N,Net-(J6-Pin_3)*%
X28514000Y80186000D02*
X28514000Y79236001D01*
X28514000Y79236001D02*
X31724001Y76026000D01*
X31724001Y76026000D02*
X36830000Y76026000D01*
%TO.N,Net-(J6-Pin_2)*%
X28514000Y73998582D02*
X29364692Y74849274D01*
X34746148Y74849274D02*
X35620000Y73975422D01*
X28514000Y73186000D02*
X28514000Y73998582D01*
X36255578Y72441000D02*
X37404422Y72441000D01*
X35620000Y73076578D02*
X36255578Y72441000D01*
X38364000Y76992000D02*
X36830000Y78526000D01*
X37404422Y72441000D02*
X38364000Y73400578D01*
X29364692Y74849274D02*
X34746148Y74849274D01*
X38364000Y73400578D02*
X38364000Y76992000D01*
X35620000Y73975422D02*
X35620000Y73076578D01*
%TO.N,Net-(D1-K)*%
X16224000Y20320000D02*
X16224000Y19780000D01*
X16224000Y19780000D02*
X15429000Y18985000D01*
X15429000Y18985000D02*
X9702000Y18985000D01*
X19844000Y20320000D02*
X16224000Y20320000D01*
X9702000Y18985000D02*
X9134000Y19553000D01*
%TO.N,Net-(D1-A)*%
X23844000Y16002000D02*
X23844000Y17240000D01*
X23844000Y17240000D02*
X24384000Y17780000D01*
X23844000Y18320000D02*
X24384000Y17780000D01*
X23844000Y20320000D02*
X23844000Y18320000D01*
%TO.N,Net-(D2-K)*%
X19844000Y16002000D02*
X16224000Y16002000D01*
X16224000Y16002000D02*
X14889000Y17337000D01*
X9458000Y17337000D02*
X9134000Y17013000D01*
X14889000Y17337000D02*
X9458000Y17337000D01*
%TO.N,Net-(D3-K)*%
X11208000Y14986000D02*
X12224000Y16002000D01*
X7899000Y16032816D02*
X8945816Y14986000D01*
X12224000Y16002000D02*
X12224000Y15043500D01*
X7899000Y20091000D02*
X7899000Y16032816D01*
X12224000Y15043500D02*
X14224000Y13043500D01*
X8596000Y20788000D02*
X7899000Y20091000D01*
X8945816Y14986000D02*
X11208000Y14986000D01*
X11756000Y20788000D02*
X8596000Y20788000D01*
X12224000Y20320000D02*
X11756000Y20788000D01*
D38*
%TO.N,LINE*%
X35788600Y30708600D02*
X36830000Y31750000D01*
X38029000Y14478000D02*
X35788600Y16718400D01*
X35788600Y16718400D02*
X35788600Y30708600D01*
D36*
%TO.N,NEUT*%
X13626500Y11848500D02*
X8382000Y6604000D01*
X14224000Y11848500D02*
X13626500Y11848500D01*
X8382000Y6604000D02*
X8382000Y3556000D01*
%TO.N,/ZERO_CROSS*%
X964000Y23586000D02*
X962500Y23586000D01*
X962500Y23586000D02*
X972000Y23576500D01*
X1514000Y21161500D02*
X2450500Y22098000D01*
X1514000Y19553000D02*
X1514000Y21161500D01*
X2450500Y22098000D02*
X964000Y23584500D01*
X964000Y23584500D02*
X964000Y23586000D01*
%TO.N,/MTMS*%
X23475000Y65726000D02*
X25557000Y67808000D01*
X11864000Y65726000D02*
X23475000Y65726000D01*
%TO.N,/DHT_SCL*%
X30436000Y55108000D02*
X33778000Y58450000D01*
X25557000Y55108000D02*
X30436000Y55108000D01*
X33778000Y58450000D02*
X37846000Y58450000D01*
%TO.N,/DHT_SDA*%
X30226000Y57648000D02*
X36108000Y63530000D01*
X36108000Y63530000D02*
X37846000Y63530000D01*
X25557000Y57648000D02*
X30226000Y57648000D01*
%TO.N,/MTDO*%
X6326000Y57648000D02*
X2057000Y57648000D01*
X11864000Y63186000D02*
X6326000Y57648000D01*
%TO.N,Net-(J5-Pin_1)*%
X35355001Y94702000D02*
X36830000Y94702000D01*
X33239000Y91636000D02*
X33239000Y92585999D01*
X33239000Y92585999D02*
X35355001Y94702000D01*
%TO.N,Net-(J5-Pin_4)*%
X33889000Y84636000D02*
X33889000Y85585999D01*
X33889000Y85585999D02*
X35505001Y87202000D01*
X35505001Y87202000D02*
X36830000Y87202000D01*
%TO.N,Net-(J6-Pin_1)*%
X38684000Y73268030D02*
X37536970Y72121000D01*
X34771874Y74371000D02*
X30186418Y74371000D01*
X35300000Y72944030D02*
X35300000Y73842874D01*
X30186418Y74371000D02*
X29814000Y73998582D01*
X36123030Y72121000D02*
X35300000Y72944030D01*
X35300000Y73842874D02*
X34771874Y74371000D01*
X29814000Y73998582D02*
X29814000Y73186000D01*
X36830000Y81026000D02*
X38684000Y79172000D01*
X38684000Y79172000D02*
X38684000Y73268030D01*
X37536970Y72121000D02*
X36123030Y72121000D01*
%TO.N,Net-(J6-Pin_4)*%
X31289001Y77111000D02*
X37404422Y77111000D01*
X29164000Y79236001D02*
X31289001Y77111000D01*
X29164000Y80186000D02*
X29164000Y79236001D01*
X38040000Y76475422D02*
X38040000Y74736000D01*
X37404422Y77111000D02*
X38040000Y76475422D01*
X38040000Y74736000D02*
X36830000Y73526000D01*
%TO.N,Net-(R5-Pad1)*%
X31735000Y14752500D02*
X31735000Y13452000D01*
X29551500Y16936000D02*
X31735000Y14752500D01*
%TO.N,Net-(U1-ISENSOR)*%
X32661500Y94486000D02*
X32661500Y94033500D01*
X32589000Y91636000D02*
X32589000Y93961000D01*
X31939000Y93311000D02*
X31939000Y91636000D01*
X32661500Y94033500D02*
X31939000Y93311000D01*
X32589000Y93961000D02*
X32661500Y94033500D01*
%TO.N,Net-(U1-BIAS)*%
X30639000Y93211000D02*
X30639000Y91636000D01*
X31289000Y91636000D02*
X31289000Y93861000D01*
X31466500Y94038500D02*
X31289000Y93861000D01*
X31289000Y93861000D02*
X30639000Y93211000D01*
X31466500Y94486000D02*
X31466500Y94038500D01*
%TO.N,Net-(U2-ISENSOR)*%
X31114000Y71736000D02*
X31114000Y73186000D01*
X30391500Y70336000D02*
X30391500Y73113500D01*
X30391500Y71013500D02*
X31114000Y71736000D01*
X30391500Y70336000D02*
X30391500Y71013500D01*
X30391500Y73113500D02*
X30464000Y73186000D01*
%TO.N,Net-(U2-BIAS)*%
X31764000Y73186000D02*
X31764000Y71236000D01*
X31586500Y70336000D02*
X31586500Y71058500D01*
X32414000Y71886000D02*
X32414000Y73186000D01*
X31586500Y71058500D02*
X32414000Y71886000D01*
X31764000Y71236000D02*
X31586500Y71058500D01*
%TO.N,/TEMP_DI*%
X25557000Y80508000D02*
X26785000Y81736000D01*
X24472000Y86037422D02*
X25107578Y86673000D01*
X24472000Y81593000D02*
X24472000Y86037422D01*
X25107578Y86673000D02*
X31727000Y86673000D01*
X31727000Y86673000D02*
X32589000Y85811000D01*
X29863999Y81736000D02*
X30464000Y81135999D01*
X32589000Y85811000D02*
X32589000Y84636000D01*
X25557000Y80508000D02*
X24472000Y81593000D01*
X30464000Y81135999D02*
X30464000Y80186000D01*
X26785000Y81736000D02*
X29863999Y81736000D01*
%TO.N,/TEMP_CLK*%
X31939000Y82611000D02*
X31939000Y84636000D01*
X31864000Y82536000D02*
X31864000Y82386000D01*
X31864000Y82386000D02*
X31114000Y81636000D01*
X31864000Y82536000D02*
X31939000Y82611000D01*
X31114000Y81636000D02*
X31114000Y80186000D01*
%TO.N,/TEMP1_CS*%
X28330000Y85821000D02*
X31029000Y85821000D01*
X25557000Y83048000D02*
X28330000Y85821000D01*
X31029000Y85821000D02*
X31289000Y85561000D01*
X31289000Y85561000D02*
X31289000Y84636000D01*
%TO.N,/TEMP_DO*%
X30639000Y84636000D02*
X30639000Y83061000D01*
X30639000Y83061000D02*
X30664000Y83036000D01*
X32864000Y82536000D02*
X32414000Y82086000D01*
X32414000Y82086000D02*
X32414000Y80186000D01*
%TO.N,/TEMP1_RDY*%
X25557000Y88504000D02*
X25557000Y88128000D01*
X28689000Y91636000D02*
X25557000Y88504000D01*
%TO.N,/TEMP2_CS*%
X31764000Y78836000D02*
X31764000Y80186000D01*
%TO.N,/TEMP2_RDY*%
X35114000Y72436000D02*
X35114000Y71686000D01*
X34364000Y73186000D02*
X35114000Y72436000D01*
%TO.N,/RX0*%
X11714000Y64286000D02*
X9564000Y66436000D01*
X11864000Y53026000D02*
X12949000Y54111000D01*
X9564000Y66436000D02*
X9564000Y78081000D01*
X12298422Y64286000D02*
X11714000Y64286000D01*
X12949000Y54111000D02*
X12949000Y63635422D01*
X9564000Y78081000D02*
X2057000Y85588000D01*
X12949000Y63635422D02*
X12298422Y64286000D01*
%TD*%
%TA.AperFunction,Conductor*%
%TO.N,LINE*%
G36*
X37300033Y15734485D02*
G01*
X37423744Y15671451D01*
X37641251Y15600779D01*
X37641252Y15600779D01*
X37641255Y15600778D01*
X37867146Y15565000D01*
X37867147Y15565000D01*
X38190853Y15565000D01*
X38190854Y15565000D01*
X38416745Y15600778D01*
X38416748Y15600779D01*
X38416749Y15600779D01*
X38634255Y15671451D01*
X38634255Y15671452D01*
X38634258Y15671452D01*
X38757967Y15734486D01*
X38814262Y15748000D01*
X39754000Y15748000D01*
X39821039Y15728315D01*
X39866794Y15675511D01*
X39878000Y15624000D01*
X39878000Y13586000D01*
X39858315Y13518961D01*
X39805511Y13473206D01*
X39754000Y13462000D01*
X36322000Y13462000D01*
X36322000Y9522000D01*
X36302315Y9454961D01*
X36249511Y9409206D01*
X36198000Y9398000D01*
X27686000Y9398000D01*
X27686000Y5204000D01*
X27666315Y5136961D01*
X27613511Y5091206D01*
X27562000Y5080000D01*
X19174000Y5080000D01*
X19106961Y5099685D01*
X19061206Y5152489D01*
X19050000Y5204000D01*
X19050000Y9144000D01*
X15872000Y9144000D01*
X15804961Y9163685D01*
X15759206Y9216489D01*
X15748000Y9268000D01*
X15748000Y13592000D01*
X15767685Y13659039D01*
X15820489Y13704794D01*
X15872000Y13716000D01*
X23498000Y13716000D01*
X23565039Y13696315D01*
X23610794Y13643511D01*
X23622000Y13592000D01*
X23622000Y12700000D01*
X25022000Y12700000D01*
X25089039Y12680315D01*
X25134794Y12627511D01*
X25146000Y12576000D01*
X25146000Y11938000D01*
X34290000Y11938000D01*
X34290000Y15624000D01*
X34309685Y15691039D01*
X34362489Y15736794D01*
X34414000Y15748000D01*
X37243738Y15748000D01*
X37300033Y15734485D01*
G37*
%TD.AperFunction*%
%TD*%
%TA.AperFunction,Conductor*%
%TO.N,/LIVE*%
G36*
X8071039Y13696315D02*
G01*
X8116794Y13643511D01*
X8128000Y13592000D01*
X8128000Y9268000D01*
X8108315Y9200961D01*
X8055511Y9155206D01*
X8004000Y9144000D01*
X5334000Y9144000D01*
X5334000Y378000D01*
X5314315Y310961D01*
X5261511Y265206D01*
X5210000Y254000D01*
X378000Y254000D01*
X310961Y273685D01*
X265206Y326489D01*
X254000Y378000D01*
X254000Y13592000D01*
X273685Y13659039D01*
X326489Y13704794D01*
X378000Y13716000D01*
X8004000Y13716000D01*
X8071039Y13696315D01*
G37*
%TD.AperFunction*%
%TD*%
%TA.AperFunction,Conductor*%
%TO.N,NEUT*%
G36*
X33471039Y8616315D02*
G01*
X33516794Y8563511D01*
X33528000Y8512000D01*
X33528000Y378000D01*
X33508315Y310961D01*
X33455511Y265206D01*
X33404000Y254000D01*
X6474000Y254000D01*
X6406961Y273685D01*
X6361206Y326489D01*
X6350000Y378000D01*
X6350000Y6226000D01*
X6369685Y6293039D01*
X6422489Y6338794D01*
X6474000Y6350000D01*
X11306000Y6350000D01*
X11373039Y6330315D01*
X11418794Y6277511D01*
X11430000Y6226000D01*
X11430000Y3810000D01*
X28702000Y3810000D01*
X28702000Y8512000D01*
X28721685Y8579039D01*
X28774489Y8624794D01*
X28826000Y8636000D01*
X33404000Y8636000D01*
X33471039Y8616315D01*
G37*
%TD.AperFunction*%
%TD*%
%TA.AperFunction,Conductor*%
%TO.N,Net-(D5-A1)*%
G36*
X39821039Y12934315D02*
G01*
X39866794Y12881511D01*
X39878000Y12830000D01*
X39878000Y124000D01*
X39858315Y56961D01*
X39805511Y11206D01*
X39754000Y0D01*
X34414000Y0D01*
X34346961Y19685D01*
X34301206Y72489D01*
X34290000Y124000D01*
X34290000Y8512000D01*
X34309685Y8579039D01*
X34362489Y8624794D01*
X34414000Y8636000D01*
X36830000Y8636000D01*
X36830000Y12830000D01*
X36849685Y12897039D01*
X36902489Y12942794D01*
X36954000Y12954000D01*
X39754000Y12954000D01*
X39821039Y12934315D01*
G37*
%TD.AperFunction*%
%TD*%
%TA.AperFunction,Conductor*%
%TO.N,GND*%
G36*
X27706539Y81130815D02*
G01*
X27752294Y81078011D01*
X27763500Y81026500D01*
X27763500Y79297850D01*
X27763501Y79297825D01*
X27766291Y79262373D01*
X27810380Y79110615D01*
X27810382Y79110610D01*
X27890827Y78974584D01*
X27890834Y78974575D01*
X28002574Y78862835D01*
X28002583Y78862828D01*
X28127544Y78788926D01*
X28152104Y78769875D01*
X31275524Y75646455D01*
X31309009Y75585132D01*
X31304025Y75515440D01*
X31262153Y75459507D01*
X31196689Y75435090D01*
X31187843Y75434774D01*
X29287609Y75434774D01*
X29173338Y75404155D01*
X29173337Y75404155D01*
X29138699Y75394875D01*
X29138698Y75394874D01*
X29005185Y75317790D01*
X28355322Y74667928D01*
X28296380Y74635744D01*
X28296458Y74635477D01*
X28295249Y74635126D01*
X28293999Y74634443D01*
X28290458Y74633735D01*
X28138614Y74589620D01*
X28138609Y74589618D01*
X28002583Y74509173D01*
X28002574Y74509166D01*
X27890834Y74397426D01*
X27890827Y74397417D01*
X27810382Y74261391D01*
X27810380Y74261386D01*
X27766292Y74109634D01*
X27766290Y74109621D01*
X27763500Y74074171D01*
X27763500Y72297850D01*
X27763501Y72297825D01*
X27766291Y72262373D01*
X27810380Y72110615D01*
X27810382Y72110610D01*
X27890827Y71974584D01*
X27890834Y71974575D01*
X28002574Y71862835D01*
X28002578Y71862832D01*
X28002580Y71862830D01*
X28138610Y71782382D01*
X28290373Y71738291D01*
X28325837Y71735500D01*
X28702162Y71735501D01*
X28737627Y71738291D01*
X28889390Y71782382D01*
X29025420Y71862830D01*
X29025425Y71862835D01*
X29076319Y71913728D01*
X29137642Y71947213D01*
X29207334Y71942229D01*
X29251681Y71913728D01*
X29302574Y71862835D01*
X29302578Y71862832D01*
X29302580Y71862830D01*
X29438610Y71782382D01*
X29590373Y71738291D01*
X29625837Y71735500D01*
X29682000Y71735501D01*
X29749038Y71715818D01*
X29794793Y71663014D01*
X29806000Y71611501D01*
X29806000Y71093451D01*
X29786315Y71026412D01*
X29769682Y71005770D01*
X29670242Y70906330D01*
X29587267Y70769071D01*
X29587265Y70769067D01*
X29539548Y70615935D01*
X29533500Y70549379D01*
X29533500Y70122612D01*
X29539546Y70056074D01*
X29539548Y70056067D01*
X29587265Y69902934D01*
X29587267Y69902930D01*
X29670242Y69765671D01*
X29670246Y69765666D01*
X29783665Y69652247D01*
X29783670Y69652243D01*
X29920929Y69569268D01*
X29920933Y69569266D01*
X29975100Y69552388D01*
X30074067Y69521548D01*
X30140619Y69515500D01*
X30642380Y69515501D01*
X30642388Y69515501D01*
X30708926Y69521547D01*
X30708927Y69521548D01*
X30708933Y69521548D01*
X30862069Y69569267D01*
X30924850Y69607221D01*
X30992405Y69625056D01*
X31053149Y69607221D01*
X31115931Y69569267D01*
X31115934Y69569266D01*
X31115933Y69569266D01*
X31170100Y69552388D01*
X31269067Y69521548D01*
X31335619Y69515500D01*
X31837380Y69515501D01*
X31837388Y69515501D01*
X31903926Y69521547D01*
X31903927Y69521548D01*
X31903933Y69521548D01*
X32057069Y69569267D01*
X32127717Y69611976D01*
X32194329Y69652243D01*
X32194330Y69652245D01*
X32194335Y69652247D01*
X32307753Y69765665D01*
X32354118Y69842364D01*
X32405644Y69889551D01*
X32474504Y69901390D01*
X32538833Y69874122D01*
X32572439Y69824859D01*
X32574530Y69825763D01*
X32577629Y69818602D01*
X32661934Y69676050D01*
X32661941Y69676041D01*
X32779040Y69558942D01*
X32779044Y69558939D01*
X32779046Y69558937D01*
X32921600Y69474630D01*
X32960977Y69463190D01*
X33080637Y69428425D01*
X33080640Y69428425D01*
X33080642Y69428424D01*
X33117797Y69425500D01*
X33560202Y69425501D01*
X33597358Y69428424D01*
X33756400Y69474630D01*
X33819932Y69512203D01*
X33842809Y69525732D01*
X33905930Y69543000D01*
X34522070Y69543000D01*
X34585191Y69525732D01*
X34671598Y69474631D01*
X34671600Y69474630D01*
X34671601Y69474630D01*
X34671603Y69474629D01*
X34830637Y69428425D01*
X34830640Y69428425D01*
X34830642Y69428424D01*
X34867797Y69425500D01*
X35154269Y69425501D01*
X35221308Y69405817D01*
X35241950Y69389182D01*
X37051884Y67579249D01*
X37085369Y67517926D01*
X37080385Y67448234D01*
X37038513Y67392301D01*
X36977459Y67368279D01*
X36938519Y67364093D01*
X36803671Y67313798D01*
X36803664Y67313794D01*
X36688455Y67227548D01*
X36688452Y67227545D01*
X36602206Y67112336D01*
X36602202Y67112329D01*
X36551908Y66977483D01*
X36545501Y66917884D01*
X36545500Y66917865D01*
X36545500Y65222130D01*
X36545501Y65222124D01*
X36551908Y65162517D01*
X36602202Y65027672D01*
X36602206Y65027665D01*
X36688452Y64912456D01*
X36688455Y64912453D01*
X36803664Y64826207D01*
X36803671Y64826203D01*
X36848618Y64809439D01*
X36938517Y64775909D01*
X36973596Y64772138D01*
X37038144Y64745401D01*
X37077993Y64688009D01*
X37080488Y64618184D01*
X37044836Y64558095D01*
X37031464Y64547275D01*
X37006858Y64530046D01*
X36845954Y64369142D01*
X36715430Y64182732D01*
X36712721Y64178039D01*
X36710592Y64179268D01*
X36671230Y64134617D01*
X36605083Y64115500D01*
X36030917Y64115500D01*
X35913473Y64084031D01*
X35913472Y64084032D01*
X35882009Y64075601D01*
X35882002Y64075598D01*
X35748498Y63998519D01*
X35748492Y63998515D01*
X30019797Y58269819D01*
X29958474Y58236334D01*
X29932116Y58233500D01*
X26853086Y58233500D01*
X26786047Y58253185D01*
X26740705Y58305094D01*
X26731038Y58325824D01*
X26731034Y58325831D01*
X26595494Y58519403D01*
X26428402Y58686494D01*
X26428396Y58686499D01*
X26242842Y58816425D01*
X26199217Y58871002D01*
X26192023Y58940500D01*
X26223546Y59002855D01*
X26242842Y59019575D01*
X26361602Y59102732D01*
X26428401Y59149505D01*
X26595495Y59316599D01*
X26731035Y59510170D01*
X26830903Y59724337D01*
X26892063Y59952592D01*
X26912659Y60188000D01*
X26892063Y60423408D01*
X26830903Y60651663D01*
X26731035Y60865829D01*
X26595495Y61059401D01*
X26595494Y61059403D01*
X26428402Y61226494D01*
X26428395Y61226499D01*
X26234834Y61362033D01*
X26234830Y61362035D01*
X26129820Y61411002D01*
X26020663Y61461903D01*
X26020659Y61461904D01*
X26020655Y61461906D01*
X25792413Y61523062D01*
X25792403Y61523064D01*
X25557001Y61543659D01*
X25556999Y61543659D01*
X25321596Y61523064D01*
X25321586Y61523062D01*
X25093344Y61461906D01*
X25093335Y61461902D01*
X24879171Y61362036D01*
X24879169Y61362035D01*
X24685597Y61226495D01*
X24518505Y61059403D01*
X24382965Y60865831D01*
X24382964Y60865829D01*
X24283098Y60651665D01*
X24283094Y60651656D01*
X24221938Y60423414D01*
X24221936Y60423404D01*
X24201341Y60188001D01*
X24201341Y60188000D01*
X24221936Y59952597D01*
X24221938Y59952587D01*
X24283094Y59724345D01*
X24283096Y59724341D01*
X24283097Y59724337D01*
X24337576Y59607507D01*
X24382965Y59510170D01*
X24382967Y59510166D01*
X24518501Y59316605D01*
X24518506Y59316598D01*
X24685597Y59149507D01*
X24685603Y59149502D01*
X24871158Y59019575D01*
X24914783Y58964998D01*
X24921977Y58895500D01*
X24890454Y58833145D01*
X24871158Y58816425D01*
X24685597Y58686495D01*
X24518505Y58519403D01*
X24382965Y58325831D01*
X24382964Y58325829D01*
X24283098Y58111665D01*
X24283094Y58111656D01*
X24221938Y57883414D01*
X24221936Y57883404D01*
X24201341Y57648001D01*
X24201341Y57648000D01*
X24221936Y57412597D01*
X24221938Y57412587D01*
X24283094Y57184345D01*
X24283096Y57184341D01*
X24283097Y57184337D01*
X24324550Y57095442D01*
X24382965Y56970170D01*
X24382967Y56970166D01*
X24518501Y56776605D01*
X24518506Y56776598D01*
X24685597Y56609507D01*
X24685603Y56609502D01*
X24871158Y56479575D01*
X24914783Y56424998D01*
X24921977Y56355500D01*
X24890454Y56293145D01*
X24871158Y56276425D01*
X24685597Y56146495D01*
X24518505Y55979403D01*
X24382965Y55785831D01*
X24382964Y55785829D01*
X24283098Y55571665D01*
X24283094Y55571656D01*
X24221938Y55343414D01*
X24221936Y55343404D01*
X24201341Y55108001D01*
X24201341Y55108000D01*
X24221936Y54872597D01*
X24221938Y54872587D01*
X24283094Y54644345D01*
X24283096Y54644341D01*
X24283097Y54644337D01*
X24324550Y54555442D01*
X24382965Y54430170D01*
X24382967Y54430166D01*
X24518501Y54236605D01*
X24518506Y54236598D01*
X24685597Y54069507D01*
X24685603Y54069502D01*
X24871158Y53939575D01*
X24914783Y53884998D01*
X24921977Y53815500D01*
X24890454Y53753145D01*
X24871158Y53736425D01*
X24685597Y53606495D01*
X24518505Y53439403D01*
X24382965Y53245831D01*
X24382964Y53245829D01*
X24283098Y53031665D01*
X24283094Y53031656D01*
X24221938Y52803414D01*
X24221936Y52803404D01*
X24201341Y52568001D01*
X24201341Y52568000D01*
X24221936Y52332597D01*
X24221938Y52332587D01*
X24283094Y52104345D01*
X24283096Y52104341D01*
X24283097Y52104337D01*
X24337576Y51987507D01*
X24382965Y51890170D01*
X24382967Y51890166D01*
X24518501Y51696605D01*
X24518506Y51696598D01*
X24685597Y51529507D01*
X24685603Y51529502D01*
X24871158Y51399575D01*
X24914783Y51344998D01*
X24921977Y51275500D01*
X24890454Y51213145D01*
X24871158Y51196425D01*
X24685597Y51066495D01*
X24518505Y50899403D01*
X24382965Y50705831D01*
X24382964Y50705829D01*
X24283098Y50491665D01*
X24283094Y50491656D01*
X24221938Y50263414D01*
X24221936Y50263404D01*
X24201341Y50028001D01*
X24201341Y50028000D01*
X24221936Y49792597D01*
X24221938Y49792587D01*
X24283094Y49564345D01*
X24283096Y49564341D01*
X24283097Y49564337D01*
X24382965Y49350170D01*
X24382967Y49350166D01*
X24491281Y49195479D01*
X24518505Y49156599D01*
X24685599Y48989505D01*
X24764500Y48934258D01*
X24879165Y48853968D01*
X24879167Y48853967D01*
X24879170Y48853965D01*
X25093337Y48754097D01*
X25321592Y48692937D01*
X25509918Y48676461D01*
X25556999Y48672341D01*
X25557000Y48672341D01*
X25557001Y48672341D01*
X25596234Y48675774D01*
X25792408Y48692937D01*
X26020663Y48754097D01*
X26234830Y48853965D01*
X26428401Y48989505D01*
X26595495Y49156599D01*
X26731035Y49350170D01*
X26830903Y49564337D01*
X26892063Y49792592D01*
X26912659Y50028000D01*
X26892063Y50263408D01*
X26830903Y50491663D01*
X26731035Y50705829D01*
X26595495Y50899401D01*
X26595494Y50899403D01*
X26428402Y51066494D01*
X26428396Y51066499D01*
X26242842Y51196425D01*
X26199217Y51251002D01*
X26192023Y51320500D01*
X26223546Y51382855D01*
X26242842Y51399575D01*
X26349500Y51474258D01*
X26428401Y51529505D01*
X26595495Y51696599D01*
X26731035Y51890170D01*
X26830903Y52104337D01*
X26892063Y52332592D01*
X26912659Y52568000D01*
X26892063Y52803408D01*
X26830903Y53031663D01*
X26731035Y53245829D01*
X26720130Y53261404D01*
X26595494Y53439403D01*
X26428402Y53606494D01*
X26428396Y53606499D01*
X26242842Y53736425D01*
X26199217Y53791002D01*
X26192023Y53860500D01*
X26223546Y53922855D01*
X26242842Y53939575D01*
X26377576Y54033917D01*
X26428401Y54069505D01*
X26595495Y54236599D01*
X26731035Y54430170D01*
X26736234Y54441321D01*
X26740705Y54450906D01*
X26786878Y54503345D01*
X26853086Y54522500D01*
X30513082Y54522500D01*
X30513083Y54522500D01*
X30636015Y54555441D01*
X30661995Y54562401D01*
X30795505Y54639483D01*
X33984203Y57828181D01*
X34045526Y57861666D01*
X34071884Y57864500D01*
X36605083Y57864500D01*
X36672122Y57844815D01*
X36710631Y57800755D01*
X36712721Y57801961D01*
X36715430Y57797269D01*
X36845954Y57610859D01*
X37006858Y57449955D01*
X37006861Y57449953D01*
X37193266Y57319432D01*
X37399504Y57223261D01*
X37619308Y57164365D01*
X37781230Y57150199D01*
X37845998Y57144532D01*
X37846000Y57144532D01*
X37846002Y57144532D01*
X37902673Y57149491D01*
X38072692Y57164365D01*
X38292496Y57223261D01*
X38498734Y57319432D01*
X38685139Y57449953D01*
X38846047Y57610861D01*
X38976568Y57797266D01*
X39072739Y58003504D01*
X39131635Y58223308D01*
X39151468Y58450000D01*
X39131635Y58676692D01*
X39072739Y58896496D01*
X38976568Y59102734D01*
X38846047Y59289139D01*
X38846045Y59289142D01*
X38685141Y59450046D01*
X38498734Y59580568D01*
X38498732Y59580569D01*
X38292497Y59676739D01*
X38292488Y59676742D01*
X38072697Y59735634D01*
X38072693Y59735635D01*
X38072692Y59735635D01*
X38072691Y59735636D01*
X38072686Y59735636D01*
X37846002Y59755468D01*
X37845998Y59755468D01*
X37619313Y59735636D01*
X37619302Y59735634D01*
X37399511Y59676742D01*
X37399502Y59676739D01*
X37193267Y59580569D01*
X37193265Y59580568D01*
X37006858Y59450046D01*
X36845954Y59289142D01*
X36715430Y59102732D01*
X36712721Y59098039D01*
X36710592Y59099268D01*
X36671230Y59054617D01*
X36605083Y59035500D01*
X33700917Y59035500D01*
X33582085Y59003659D01*
X33582084Y59003660D01*
X33552009Y58995601D01*
X33552002Y58995598D01*
X33418498Y58918519D01*
X33418492Y58918515D01*
X30229797Y55729819D01*
X30168474Y55696334D01*
X30142116Y55693500D01*
X26853086Y55693500D01*
X26786047Y55713185D01*
X26740705Y55765094D01*
X26731038Y55785824D01*
X26731034Y55785831D01*
X26595494Y55979403D01*
X26428402Y56146494D01*
X26428396Y56146499D01*
X26242842Y56276425D01*
X26199217Y56331002D01*
X26192023Y56400500D01*
X26223546Y56462855D01*
X26242842Y56479575D01*
X26349500Y56554258D01*
X26428401Y56609505D01*
X26595495Y56776599D01*
X26731035Y56970170D01*
X26736234Y56981321D01*
X26740705Y56990906D01*
X26786878Y57043345D01*
X26853086Y57062500D01*
X30303082Y57062500D01*
X30303083Y57062500D01*
X30426015Y57095441D01*
X30451995Y57102401D01*
X30585505Y57179483D01*
X36314203Y62908181D01*
X36375526Y62941666D01*
X36401884Y62944500D01*
X36605083Y62944500D01*
X36672122Y62924815D01*
X36710631Y62880755D01*
X36712721Y62881961D01*
X36715430Y62877269D01*
X36845954Y62690859D01*
X37006858Y62529955D01*
X37006861Y62529953D01*
X37193266Y62399432D01*
X37399504Y62303261D01*
X37619308Y62244365D01*
X37781230Y62230199D01*
X37845998Y62224532D01*
X37846000Y62224532D01*
X37846002Y62224532D01*
X37902673Y62229491D01*
X38072692Y62244365D01*
X38292496Y62303261D01*
X38498734Y62399432D01*
X38685139Y62529953D01*
X38846047Y62690861D01*
X38976568Y62877266D01*
X39072739Y63083504D01*
X39131635Y63303308D01*
X39151468Y63530000D01*
X39131635Y63756692D01*
X39072739Y63976496D01*
X38976568Y64182734D01*
X38846047Y64369139D01*
X38846045Y64369142D01*
X38685143Y64530044D01*
X38660536Y64547274D01*
X38616912Y64601851D01*
X38609719Y64671350D01*
X38641241Y64733704D01*
X38701471Y64769118D01*
X38718404Y64772139D01*
X38753483Y64775909D01*
X38888331Y64826204D01*
X39003546Y64912454D01*
X39089796Y65027669D01*
X39140091Y65162517D01*
X39146500Y65222127D01*
X39146499Y66257771D01*
X39166183Y66324809D01*
X39182818Y66345451D01*
X39666319Y66828952D01*
X39727642Y66862437D01*
X39797334Y66857453D01*
X39853267Y66815581D01*
X39877684Y66750117D01*
X39878000Y66741271D01*
X39878000Y48638000D01*
X39858315Y48570961D01*
X39805511Y48525206D01*
X39754000Y48514000D01*
X26924000Y48514000D01*
X26924000Y34290000D01*
X32727712Y28738623D01*
X32762551Y28678060D01*
X32766000Y28649016D01*
X32766000Y22490858D01*
X32746315Y22423819D01*
X32693511Y22378064D01*
X32628747Y22367568D01*
X32619318Y22368582D01*
X32582873Y22372500D01*
X32582867Y22372500D01*
X30887129Y22372500D01*
X30887123Y22372499D01*
X30827516Y22366092D01*
X30692671Y22315798D01*
X30692664Y22315794D01*
X30577455Y22229548D01*
X30577452Y22229545D01*
X30491206Y22114336D01*
X30491202Y22114329D01*
X30440908Y21979483D01*
X30434501Y21919884D01*
X30434500Y21919865D01*
X30434500Y20224130D01*
X30434501Y20224126D01*
X30436745Y20203254D01*
X30424339Y20134495D01*
X30376728Y20083358D01*
X30313455Y20066000D01*
X28318000Y20066000D01*
X28250961Y20085685D01*
X28205206Y20138489D01*
X28194000Y20190000D01*
X28194000Y23876000D01*
X5174500Y23876000D01*
X5107461Y23895685D01*
X5061706Y23948489D01*
X5050500Y24000000D01*
X5050500Y31404081D01*
X5050500Y31404083D01*
X5010599Y31552994D01*
X5010599Y31552995D01*
X5010599Y31552996D01*
X5008563Y31560591D01*
X5010216Y31630441D01*
X5013795Y31639592D01*
X5014815Y31642669D01*
X5069999Y31809203D01*
X5080500Y31911991D01*
X5080499Y33112008D01*
X5069999Y33214797D01*
X5014814Y33381334D01*
X4922712Y33530656D01*
X4798656Y33654712D01*
X4649334Y33746814D01*
X4482797Y33801999D01*
X4482795Y33802000D01*
X4380016Y33812500D01*
X4380009Y33812500D01*
X4154500Y33812500D01*
X4087461Y33832185D01*
X4041706Y33884989D01*
X4030500Y33936500D01*
X4030500Y36937501D01*
X4050185Y37004540D01*
X4102989Y37050295D01*
X4154500Y37061501D01*
X4380002Y37061501D01*
X4380008Y37061501D01*
X4482797Y37072001D01*
X4649334Y37127186D01*
X4798656Y37219288D01*
X4922712Y37343344D01*
X5014814Y37492666D01*
X5069999Y37659203D01*
X5080500Y37761991D01*
X5080499Y38962008D01*
X5069999Y39064797D01*
X5014814Y39231334D01*
X4922712Y39380656D01*
X4798656Y39504712D01*
X4649334Y39596814D01*
X4482797Y39651999D01*
X4482795Y39652000D01*
X4380016Y39662500D01*
X4380009Y39662500D01*
X4154500Y39662500D01*
X4087461Y39682185D01*
X4041706Y39734989D01*
X4030500Y39786500D01*
X4030500Y42410998D01*
X4050185Y42478037D01*
X4078335Y42508850D01*
X4249744Y42642262D01*
X4418164Y42825215D01*
X4554173Y43033393D01*
X4654063Y43261119D01*
X4715108Y43502179D01*
X4735643Y43750000D01*
X4715108Y43997821D01*
X4679561Y44138193D01*
X4654063Y44238882D01*
X4554173Y44466607D01*
X4418166Y44674783D01*
X4396557Y44698256D01*
X4249744Y44857738D01*
X4053509Y45010474D01*
X4053507Y45010475D01*
X4053506Y45010476D01*
X3834811Y45128828D01*
X3834802Y45128831D01*
X3599616Y45209571D01*
X3354335Y45250500D01*
X3105665Y45250500D01*
X2898841Y45215989D01*
X2829476Y45224371D01*
X2790751Y45250617D01*
X1300819Y46740549D01*
X1267334Y46801872D01*
X1264500Y46828230D01*
X1264500Y48712796D01*
X1284185Y48779835D01*
X1336989Y48825590D01*
X1406147Y48835534D01*
X1440901Y48825180D01*
X1593337Y48754097D01*
X1821592Y48692937D01*
X2009918Y48676461D01*
X2056999Y48672341D01*
X2057000Y48672341D01*
X2057001Y48672341D01*
X2096234Y48675774D01*
X2292408Y48692937D01*
X2520663Y48754097D01*
X2734830Y48853965D01*
X2928401Y48989505D01*
X3095495Y49156599D01*
X3231035Y49350170D01*
X3330903Y49564337D01*
X3392063Y49792592D01*
X3412659Y50028000D01*
X3392063Y50263408D01*
X3330903Y50491663D01*
X3231035Y50705829D01*
X3095495Y50899401D01*
X3095494Y50899403D01*
X2928402Y51066494D01*
X2928396Y51066499D01*
X2742842Y51196425D01*
X2699217Y51251002D01*
X2692023Y51320500D01*
X2723546Y51382855D01*
X2742842Y51399575D01*
X2849500Y51474258D01*
X2928401Y51529505D01*
X3095495Y51696599D01*
X3231035Y51890170D01*
X3330903Y52104337D01*
X3392063Y52332592D01*
X3412659Y52568000D01*
X3392063Y52803408D01*
X3330903Y53031663D01*
X3231035Y53245829D01*
X3220130Y53261404D01*
X3095494Y53439403D01*
X2928402Y53606494D01*
X2928396Y53606499D01*
X2742842Y53736425D01*
X2699217Y53791002D01*
X2692023Y53860500D01*
X2723546Y53922855D01*
X2742842Y53939575D01*
X2877576Y54033917D01*
X2928401Y54069505D01*
X3095495Y54236599D01*
X3231035Y54430170D01*
X3330903Y54644337D01*
X3392063Y54872592D01*
X3412659Y55108000D01*
X3392063Y55343408D01*
X3330903Y55571663D01*
X3231035Y55785829D01*
X3220130Y55801404D01*
X3095494Y55979403D01*
X2928402Y56146494D01*
X2928396Y56146499D01*
X2742842Y56276425D01*
X2699217Y56331002D01*
X2692023Y56400500D01*
X2723546Y56462855D01*
X2742842Y56479575D01*
X2849500Y56554258D01*
X2928401Y56609505D01*
X3095495Y56776599D01*
X3231035Y56970170D01*
X3236234Y56981321D01*
X3240705Y56990906D01*
X3286878Y57043345D01*
X3353086Y57062500D01*
X6403082Y57062500D01*
X6403083Y57062500D01*
X6526015Y57095441D01*
X6551995Y57102401D01*
X6685505Y57179483D01*
X10301602Y60795582D01*
X10362925Y60829066D01*
X10432617Y60824082D01*
X10488550Y60782210D01*
X10512967Y60716746D01*
X10512811Y60697092D01*
X10508341Y60646001D01*
X10508341Y60646000D01*
X10528936Y60410597D01*
X10528938Y60410587D01*
X10590094Y60182345D01*
X10590096Y60182341D01*
X10590097Y60182337D01*
X10689965Y59968170D01*
X10689967Y59968166D01*
X10825501Y59774605D01*
X10825506Y59774598D01*
X10992597Y59607507D01*
X10992603Y59607502D01*
X11178158Y59477575D01*
X11221783Y59422998D01*
X11228977Y59353500D01*
X11197454Y59291145D01*
X11178158Y59274425D01*
X10992597Y59144495D01*
X10825505Y58977403D01*
X10689965Y58783831D01*
X10689964Y58783829D01*
X10590098Y58569665D01*
X10590094Y58569656D01*
X10528938Y58341414D01*
X10528936Y58341404D01*
X10508341Y58106001D01*
X10508341Y58106000D01*
X10528936Y57870597D01*
X10528938Y57870587D01*
X10590094Y57642345D01*
X10590096Y57642341D01*
X10590097Y57642337D01*
X10679807Y57449953D01*
X10689965Y57428170D01*
X10689967Y57428166D01*
X10825501Y57234605D01*
X10825506Y57234598D01*
X10992597Y57067507D01*
X10992603Y57067502D01*
X11178158Y56937575D01*
X11221783Y56882998D01*
X11228977Y56813500D01*
X11197454Y56751145D01*
X11178158Y56734425D01*
X10992597Y56604495D01*
X10825505Y56437403D01*
X10689965Y56243831D01*
X10689964Y56243829D01*
X10590098Y56029665D01*
X10590094Y56029656D01*
X10528938Y55801414D01*
X10528936Y55801404D01*
X10508341Y55566001D01*
X10508341Y55566000D01*
X10528936Y55330597D01*
X10528938Y55330587D01*
X10590094Y55102345D01*
X10590096Y55102341D01*
X10590097Y55102337D01*
X10689965Y54888170D01*
X10689967Y54888166D01*
X10825501Y54694605D01*
X10825506Y54694598D01*
X10992597Y54527507D01*
X10992603Y54527502D01*
X11178158Y54397575D01*
X11221783Y54342998D01*
X11228977Y54273500D01*
X11197454Y54211145D01*
X11178158Y54194425D01*
X10992597Y54064495D01*
X10825505Y53897403D01*
X10689965Y53703831D01*
X10689964Y53703829D01*
X10590098Y53489665D01*
X10590094Y53489656D01*
X10528938Y53261414D01*
X10528936Y53261404D01*
X10508341Y53026001D01*
X10508341Y53026000D01*
X10528936Y52790597D01*
X10528938Y52790587D01*
X10590094Y52562345D01*
X10590096Y52562341D01*
X10590097Y52562337D01*
X10689965Y52348170D01*
X10689967Y52348166D01*
X10700876Y52332587D01*
X10825505Y52154599D01*
X10992599Y51987505D01*
X11089384Y51919735D01*
X11186165Y51851968D01*
X11186167Y51851967D01*
X11186170Y51851965D01*
X11400337Y51752097D01*
X11628592Y51690937D01*
X11816918Y51674461D01*
X11863999Y51670341D01*
X11864000Y51670341D01*
X11864001Y51670341D01*
X11903234Y51673774D01*
X12099408Y51690937D01*
X12327663Y51752097D01*
X12541830Y51851965D01*
X12735401Y51987505D01*
X12902495Y52154599D01*
X13038035Y52348170D01*
X13137903Y52562337D01*
X13199063Y52790592D01*
X13219659Y53026000D01*
X13199063Y53261408D01*
X13160189Y53406488D01*
X13161852Y53476337D01*
X13192283Y53526262D01*
X13272520Y53606499D01*
X13417517Y53751495D01*
X13494599Y53885005D01*
X13504956Y53923659D01*
X13534500Y54033917D01*
X13534500Y63712505D01*
X13494599Y63861416D01*
X13471698Y63901081D01*
X13417517Y63994927D01*
X12817851Y64594593D01*
X12784366Y64655916D01*
X12789350Y64725608D01*
X12817851Y64769955D01*
X12852241Y64804345D01*
X12902495Y64854599D01*
X13038035Y65048170D01*
X13043234Y65059321D01*
X13047705Y65068906D01*
X13093878Y65121345D01*
X13160086Y65140500D01*
X23552082Y65140500D01*
X23552083Y65140500D01*
X23675015Y65173441D01*
X23700995Y65180401D01*
X23834505Y65257483D01*
X23994605Y65417585D01*
X24055923Y65451066D01*
X24125615Y65446082D01*
X24181549Y65404211D01*
X24205966Y65338747D01*
X24205810Y65319095D01*
X24201341Y65268005D01*
X24201341Y65268000D01*
X24221936Y65032597D01*
X24221938Y65032587D01*
X24283094Y64804345D01*
X24283096Y64804341D01*
X24283097Y64804337D01*
X24316034Y64733704D01*
X24382965Y64590170D01*
X24382967Y64590166D01*
X24491281Y64435479D01*
X24518505Y64396599D01*
X24685599Y64229505D01*
X24752395Y64182734D01*
X24879165Y64093968D01*
X24879167Y64093967D01*
X24879170Y64093965D01*
X25093337Y63994097D01*
X25321592Y63932937D01*
X25509918Y63916461D01*
X25556999Y63912341D01*
X25557000Y63912341D01*
X25557001Y63912341D01*
X25596234Y63915774D01*
X25792408Y63932937D01*
X26020663Y63994097D01*
X26234830Y64093965D01*
X26428401Y64229505D01*
X26595495Y64396599D01*
X26731035Y64590170D01*
X26830903Y64804337D01*
X26892063Y65032592D01*
X26912659Y65268000D01*
X26892063Y65503408D01*
X26830903Y65731663D01*
X26731035Y65945829D01*
X26639544Y66076493D01*
X26595494Y66139403D01*
X26428402Y66306494D01*
X26428396Y66306499D01*
X26242842Y66436425D01*
X26199217Y66491002D01*
X26192023Y66560500D01*
X26223546Y66622855D01*
X26242842Y66639575D01*
X26371816Y66729884D01*
X26428401Y66769505D01*
X26595495Y66936599D01*
X26731035Y67130170D01*
X26830903Y67344337D01*
X26892063Y67572592D01*
X26912659Y67808000D01*
X26892063Y68043408D01*
X26830903Y68271663D01*
X26731035Y68485829D01*
X26723902Y68496017D01*
X26595494Y68679403D01*
X26428402Y68846494D01*
X26428396Y68846499D01*
X26242842Y68976425D01*
X26199217Y69031002D01*
X26192023Y69100500D01*
X26223546Y69162855D01*
X26242842Y69179575D01*
X26356739Y69259327D01*
X26428401Y69309505D01*
X26595495Y69476599D01*
X26731035Y69670170D01*
X26830903Y69884337D01*
X26892063Y70112592D01*
X26912659Y70348000D01*
X26892063Y70583408D01*
X26830903Y70811663D01*
X26731035Y71025829D01*
X26725836Y71033255D01*
X26595494Y71219403D01*
X26428402Y71386494D01*
X26428396Y71386499D01*
X26242842Y71516425D01*
X26199217Y71571002D01*
X26192023Y71640500D01*
X26223546Y71702855D01*
X26242842Y71719575D01*
X26332538Y71782381D01*
X26428401Y71849505D01*
X26595495Y72016599D01*
X26731035Y72210170D01*
X26830903Y72424337D01*
X26892063Y72652592D01*
X26912659Y72888000D01*
X26892063Y73123408D01*
X26830903Y73351663D01*
X26731035Y73565829D01*
X26595495Y73759401D01*
X26595494Y73759403D01*
X26428402Y73926494D01*
X26428396Y73926499D01*
X26242842Y74056425D01*
X26199217Y74111002D01*
X26192023Y74180500D01*
X26223546Y74242855D01*
X26242842Y74259575D01*
X26349500Y74334258D01*
X26428401Y74389505D01*
X26595495Y74556599D01*
X26731035Y74750170D01*
X26830903Y74964337D01*
X26892063Y75192592D01*
X26912659Y75428000D01*
X26892063Y75663408D01*
X26830903Y75891663D01*
X26731035Y76105829D01*
X26595495Y76299401D01*
X26595494Y76299403D01*
X26428402Y76466494D01*
X26428396Y76466499D01*
X26242842Y76596425D01*
X26199217Y76651002D01*
X26192023Y76720500D01*
X26223546Y76782855D01*
X26242842Y76799575D01*
X26349500Y76874258D01*
X26428401Y76929505D01*
X26595495Y77096599D01*
X26731035Y77290170D01*
X26830903Y77504337D01*
X26892063Y77732592D01*
X26912659Y77968000D01*
X26892063Y78203408D01*
X26830903Y78431663D01*
X26731035Y78645829D01*
X26726118Y78652852D01*
X26595494Y78839403D01*
X26428402Y79006494D01*
X26428396Y79006499D01*
X26242842Y79136425D01*
X26199217Y79191002D01*
X26192023Y79260500D01*
X26223546Y79322855D01*
X26242842Y79339575D01*
X26337409Y79405792D01*
X26428401Y79469505D01*
X26595495Y79636599D01*
X26731035Y79830170D01*
X26830903Y80044337D01*
X26892063Y80272592D01*
X26912659Y80508000D01*
X26892063Y80743408D01*
X26853189Y80888488D01*
X26854852Y80958337D01*
X26885281Y81008260D01*
X26991204Y81114183D01*
X27052526Y81147666D01*
X27078884Y81150500D01*
X27639500Y81150500D01*
X27706539Y81130815D01*
G37*
%TD.AperFunction*%
%TA.AperFunction,Conductor*%
G36*
X205203Y45712983D02*
G01*
X211681Y45706951D01*
X1730618Y44188014D01*
X1764103Y44126691D01*
X1763143Y44069893D01*
X1744891Y43997818D01*
X1724357Y43750006D01*
X1724357Y43749995D01*
X1744890Y43502188D01*
X1744892Y43502176D01*
X1805936Y43261119D01*
X1905826Y43033394D01*
X2041833Y42825218D01*
X2041836Y42825215D01*
X2210256Y42642262D01*
X2406491Y42489526D01*
X2464517Y42458124D01*
X2514108Y42408905D01*
X2529500Y42349069D01*
X2529500Y39786500D01*
X2509815Y39719461D01*
X2457011Y39673706D01*
X2405501Y39662500D01*
X2179999Y39662500D01*
X2179980Y39662499D01*
X2077203Y39652000D01*
X2077200Y39651999D01*
X1910668Y39596815D01*
X1910663Y39596813D01*
X1761342Y39504711D01*
X1637289Y39380658D01*
X1545187Y39231337D01*
X1545186Y39231334D01*
X1490001Y39064797D01*
X1490001Y39064796D01*
X1490000Y39064796D01*
X1479500Y38962017D01*
X1479500Y37761999D01*
X1479501Y37761982D01*
X1490000Y37659204D01*
X1490001Y37659201D01*
X1542034Y37502179D01*
X1545186Y37492666D01*
X1637288Y37343344D01*
X1761344Y37219288D01*
X1910666Y37127186D01*
X2077203Y37072001D01*
X2179991Y37061500D01*
X2405500Y37061501D01*
X2472539Y37041817D01*
X2518294Y36989013D01*
X2529500Y36937501D01*
X2529500Y33936500D01*
X2509815Y33869461D01*
X2457011Y33823706D01*
X2405501Y33812500D01*
X2179999Y33812500D01*
X2179980Y33812499D01*
X2077203Y33802000D01*
X2077200Y33801999D01*
X1910668Y33746815D01*
X1910663Y33746813D01*
X1761342Y33654711D01*
X1637289Y33530658D01*
X1545187Y33381337D01*
X1545186Y33381334D01*
X1490001Y33214797D01*
X1490001Y33214796D01*
X1490000Y33214796D01*
X1479500Y33112017D01*
X1479500Y31911999D01*
X1479501Y31911982D01*
X1490000Y31809204D01*
X1490001Y31809201D01*
X1545185Y31642669D01*
X1545186Y31642666D01*
X1637288Y31493344D01*
X1761344Y31369288D01*
X1910666Y31277186D01*
X2077203Y31222001D01*
X2179991Y31211500D01*
X3701115Y31211501D01*
X3768154Y31191816D01*
X3788796Y31175182D01*
X3843181Y31120797D01*
X3876666Y31059474D01*
X3879500Y31033116D01*
X3879500Y20318000D01*
X3859815Y20250961D01*
X3807011Y20205206D01*
X3755500Y20194000D01*
X2717335Y20194000D01*
X2650296Y20213685D01*
X2615760Y20246877D01*
X2514045Y20392142D01*
X2353141Y20553046D01*
X2166731Y20683570D01*
X2162039Y20686279D01*
X2163267Y20688408D01*
X2118617Y20727770D01*
X2099500Y20793917D01*
X2099500Y20867617D01*
X2119185Y20934656D01*
X2135815Y20955294D01*
X2421703Y21241183D01*
X2483026Y21274667D01*
X2509384Y21277501D01*
X2701388Y21277501D01*
X2767926Y21283547D01*
X2767927Y21283548D01*
X2767933Y21283548D01*
X2921069Y21331267D01*
X3014082Y21387495D01*
X3058329Y21414243D01*
X3058330Y21414245D01*
X3058335Y21414247D01*
X3171753Y21527665D01*
X3254733Y21664931D01*
X3302452Y21818067D01*
X3308500Y21884619D01*
X3308499Y22311380D01*
X3308499Y22311389D01*
X3302453Y22377927D01*
X3302452Y22377930D01*
X3302452Y22377933D01*
X3254733Y22531069D01*
X3254732Y22531071D01*
X3171757Y22668330D01*
X3171753Y22668335D01*
X3058334Y22781754D01*
X3058329Y22781758D01*
X2921070Y22864733D01*
X2921066Y22864735D01*
X2767933Y22912452D01*
X2767935Y22912452D01*
X2741312Y22914872D01*
X2701381Y22918500D01*
X2701378Y22918500D01*
X2509384Y22918500D01*
X2442345Y22938185D01*
X2421703Y22954819D01*
X1740879Y23635643D01*
X1707394Y23696966D01*
X1705341Y23709427D01*
X1700313Y23754059D01*
X1644456Y23913690D01*
X1644455Y23913692D01*
X1644452Y23913698D01*
X1554481Y24056885D01*
X1554476Y24056891D01*
X1434890Y24176477D01*
X1434884Y24176482D01*
X1291697Y24266453D01*
X1291694Y24266455D01*
X1132056Y24322315D01*
X964003Y24341249D01*
X963997Y24341249D01*
X795943Y24322315D01*
X636305Y24266455D01*
X636302Y24266453D01*
X493115Y24176482D01*
X493109Y24176477D01*
X373523Y24056891D01*
X373518Y24056885D01*
X283547Y23913698D01*
X283542Y23913687D01*
X241041Y23792226D01*
X200320Y23735450D01*
X135367Y23709703D01*
X66805Y23723159D01*
X16403Y23771547D01*
X0Y23833181D01*
X0Y45619270D01*
X19685Y45686309D01*
X72489Y45732064D01*
X141647Y45742008D01*
X205203Y45712983D01*
G37*
%TD.AperFunction*%
%TA.AperFunction,Conductor*%
G36*
X3604443Y83210333D02*
G01*
X3619398Y83197580D01*
X8942181Y77874797D01*
X8975666Y77813474D01*
X8978500Y77787116D01*
X8978500Y66358918D01*
X9011440Y66235984D01*
X9011440Y66235983D01*
X9018399Y66210009D01*
X9018400Y66210007D01*
X9018401Y66210005D01*
X9095483Y66076495D01*
X9095485Y66076493D01*
X10882359Y64289619D01*
X10915844Y64228296D01*
X10910860Y64158604D01*
X10882360Y64114257D01*
X10825503Y64057400D01*
X10689965Y63863831D01*
X10689964Y63863829D01*
X10590098Y63649665D01*
X10590094Y63649656D01*
X10528938Y63421414D01*
X10528936Y63421404D01*
X10508341Y63186001D01*
X10508341Y63186000D01*
X10528936Y62950597D01*
X10528938Y62950587D01*
X10567810Y62805514D01*
X10566147Y62735664D01*
X10535716Y62685740D01*
X6119797Y58269819D01*
X6058474Y58236334D01*
X6032116Y58233500D01*
X3353086Y58233500D01*
X3286047Y58253185D01*
X3240705Y58305094D01*
X3231038Y58325824D01*
X3231034Y58325831D01*
X3095494Y58519403D01*
X2928402Y58686494D01*
X2928396Y58686499D01*
X2742842Y58816425D01*
X2699217Y58871002D01*
X2692023Y58940500D01*
X2723546Y59002855D01*
X2742842Y59019575D01*
X2861602Y59102732D01*
X2928401Y59149505D01*
X3095495Y59316599D01*
X3231035Y59510170D01*
X3330903Y59724337D01*
X3392063Y59952592D01*
X3412659Y60188000D01*
X3392063Y60423408D01*
X3330903Y60651663D01*
X3231035Y60865829D01*
X3095495Y61059401D01*
X3095494Y61059403D01*
X2928402Y61226494D01*
X2928396Y61226499D01*
X2742842Y61356425D01*
X2699217Y61411002D01*
X2692023Y61480500D01*
X2723546Y61542855D01*
X2742842Y61559575D01*
X2849500Y61634258D01*
X2928401Y61689505D01*
X3095495Y61856599D01*
X3231035Y62050170D01*
X3330903Y62264337D01*
X3392063Y62492592D01*
X3412659Y62728000D01*
X3411988Y62735664D01*
X3405877Y62805514D01*
X3392063Y62963408D01*
X3330903Y63191663D01*
X3231035Y63405829D01*
X3220130Y63421404D01*
X3095494Y63599403D01*
X2928402Y63766494D01*
X2928396Y63766499D01*
X2742842Y63896425D01*
X2699217Y63951002D01*
X2692023Y64020500D01*
X2723546Y64082855D01*
X2742842Y64099575D01*
X2861602Y64182732D01*
X2928401Y64229505D01*
X3095495Y64396599D01*
X3231035Y64590170D01*
X3330903Y64804337D01*
X3392063Y65032592D01*
X3412659Y65268000D01*
X3392063Y65503408D01*
X3330903Y65731663D01*
X3231035Y65945829D01*
X3139544Y66076493D01*
X3095494Y66139403D01*
X2928402Y66306494D01*
X2928396Y66306499D01*
X2742842Y66436425D01*
X2699217Y66491002D01*
X2692023Y66560500D01*
X2723546Y66622855D01*
X2742842Y66639575D01*
X2871816Y66729884D01*
X2928401Y66769505D01*
X3095495Y66936599D01*
X3231035Y67130170D01*
X3330903Y67344337D01*
X3392063Y67572592D01*
X3412659Y67808000D01*
X3392063Y68043408D01*
X3330903Y68271663D01*
X3231035Y68485829D01*
X3223902Y68496017D01*
X3095494Y68679403D01*
X2928402Y68846494D01*
X2928396Y68846499D01*
X2742842Y68976425D01*
X2699217Y69031002D01*
X2692023Y69100500D01*
X2723546Y69162855D01*
X2742842Y69179575D01*
X2856739Y69259327D01*
X2928401Y69309505D01*
X3095495Y69476599D01*
X3231035Y69670170D01*
X3330903Y69884337D01*
X3392063Y70112592D01*
X3412659Y70348000D01*
X3392063Y70583408D01*
X3330903Y70811663D01*
X3231035Y71025829D01*
X3225836Y71033255D01*
X3095494Y71219403D01*
X2928402Y71386494D01*
X2928396Y71386499D01*
X2742842Y71516425D01*
X2699217Y71571002D01*
X2692023Y71640500D01*
X2723546Y71702855D01*
X2742842Y71719575D01*
X2832538Y71782381D01*
X2928401Y71849505D01*
X3095495Y72016599D01*
X3231035Y72210170D01*
X3330903Y72424337D01*
X3392063Y72652592D01*
X3412659Y72888000D01*
X3392063Y73123408D01*
X3330903Y73351663D01*
X3231035Y73565829D01*
X3095495Y73759401D01*
X3095494Y73759403D01*
X2928402Y73926494D01*
X2928396Y73926499D01*
X2742842Y74056425D01*
X2699217Y74111002D01*
X2692023Y74180500D01*
X2723546Y74242855D01*
X2742842Y74259575D01*
X2849500Y74334258D01*
X2928401Y74389505D01*
X3095495Y74556599D01*
X3231035Y74750170D01*
X3330903Y74964337D01*
X3392063Y75192592D01*
X3412659Y75428000D01*
X3392063Y75663408D01*
X3330903Y75891663D01*
X3231035Y76105829D01*
X3095495Y76299401D01*
X3095494Y76299403D01*
X2928402Y76466494D01*
X2928396Y76466499D01*
X2742842Y76596425D01*
X2699217Y76651002D01*
X2692023Y76720500D01*
X2723546Y76782855D01*
X2742842Y76799575D01*
X2849500Y76874258D01*
X2928401Y76929505D01*
X3095495Y77096599D01*
X3231035Y77290170D01*
X3330903Y77504337D01*
X3392063Y77732592D01*
X3412659Y77968000D01*
X3392063Y78203408D01*
X3330903Y78431663D01*
X3231035Y78645829D01*
X3226118Y78652852D01*
X3095494Y78839403D01*
X2928402Y79006494D01*
X2928395Y79006499D01*
X2734834Y79142033D01*
X2734830Y79142035D01*
X2520663Y79241903D01*
X2520659Y79241904D01*
X2520655Y79241906D01*
X2292413Y79303062D01*
X2292403Y79303064D01*
X2057001Y79323659D01*
X2056999Y79323659D01*
X1821596Y79303064D01*
X1821586Y79303062D01*
X1593344Y79241906D01*
X1593330Y79241901D01*
X1440904Y79170823D01*
X1371827Y79160331D01*
X1308043Y79188851D01*
X1269804Y79247328D01*
X1264500Y79283205D01*
X1264500Y81732796D01*
X1284185Y81799835D01*
X1336989Y81845590D01*
X1406147Y81855534D01*
X1440901Y81845180D01*
X1593337Y81774097D01*
X1593342Y81774096D01*
X1593344Y81774095D01*
X1648285Y81759374D01*
X1821592Y81712937D01*
X2009918Y81696461D01*
X2056999Y81692341D01*
X2057000Y81692341D01*
X2057001Y81692341D01*
X2096234Y81695774D01*
X2292408Y81712937D01*
X2520663Y81774097D01*
X2734830Y81873965D01*
X2928401Y82009505D01*
X3095495Y82176599D01*
X3231035Y82370170D01*
X3330903Y82584337D01*
X3392063Y82812592D01*
X3412659Y83048000D01*
X3408189Y83099092D01*
X3421955Y83167591D01*
X3470570Y83217774D01*
X3538599Y83233708D01*
X3604443Y83210333D01*
G37*
%TD.AperFunction*%
%TA.AperFunction,Conductor*%
G36*
X23523809Y96715815D02*
G01*
X23544451Y96699181D01*
X24170181Y96073452D01*
X24203666Y96012129D01*
X24206500Y95985771D01*
X24206500Y94850130D01*
X24206501Y94850124D01*
X24212908Y94790517D01*
X24263202Y94655672D01*
X24263206Y94655665D01*
X24349452Y94540456D01*
X24349455Y94540453D01*
X24464664Y94454207D01*
X24464671Y94454203D01*
X24596081Y94405190D01*
X24652015Y94363319D01*
X24676432Y94297855D01*
X24661580Y94229582D01*
X24640430Y94201327D01*
X24518503Y94079400D01*
X24382965Y93885831D01*
X24382964Y93885829D01*
X24283098Y93671665D01*
X24283094Y93671656D01*
X24221938Y93443414D01*
X24221936Y93443404D01*
X24201341Y93208001D01*
X24201341Y93208000D01*
X24221936Y92972597D01*
X24221938Y92972587D01*
X24283094Y92744345D01*
X24283096Y92744341D01*
X24283097Y92744337D01*
X24329191Y92645489D01*
X24382965Y92530170D01*
X24382967Y92530166D01*
X24518501Y92336605D01*
X24518506Y92336598D01*
X24685597Y92169507D01*
X24685603Y92169502D01*
X24871158Y92039575D01*
X24914783Y91984998D01*
X24921977Y91915500D01*
X24890454Y91853145D01*
X24871158Y91836425D01*
X24685597Y91706495D01*
X24518505Y91539403D01*
X24382965Y91345831D01*
X24382964Y91345829D01*
X24283098Y91131665D01*
X24283094Y91131656D01*
X24221938Y90903414D01*
X24221936Y90903404D01*
X24201341Y90668001D01*
X24201341Y90668000D01*
X24221936Y90432597D01*
X24221938Y90432587D01*
X24283094Y90204345D01*
X24283096Y90204341D01*
X24283097Y90204337D01*
X24369874Y90018243D01*
X24382965Y89990170D01*
X24382967Y89990166D01*
X24518501Y89796605D01*
X24518506Y89796598D01*
X24685597Y89629507D01*
X24685603Y89629502D01*
X24871158Y89499575D01*
X24914783Y89444998D01*
X24921977Y89375500D01*
X24890454Y89313145D01*
X24871158Y89296425D01*
X24685597Y89166495D01*
X24518505Y88999403D01*
X24382965Y88805831D01*
X24382964Y88805829D01*
X24283098Y88591665D01*
X24283094Y88591656D01*
X24221938Y88363414D01*
X24221936Y88363404D01*
X24201341Y88128001D01*
X24201341Y88128000D01*
X24221936Y87892597D01*
X24221938Y87892587D01*
X24283094Y87664345D01*
X24283096Y87664341D01*
X24283097Y87664337D01*
X24382965Y87450170D01*
X24382967Y87450166D01*
X24518501Y87256605D01*
X24518506Y87256598D01*
X24603148Y87171956D01*
X24636633Y87110633D01*
X24631649Y87040941D01*
X24603148Y86996594D01*
X24003485Y86396930D01*
X24003483Y86396928D01*
X24003483Y86396927D01*
X23991652Y86376435D01*
X23926401Y86263417D01*
X23901332Y86169860D01*
X23886500Y86114505D01*
X23886500Y81515917D01*
X23918252Y81397420D01*
X23918251Y81397420D01*
X23918252Y81397418D01*
X23926400Y81367007D01*
X23926401Y81367005D01*
X24003483Y81233495D01*
X24003485Y81233493D01*
X24228716Y81008262D01*
X24262201Y80946939D01*
X24260810Y80888488D01*
X24221938Y80743414D01*
X24221936Y80743404D01*
X24201341Y80508001D01*
X24201341Y80508000D01*
X24221936Y80272597D01*
X24221938Y80272587D01*
X24283094Y80044345D01*
X24283096Y80044341D01*
X24283097Y80044337D01*
X24323663Y79957344D01*
X24382965Y79830170D01*
X24382967Y79830166D01*
X24518501Y79636605D01*
X24518506Y79636598D01*
X24685597Y79469507D01*
X24685603Y79469502D01*
X24871158Y79339575D01*
X24914783Y79284998D01*
X24921977Y79215500D01*
X24890454Y79153145D01*
X24871158Y79136425D01*
X24685597Y79006495D01*
X24518505Y78839403D01*
X24382965Y78645831D01*
X24382964Y78645829D01*
X24283098Y78431665D01*
X24283094Y78431656D01*
X24221938Y78203414D01*
X24221936Y78203404D01*
X24201341Y77968001D01*
X24201341Y77968000D01*
X24221936Y77732597D01*
X24221938Y77732587D01*
X24283094Y77504345D01*
X24283096Y77504341D01*
X24283097Y77504337D01*
X24382965Y77290170D01*
X24382967Y77290166D01*
X24518501Y77096605D01*
X24518506Y77096598D01*
X24685597Y76929507D01*
X24685603Y76929502D01*
X24871158Y76799575D01*
X24914783Y76744998D01*
X24921977Y76675500D01*
X24890454Y76613145D01*
X24871158Y76596425D01*
X24685597Y76466495D01*
X24518505Y76299403D01*
X24382965Y76105831D01*
X24382964Y76105829D01*
X24283098Y75891665D01*
X24283094Y75891656D01*
X24221938Y75663414D01*
X24221936Y75663404D01*
X24201341Y75428001D01*
X24201341Y75428000D01*
X24221936Y75192597D01*
X24221938Y75192587D01*
X24283094Y74964345D01*
X24283096Y74964341D01*
X24283097Y74964337D01*
X24370920Y74776000D01*
X24382965Y74750170D01*
X24382967Y74750166D01*
X24518501Y74556605D01*
X24518506Y74556598D01*
X24685597Y74389507D01*
X24685603Y74389502D01*
X24871158Y74259575D01*
X24914783Y74204998D01*
X24921977Y74135500D01*
X24890454Y74073145D01*
X24871158Y74056425D01*
X24685597Y73926495D01*
X24518505Y73759403D01*
X24382965Y73565831D01*
X24382964Y73565829D01*
X24283098Y73351665D01*
X24283094Y73351656D01*
X24221938Y73123414D01*
X24221936Y73123404D01*
X24201341Y72888001D01*
X24201341Y72888000D01*
X24221936Y72652597D01*
X24221938Y72652587D01*
X24283094Y72424345D01*
X24283096Y72424341D01*
X24283097Y72424337D01*
X24342079Y72297850D01*
X24382965Y72210170D01*
X24382967Y72210166D01*
X24518501Y72016605D01*
X24518506Y72016598D01*
X24685597Y71849507D01*
X24685603Y71849502D01*
X24871158Y71719575D01*
X24914783Y71664998D01*
X24921977Y71595500D01*
X24890454Y71533145D01*
X24871158Y71516425D01*
X24685597Y71386495D01*
X24518505Y71219403D01*
X24382965Y71025831D01*
X24382964Y71025829D01*
X24283098Y70811665D01*
X24283094Y70811656D01*
X24221938Y70583414D01*
X24221936Y70583404D01*
X24201341Y70348001D01*
X24201341Y70348000D01*
X24221936Y70112597D01*
X24221938Y70112587D01*
X24283094Y69884345D01*
X24283096Y69884341D01*
X24283097Y69884337D01*
X24338435Y69765665D01*
X24382965Y69670170D01*
X24382967Y69670166D01*
X24518501Y69476605D01*
X24518506Y69476598D01*
X24685597Y69309507D01*
X24685603Y69309502D01*
X24871158Y69179575D01*
X24914783Y69124998D01*
X24921977Y69055500D01*
X24890454Y68993145D01*
X24871158Y68976425D01*
X24685597Y68846495D01*
X24518505Y68679403D01*
X24382965Y68485831D01*
X24382964Y68485829D01*
X24283098Y68271665D01*
X24283094Y68271656D01*
X24221938Y68043414D01*
X24221936Y68043404D01*
X24201341Y67808001D01*
X24201341Y67808000D01*
X24221936Y67572597D01*
X24221938Y67572587D01*
X24260810Y67427514D01*
X24259147Y67357664D01*
X24228716Y67307740D01*
X23268797Y66347819D01*
X23207474Y66314334D01*
X23181116Y66311500D01*
X13160086Y66311500D01*
X13093047Y66331185D01*
X13047705Y66383094D01*
X13038038Y66403824D01*
X13038034Y66403831D01*
X12902494Y66597403D01*
X12735402Y66764494D01*
X12735396Y66764499D01*
X12549842Y66894425D01*
X12506217Y66949002D01*
X12499023Y67018500D01*
X12530546Y67080855D01*
X12549842Y67097575D01*
X12596392Y67130170D01*
X12735401Y67227505D01*
X12902495Y67394599D01*
X13038035Y67588170D01*
X13137903Y67802337D01*
X13199063Y68030592D01*
X13219659Y68266000D01*
X13199063Y68501408D01*
X13152626Y68674715D01*
X13137905Y68729656D01*
X13137904Y68729657D01*
X13137903Y68729663D01*
X13038035Y68943829D01*
X13015211Y68976425D01*
X12902496Y69137400D01*
X12860321Y69179575D01*
X12780567Y69259329D01*
X12747084Y69320649D01*
X12752068Y69390341D01*
X12793939Y69446275D01*
X12824915Y69463190D01*
X12956331Y69512204D01*
X13071546Y69598454D01*
X13157796Y69713669D01*
X13208091Y69848517D01*
X13214500Y69908127D01*
X13214499Y71703872D01*
X13208091Y71763483D01*
X13157796Y71898331D01*
X13157795Y71898332D01*
X13157793Y71898336D01*
X13071547Y72013545D01*
X13071544Y72013548D01*
X12956335Y72099794D01*
X12956328Y72099798D01*
X12821482Y72150092D01*
X12821483Y72150092D01*
X12761883Y72156499D01*
X12761881Y72156500D01*
X12761873Y72156500D01*
X12761864Y72156500D01*
X10966129Y72156500D01*
X10966123Y72156499D01*
X10906516Y72150092D01*
X10771671Y72099798D01*
X10771664Y72099794D01*
X10656455Y72013548D01*
X10656452Y72013545D01*
X10570206Y71898336D01*
X10570202Y71898329D01*
X10519908Y71763483D01*
X10516900Y71735500D01*
X10513501Y71703877D01*
X10513500Y71703865D01*
X10513500Y69908130D01*
X10513501Y69908124D01*
X10519908Y69848517D01*
X10570202Y69713672D01*
X10570206Y69713665D01*
X10656452Y69598456D01*
X10656455Y69598453D01*
X10771664Y69512207D01*
X10771671Y69512203D01*
X10903081Y69463190D01*
X10959015Y69421319D01*
X10983432Y69355855D01*
X10968580Y69287582D01*
X10947430Y69259327D01*
X10825503Y69137400D01*
X10689965Y68943831D01*
X10689964Y68943829D01*
X10590098Y68729665D01*
X10590094Y68729656D01*
X10528938Y68501414D01*
X10528936Y68501404D01*
X10508341Y68266001D01*
X10508341Y68266000D01*
X10528936Y68030597D01*
X10528938Y68030587D01*
X10590094Y67802345D01*
X10590096Y67802341D01*
X10590097Y67802337D01*
X10689965Y67588170D01*
X10689967Y67588166D01*
X10825501Y67394605D01*
X10825506Y67394598D01*
X10992597Y67227507D01*
X10992603Y67227502D01*
X11178158Y67097575D01*
X11221783Y67042998D01*
X11228977Y66973500D01*
X11197454Y66911145D01*
X11178158Y66894425D01*
X10992597Y66764495D01*
X10825505Y66597403D01*
X10689965Y66403831D01*
X10689962Y66403826D01*
X10680284Y66383071D01*
X10634110Y66330634D01*
X10566916Y66311484D01*
X10500036Y66331702D01*
X10480223Y66347799D01*
X10185819Y66642203D01*
X10152334Y66703526D01*
X10149500Y66729884D01*
X10149500Y78158081D01*
X10149500Y78158083D01*
X10109599Y78306994D01*
X10074675Y78367484D01*
X10032517Y78440505D01*
X3385283Y85087739D01*
X3351798Y85149062D01*
X3353189Y85207514D01*
X3392063Y85352592D01*
X3412659Y85588000D01*
X3392063Y85823408D01*
X3340724Y86015011D01*
X3330905Y86051656D01*
X3330904Y86051657D01*
X3330903Y86051663D01*
X3231035Y86265829D01*
X3191559Y86322208D01*
X3095494Y86459403D01*
X2928402Y86626494D01*
X2928396Y86626499D01*
X2742842Y86756425D01*
X2699217Y86811002D01*
X2692023Y86880500D01*
X2723546Y86942855D01*
X2742842Y86959575D01*
X2859044Y87040941D01*
X2928401Y87089505D01*
X3095495Y87256599D01*
X3231035Y87450170D01*
X3330903Y87664337D01*
X3392063Y87892592D01*
X3412659Y88128000D01*
X3392063Y88363408D01*
X3330903Y88591663D01*
X3231035Y88805829D01*
X3219567Y88822208D01*
X3095494Y88999403D01*
X2928402Y89166494D01*
X2928396Y89166499D01*
X2742842Y89296425D01*
X2699217Y89351002D01*
X2692023Y89420500D01*
X2723546Y89482855D01*
X2742842Y89499575D01*
X2880142Y89595714D01*
X2928401Y89629505D01*
X3095495Y89796599D01*
X3231035Y89990170D01*
X3330903Y90204337D01*
X3392063Y90432592D01*
X3412659Y90668000D01*
X3392063Y90903408D01*
X3345626Y91076715D01*
X3330905Y91131656D01*
X3330904Y91131657D01*
X3330903Y91131663D01*
X3231035Y91345829D01*
X3127157Y91494184D01*
X3095494Y91539403D01*
X2928402Y91706494D01*
X2928396Y91706499D01*
X2742842Y91836425D01*
X2699217Y91891002D01*
X2692023Y91960500D01*
X2723546Y92022855D01*
X2742842Y92039575D01*
X2849500Y92114258D01*
X2928401Y92169505D01*
X3095495Y92336599D01*
X3231035Y92530170D01*
X3330903Y92744337D01*
X3392063Y92972592D01*
X3412659Y93208000D01*
X3411556Y93220602D01*
X3399618Y93357051D01*
X3392063Y93443408D01*
X3330903Y93671663D01*
X3231035Y93885829D01*
X3223564Y93896500D01*
X3095494Y94079403D01*
X2928402Y94246494D01*
X2928395Y94246499D01*
X2734834Y94382033D01*
X2734830Y94382035D01*
X2634433Y94428851D01*
X2520663Y94481903D01*
X2520659Y94481904D01*
X2520655Y94481906D01*
X2292413Y94543062D01*
X2292403Y94543064D01*
X2057001Y94563659D01*
X2056999Y94563659D01*
X1821596Y94543064D01*
X1821586Y94543062D01*
X1593344Y94481906D01*
X1593330Y94481901D01*
X1440904Y94410823D01*
X1371827Y94400331D01*
X1308043Y94428851D01*
X1269804Y94487328D01*
X1264500Y94523205D01*
X1264500Y96342770D01*
X1284185Y96409809D01*
X1300819Y96430451D01*
X1569549Y96699181D01*
X1630872Y96732666D01*
X1657230Y96735500D01*
X23456770Y96735500D01*
X23523809Y96715815D01*
G37*
%TD.AperFunction*%
%TA.AperFunction,Conductor*%
G36*
X38382834Y86164876D02*
G01*
X38438767Y86123004D01*
X38463184Y86057540D01*
X38463500Y86048694D01*
X38463500Y82019920D01*
X38443815Y81952881D01*
X38391011Y81907126D01*
X38321853Y81897182D01*
X38258297Y81926207D01*
X38233961Y81954823D01*
X38193809Y82019920D01*
X38147712Y82094656D01*
X38023656Y82218712D01*
X37874334Y82310814D01*
X37707797Y82365999D01*
X37707795Y82366000D01*
X37605010Y82376500D01*
X36054998Y82376500D01*
X36054981Y82376499D01*
X35952203Y82366000D01*
X35952200Y82365999D01*
X35785668Y82310815D01*
X35785663Y82310813D01*
X35636342Y82218711D01*
X35512289Y82094658D01*
X35420187Y81945337D01*
X35420186Y81945334D01*
X35365001Y81778797D01*
X35365001Y81778796D01*
X35365000Y81778796D01*
X35354500Y81676017D01*
X35354500Y81145203D01*
X35334815Y81078164D01*
X35282011Y81032409D01*
X35212853Y81022465D01*
X35149297Y81051490D01*
X35111523Y81110268D01*
X35111504Y81110332D01*
X35067618Y81261390D01*
X34987170Y81397420D01*
X34987165Y81397426D01*
X34875425Y81509166D01*
X34875416Y81509173D01*
X34739390Y81589618D01*
X34739385Y81589620D01*
X34587633Y81633708D01*
X34587620Y81633710D01*
X34552163Y81636500D01*
X34175849Y81636500D01*
X34175824Y81636499D01*
X34140372Y81633709D01*
X33988614Y81589620D01*
X33988609Y81589618D01*
X33852583Y81509173D01*
X33852574Y81509166D01*
X33740834Y81397426D01*
X33740830Y81397420D01*
X33660382Y81261391D01*
X33660380Y81261386D01*
X33616292Y81109634D01*
X33616290Y81109621D01*
X33613500Y81074171D01*
X33613500Y79297850D01*
X33613501Y79297825D01*
X33616291Y79262373D01*
X33660380Y79110615D01*
X33660382Y79110610D01*
X33740827Y78974584D01*
X33740834Y78974575D01*
X33852574Y78862835D01*
X33852578Y78862832D01*
X33852580Y78862830D01*
X33988610Y78782382D01*
X34140373Y78738291D01*
X34175837Y78735500D01*
X34552162Y78735501D01*
X34587627Y78738291D01*
X34739390Y78782382D01*
X34875420Y78862830D01*
X34987170Y78974580D01*
X35067618Y79110610D01*
X35111709Y79262373D01*
X35114500Y79297837D01*
X35114499Y80291377D01*
X35134183Y80358414D01*
X35186987Y80404169D01*
X35256146Y80414113D01*
X35319702Y80385088D01*
X35357476Y80326310D01*
X35361857Y80303978D01*
X35365001Y80273203D01*
X35365001Y80273201D01*
X35420185Y80106669D01*
X35420187Y80106664D01*
X35512289Y79957343D01*
X35636344Y79833288D01*
X35791120Y79737822D01*
X35837845Y79685874D01*
X35849068Y79616912D01*
X35821224Y79552829D01*
X35813706Y79544602D01*
X35674889Y79405785D01*
X35549951Y79233821D01*
X35453444Y79044415D01*
X35387753Y78842240D01*
X35370847Y78735500D01*
X35354500Y78632287D01*
X35354500Y78419713D01*
X35387754Y78209757D01*
X35423518Y78099686D01*
X35453444Y78007586D01*
X35520085Y77876795D01*
X35532981Y77808125D01*
X35506705Y77743385D01*
X35449598Y77703128D01*
X35409600Y77696500D01*
X31582885Y77696500D01*
X31515846Y77716185D01*
X31495204Y77732819D01*
X31235562Y77992461D01*
X31202077Y78053784D01*
X31207061Y78123476D01*
X31248933Y78179409D01*
X31314397Y78203826D01*
X31382670Y78188974D01*
X31389216Y78185135D01*
X31432272Y78158081D01*
X31436307Y78155546D01*
X31436305Y78155546D01*
X31436309Y78155545D01*
X31436310Y78155544D01*
X31508913Y78130140D01*
X31595943Y78099686D01*
X31763997Y78080751D01*
X31764000Y78080751D01*
X31764003Y78080751D01*
X31932056Y78099686D01*
X32000044Y78123476D01*
X32091690Y78155544D01*
X32091692Y78155546D01*
X32091694Y78155546D01*
X32091697Y78155548D01*
X32234884Y78245519D01*
X32234885Y78245520D01*
X32234890Y78245523D01*
X32354477Y78365110D01*
X32355969Y78367484D01*
X32444452Y78508303D01*
X32444455Y78508309D01*
X32444456Y78508310D01*
X32495033Y78652853D01*
X32535755Y78709628D01*
X32600707Y78735376D01*
X32602330Y78735515D01*
X32637627Y78738291D01*
X32789390Y78782382D01*
X32925420Y78862830D01*
X33037170Y78974580D01*
X33117618Y79110610D01*
X33161709Y79262373D01*
X33164500Y79297837D01*
X33164499Y81074162D01*
X33161709Y81109627D01*
X33117618Y81261390D01*
X33037170Y81397420D01*
X33037165Y81397426D01*
X33035819Y81398772D01*
X33035100Y81400088D01*
X33032387Y81403586D01*
X33032951Y81404024D01*
X33002334Y81460095D01*
X32999500Y81486453D01*
X32999500Y81700312D01*
X33019185Y81767351D01*
X33071989Y81813106D01*
X33082528Y81817347D01*
X33191690Y81855544D01*
X33191692Y81855545D01*
X33191697Y81855548D01*
X33334884Y81945519D01*
X33334885Y81945520D01*
X33334890Y81945523D01*
X33454477Y82065110D01*
X33473042Y82094656D01*
X33544452Y82208303D01*
X33544454Y82208306D01*
X33544454Y82208308D01*
X33544456Y82208310D01*
X33600313Y82367941D01*
X33600313Y82367942D01*
X33600314Y82367944D01*
X33619249Y82535998D01*
X33619249Y82536003D01*
X33600314Y82704057D01*
X33544454Y82863695D01*
X33544452Y82863698D01*
X33454481Y83006885D01*
X33454476Y83006891D01*
X33453927Y83007440D01*
X33453685Y83007883D01*
X33450136Y83012333D01*
X33450915Y83012955D01*
X33420442Y83068763D01*
X33425426Y83138455D01*
X33467298Y83194388D01*
X33532762Y83218805D01*
X33576203Y83214197D01*
X33633400Y83197580D01*
X33665373Y83188291D01*
X33700837Y83185500D01*
X34077162Y83185501D01*
X34112627Y83188291D01*
X34179405Y83207692D01*
X34248594Y83207692D01*
X34315368Y83188292D01*
X34315371Y83188292D01*
X34315373Y83188291D01*
X34350837Y83185500D01*
X34727162Y83185501D01*
X34762627Y83188291D01*
X34914390Y83232382D01*
X35050420Y83312830D01*
X35162170Y83424580D01*
X35242618Y83560610D01*
X35286709Y83712373D01*
X35289500Y83747837D01*
X35289500Y83926500D01*
X35309185Y83993539D01*
X35361989Y84039294D01*
X35413500Y84050500D01*
X36000503Y84050500D01*
X36000505Y84050500D01*
X36111403Y84080216D01*
X36134840Y84086495D01*
X36134841Y84086496D01*
X36149417Y84090401D01*
X36282927Y84167483D01*
X38251819Y86136375D01*
X38313142Y86169860D01*
X38382834Y86164876D01*
G37*
%TD.AperFunction*%
%TA.AperFunction,Conductor*%
G36*
X29831539Y85215815D02*
G01*
X29877294Y85163011D01*
X29888500Y85111500D01*
X29888500Y83747850D01*
X29888501Y83747825D01*
X29891291Y83712373D01*
X29935380Y83560615D01*
X29935382Y83560609D01*
X29980412Y83484468D01*
X29997595Y83416744D01*
X29985402Y83367549D01*
X29983545Y83363695D01*
X29927685Y83204057D01*
X29908751Y83036003D01*
X29908751Y83035998D01*
X29927685Y82867944D01*
X29983545Y82708306D01*
X29983547Y82708303D01*
X30073518Y82565116D01*
X30073523Y82565110D01*
X30127547Y82511086D01*
X30161032Y82449763D01*
X30156048Y82380071D01*
X30114176Y82324138D01*
X30048712Y82299721D01*
X30007773Y82303630D01*
X29980958Y82310815D01*
X29941082Y82321500D01*
X26902981Y82321500D01*
X26835942Y82341185D01*
X26790187Y82393989D01*
X26780243Y82463147D01*
X26790599Y82497905D01*
X26796745Y82511086D01*
X26830903Y82584337D01*
X26892063Y82812592D01*
X26912659Y83048000D01*
X26892063Y83283408D01*
X26870550Y83363695D01*
X26853189Y83428489D01*
X26854852Y83498339D01*
X26885281Y83548261D01*
X27726821Y84389801D01*
X27788142Y84423284D01*
X27857834Y84418300D01*
X27913767Y84376428D01*
X27938184Y84310964D01*
X27938500Y84302118D01*
X27938500Y83747850D01*
X27938501Y83747825D01*
X27941291Y83712373D01*
X27985380Y83560615D01*
X27985382Y83560610D01*
X28065827Y83424584D01*
X28065834Y83424575D01*
X28177574Y83312835D01*
X28177578Y83312832D01*
X28177580Y83312830D01*
X28313610Y83232382D01*
X28465373Y83188291D01*
X28500837Y83185500D01*
X28877162Y83185501D01*
X28912627Y83188291D01*
X29064390Y83232382D01*
X29200420Y83312830D01*
X29312170Y83424580D01*
X29392618Y83560610D01*
X29436709Y83712373D01*
X29439500Y83747837D01*
X29439499Y85111501D01*
X29459184Y85178539D01*
X29511987Y85224294D01*
X29563499Y85235500D01*
X29764500Y85235500D01*
X29831539Y85215815D01*
G37*
%TD.AperFunction*%
%TA.AperFunction,Conductor*%
G36*
X35494702Y91582562D02*
G01*
X35523984Y91545143D01*
X35549949Y91494183D01*
X35674890Y91322214D01*
X35825209Y91171895D01*
X35825214Y91171891D01*
X35989793Y91052318D01*
X36032459Y90996989D01*
X36038438Y90927375D01*
X36005833Y90865580D01*
X35989793Y90851682D01*
X35825214Y90732110D01*
X35825209Y90732106D01*
X35674890Y90581787D01*
X35549951Y90409821D01*
X35453444Y90220415D01*
X35453443Y90220413D01*
X35453443Y90220412D01*
X35448220Y90204337D01*
X35387753Y90018240D01*
X35354500Y89808287D01*
X35354500Y89595714D01*
X35387753Y89385761D01*
X35453444Y89183586D01*
X35549951Y88994180D01*
X35674890Y88822214D01*
X35825209Y88671895D01*
X35825214Y88671891D01*
X35989793Y88552318D01*
X36032459Y88496989D01*
X36038438Y88427375D01*
X36005833Y88365580D01*
X35989793Y88351682D01*
X35825214Y88232110D01*
X35825209Y88232106D01*
X35674890Y88081787D01*
X35549949Y87909818D01*
X35521536Y87854054D01*
X35473562Y87803259D01*
X35435590Y87790267D01*
X35435768Y87789603D01*
X35427919Y87787500D01*
X35427918Y87787500D01*
X35416176Y87784354D01*
X35356990Y87768496D01*
X35356991Y87768495D01*
X35279004Y87747599D01*
X35279003Y87747598D01*
X35145499Y87670519D01*
X35145493Y87670515D01*
X33527101Y86052124D01*
X33502542Y86033073D01*
X33377580Y85959170D01*
X33377577Y85959168D01*
X33354260Y85935851D01*
X33292936Y85902367D01*
X33223244Y85907353D01*
X33167312Y85949225D01*
X33146805Y85991441D01*
X33134599Y86036995D01*
X33134599Y86036996D01*
X33100611Y86095863D01*
X33057517Y86170505D01*
X32086505Y87141517D01*
X31952995Y87218599D01*
X31952994Y87218600D01*
X31952993Y87218600D01*
X31952991Y87218601D01*
X31927017Y87225560D01*
X31927016Y87225561D01*
X31927016Y87225560D01*
X31865549Y87242030D01*
X31804083Y87258500D01*
X31804082Y87258500D01*
X26835028Y87258500D01*
X26767989Y87278185D01*
X26722234Y87330989D01*
X26712290Y87400147D01*
X26729877Y87444583D01*
X26728326Y87445478D01*
X26731032Y87450166D01*
X26731035Y87450170D01*
X26830903Y87664337D01*
X26892063Y87892592D01*
X26912659Y88128000D01*
X26892063Y88363408D01*
X26830903Y88591663D01*
X26753676Y88757275D01*
X26743185Y88826349D01*
X26771704Y88890133D01*
X26778365Y88897345D01*
X28119793Y90238773D01*
X28181114Y90272256D01*
X28250806Y90267272D01*
X28270592Y90257822D01*
X28302807Y90238771D01*
X28313610Y90232382D01*
X28465373Y90188291D01*
X28500837Y90185500D01*
X28877162Y90185501D01*
X28912627Y90188291D01*
X28979405Y90207692D01*
X29048594Y90207692D01*
X29115368Y90188292D01*
X29115371Y90188292D01*
X29115373Y90188291D01*
X29150837Y90185500D01*
X29527162Y90185501D01*
X29562627Y90188291D01*
X29629405Y90207692D01*
X29698594Y90207692D01*
X29765368Y90188292D01*
X29765371Y90188292D01*
X29765373Y90188291D01*
X29800837Y90185500D01*
X30177162Y90185501D01*
X30212627Y90188291D01*
X30279405Y90207692D01*
X30348594Y90207692D01*
X30415368Y90188292D01*
X30415371Y90188292D01*
X30415373Y90188291D01*
X30450837Y90185500D01*
X30827162Y90185501D01*
X30862627Y90188291D01*
X30929405Y90207692D01*
X30998594Y90207692D01*
X31065368Y90188292D01*
X31065371Y90188292D01*
X31065373Y90188291D01*
X31100837Y90185500D01*
X31477162Y90185501D01*
X31512627Y90188291D01*
X31579405Y90207692D01*
X31648594Y90207692D01*
X31715368Y90188292D01*
X31715371Y90188292D01*
X31715373Y90188291D01*
X31750837Y90185500D01*
X32127162Y90185501D01*
X32162627Y90188291D01*
X32229405Y90207692D01*
X32298594Y90207692D01*
X32365368Y90188292D01*
X32365371Y90188292D01*
X32365373Y90188291D01*
X32400837Y90185500D01*
X32777162Y90185501D01*
X32812627Y90188291D01*
X32879405Y90207692D01*
X32948594Y90207692D01*
X33015368Y90188292D01*
X33015371Y90188292D01*
X33015373Y90188291D01*
X33050837Y90185500D01*
X33427162Y90185501D01*
X33462627Y90188291D01*
X33614390Y90232382D01*
X33750420Y90312830D01*
X33750425Y90312835D01*
X33801319Y90363728D01*
X33862642Y90397213D01*
X33932334Y90392229D01*
X33976681Y90363728D01*
X34027574Y90312835D01*
X34027578Y90312832D01*
X34027580Y90312830D01*
X34163610Y90232382D01*
X34315373Y90188291D01*
X34350837Y90185500D01*
X34727162Y90185501D01*
X34762627Y90188291D01*
X34914390Y90232382D01*
X35050420Y90312830D01*
X35162170Y90424580D01*
X35242618Y90560610D01*
X35286709Y90712373D01*
X35289500Y90747837D01*
X35289499Y91488850D01*
X35309183Y91555888D01*
X35361987Y91601643D01*
X35431146Y91611587D01*
X35494702Y91582562D01*
G37*
%TD.AperFunction*%
%TA.AperFunction,Conductor*%
G36*
X32001809Y97770315D02*
G01*
X32047564Y97717511D01*
X32057508Y97648353D01*
X32028483Y97584797D01*
X32022451Y97578319D01*
X29866949Y95422819D01*
X29805626Y95389334D01*
X29779268Y95386500D01*
X29492809Y95386500D01*
X29492784Y95386499D01*
X29455645Y95383577D01*
X29296597Y95337369D01*
X29210191Y95286268D01*
X29147070Y95269000D01*
X28530930Y95269000D01*
X28467809Y95286268D01*
X28381401Y95337370D01*
X28381396Y95337372D01*
X28222362Y95383576D01*
X28222356Y95383577D01*
X28185203Y95386500D01*
X27742809Y95386500D01*
X27742784Y95386499D01*
X27705645Y95383577D01*
X27546597Y95337369D01*
X27460191Y95286268D01*
X27397070Y95269000D01*
X27148729Y95269000D01*
X27081690Y95288685D01*
X27061048Y95305319D01*
X26943818Y95422549D01*
X26910333Y95483872D01*
X26907499Y95510230D01*
X26907499Y96645871D01*
X26907498Y96645877D01*
X26901091Y96705484D01*
X26850797Y96840329D01*
X26850793Y96840336D01*
X26764547Y96955545D01*
X26764544Y96955548D01*
X26649335Y97041794D01*
X26649328Y97041798D01*
X26514482Y97092092D01*
X26514483Y97092092D01*
X26454883Y97098499D01*
X26454881Y97098500D01*
X26454873Y97098500D01*
X26454865Y97098500D01*
X25319230Y97098500D01*
X25252191Y97118185D01*
X25231549Y97134819D01*
X24788049Y97578319D01*
X24754564Y97639642D01*
X24759548Y97709334D01*
X24801420Y97765267D01*
X24866884Y97789684D01*
X24875730Y97790000D01*
X31934770Y97790000D01*
X32001809Y97770315D01*
G37*
%TD.AperFunction*%
%TD*%
M02*
