M48
; DRILL file {KiCad 7.0.8} date Tue Jan 30 16:00:34 2024
; FORMAT={-:-/ absolute / inch / decimal}
; #@! TF.CreationDate,2024-01-30T16:00:34+08:00
; #@! TF.GenerationSoftware,Kicad,Pcbnew,7.0.8
; #@! TF.FileFunction,Plated,1,2,PTH
FMAT,2
INCH
; #@! TA.AperFunction,Plated,PTH,ViaDrill
T1C0.0118
; #@! TA.AperFunction,Plated,PTH,ComponentDrill
T2C0.0236
; #@! TA.AperFunction,Plated,PTH,ComponentDrill
T3C0.0315
; #@! TA.AperFunction,Plated,PTH,ComponentDrill
T4C0.0374
; #@! TA.AperFunction,Plated,PTH,ComponentDrill
T5C0.0394
; #@! TA.AperFunction,Plated,PTH,ComponentDrill
T6C0.0433
; #@! TA.AperFunction,Plated,PTH,ComponentDrill
T7C0.0472
; #@! TA.AperFunction,Plated,PTH,ComponentDrill
T8C0.0512
%
G90
G05
T1
X0.2565Y3.7357
X0.2565Y3.3465
X0.2565Y2.9573
X0.2565Y2.5681
X0.2565Y2.1789
X0.2565Y1.7897
X0.2565Y1.4005
X0.2565Y1.0113
X0.538Y3.7357
X0.538Y3.3465
X0.538Y2.9573
X0.538Y2.5681
X0.538Y2.1789
X0.538Y1.4005
X0.538Y1.0113
X0.8194Y3.7357
X0.8194Y3.3465
X0.8194Y2.9573
X0.8194Y2.5681
X0.8194Y2.1789
X0.8194Y1.7897
X0.8194Y1.4005
X0.8194Y1.0113
X0.96Y0.7
X1.1Y3.37
X1.1Y2.6277
X1.12Y3.12
X1.12Y3.04
X1.12Y2.96
X1.13Y2.56
X1.1639Y2.2672
X1.1639Y2.0191
X1.17Y3.34
X1.17Y2.56
X1.22Y3.23
X1.24Y3.29
X1.24Y3.26
X1.25Y2.84
X1.28Y3.26
X1.38Y0.3032
X1.38Y0.2632
X1.3883Y2.2672
X1.3883Y2.0191
X1.44Y0.3032
X1.44Y0.2632
X1.46Y0.4
X1.46Y0.34
X1.49Y0.4
X1.5Y0.3032
X1.5Y0.2632
X1.52Y0.4
X1.52Y0.34
T2
X0.97Y0.07
X1.0487Y0.2669
T3
X0.0596Y0.7698
X0.0596Y0.6698
X0.3596Y0.7698
X0.3596Y0.6698
X1.0494Y0.8296
X1.0494Y0.5296
X1.1494Y0.8296
X1.1494Y0.5296
X1.2494Y0.8296
X1.2494Y0.5296
X1.49Y2.6
X1.49Y2.5
X1.49Y2.4
X1.49Y2.3
T4
X1.45Y3.7284
X1.45Y3.63
X1.45Y3.5316
X1.45Y3.4331
X1.45Y3.19
X1.45Y3.0916
X1.45Y2.9931
X1.45Y2.8947
T5
X0.081Y3.7696
X0.081Y3.6696
X0.081Y3.5696
X0.081Y3.4696
X0.081Y3.3696
X0.081Y3.2696
X0.081Y3.1696
X0.081Y3.0696
X0.081Y2.9696
X0.081Y2.8696
X0.081Y2.7696
X0.081Y2.6696
X0.081Y2.5696
X0.081Y2.4696
X0.081Y2.3696
X0.081Y2.2696
X0.081Y2.1696
X0.081Y2.0696
X0.081Y1.9696
X0.1272Y1.7224
X0.1272Y1.0138
X1.0062Y3.7696
X1.0062Y3.6696
X1.0062Y3.5696
X1.0062Y3.4696
X1.0062Y3.3696
X1.0062Y3.2696
X1.0062Y3.1696
X1.0062Y3.0696
X1.0062Y2.9696
X1.0062Y2.8696
X1.0062Y2.7696
X1.0062Y2.6696
X1.0062Y2.5696
X1.0062Y2.4696
X1.0062Y2.3696
X1.0062Y2.2696
X1.0062Y2.1696
X1.0062Y2.0696
X1.0062Y1.9696
X1.45Y1.4862
X1.45Y1.25
T6
X1.4972Y0.67
X1.4972Y0.57
X1.4972Y0.47
T7
X0.13Y0.14
X0.33Y0.14
X1.25Y0.14
X1.45Y0.14
T8
X0.0665Y0.47
X0.2476Y0.47
X0.6924Y0.47
X0.8735Y0.47
T0
M30
