%TF.GenerationSoftware,KiCad,Pcbnew,7.0.8*%
%TF.CreationDate,2024-01-30T16:00:28+08:00*%
%TF.ProjectId,esp32_temperature_controller,65737033-325f-4746-956d-706572617475,rev?*%
%TF.SameCoordinates,PX50e7ea0PY815a420*%
%TF.FileFunction,Paste,Bot*%
%TF.FilePolarity,Positive*%
%FSLAX46Y46*%
G04 Gerber Fmt 4.6, Leading zero omitted, Abs format (unit mm)*
G04 Created by KiCad (PCBNEW 7.0.8) date 2024-01-30 16:00:28*
%MOMM*%
%LPD*%
G01*
G04 APERTURE LIST*
G04 Aperture macros list*
%AMRoundRect*
0 Rectangle with rounded corners*
0 $1 Rounding radius*
0 $2 $3 $4 $5 $6 $7 $8 $9 X,Y pos of 4 corners*
0 Add a 4 corners polygon primitive as box body*
4,1,4,$2,$3,$4,$5,$6,$7,$8,$9,$2,$3,0*
0 Add four circle primitives for the rounded corners*
1,1,$1+$1,$2,$3*
1,1,$1+$1,$4,$5*
1,1,$1+$1,$6,$7*
1,1,$1+$1,$8,$9*
0 Add four rect primitives between the rounded corners*
20,1,$1+$1,$2,$3,$4,$5,0*
20,1,$1+$1,$4,$5,$6,$7,0*
20,1,$1+$1,$6,$7,$8,$9,0*
20,1,$1+$1,$8,$9,$2,$3,0*%
G04 Aperture macros list end*
%ADD10RoundRect,0.250000X-0.362500X-1.425000X0.362500X-1.425000X0.362500X1.425000X-0.362500X1.425000X0*%
%ADD11RoundRect,0.155000X0.155000X-0.212500X0.155000X0.212500X-0.155000X0.212500X-0.155000X-0.212500X0*%
%ADD12RoundRect,0.160000X0.197500X0.160000X-0.197500X0.160000X-0.197500X-0.160000X0.197500X-0.160000X0*%
%ADD13RoundRect,0.250000X-1.000000X-0.650000X1.000000X-0.650000X1.000000X0.650000X-1.000000X0.650000X0*%
%ADD14RoundRect,0.250000X-1.050000X-0.550000X1.050000X-0.550000X1.050000X0.550000X-1.050000X0.550000X0*%
%ADD15RoundRect,0.250000X-0.425000X0.425000X-0.425000X-0.425000X0.425000X-0.425000X0.425000X0.425000X0*%
%ADD16RoundRect,0.075000X-0.075000X0.325000X-0.075000X-0.325000X0.075000X-0.325000X0.075000X0.325000X0*%
%ADD17RoundRect,0.075000X-0.325000X0.075000X-0.325000X-0.075000X0.325000X-0.075000X0.325000X0.075000X0*%
%ADD18RoundRect,0.237500X0.237500X-0.250000X0.237500X0.250000X-0.237500X0.250000X-0.237500X-0.250000X0*%
%ADD19RoundRect,0.155000X-0.155000X0.212500X-0.155000X-0.212500X0.155000X-0.212500X0.155000X0.212500X0*%
G04 APERTURE END LIST*
D10*
%TO.C,R5*%
X29551500Y16936000D03*
X35476500Y16936000D03*
%TD*%
D11*
%TO.C,C6*%
X29210000Y62873000D03*
X29210000Y64008000D03*
%TD*%
%TO.C,C7*%
X27940000Y64651000D03*
X27940000Y65786000D03*
%TD*%
D12*
%TO.C,R7*%
X32093500Y91440000D03*
X30898500Y91440000D03*
%TD*%
D13*
%TO.C,D4*%
X12224000Y16002000D03*
X16224000Y16002000D03*
%TD*%
D14*
%TO.C,C2*%
X3280000Y38362000D03*
X6880000Y38362000D03*
%TD*%
D13*
%TO.C,D3*%
X12224000Y20320000D03*
X16224000Y20320000D03*
%TD*%
D15*
%TO.C,U1*%
X32560000Y87859500D03*
X30880000Y87859500D03*
X32560000Y86179500D03*
X30880000Y86179500D03*
D16*
X30420000Y89469500D03*
X31070000Y89469500D03*
X31720000Y89469500D03*
X32370000Y89469500D03*
X33020000Y89469500D03*
D17*
X34170000Y88319500D03*
X34170000Y87669500D03*
X34170000Y87019500D03*
X34170000Y86369500D03*
X34170000Y85719500D03*
D16*
X33020000Y84569500D03*
X32370000Y84569500D03*
X31720000Y84569500D03*
X31070000Y84569500D03*
X30420000Y84569500D03*
D17*
X29270000Y85719500D03*
X29270000Y86369500D03*
X29270000Y87019500D03*
X29270000Y87669500D03*
X29270000Y88319500D03*
%TD*%
D11*
%TO.C,C4*%
X27940000Y86554500D03*
X27940000Y87689500D03*
%TD*%
D13*
%TO.C,D2*%
X19844000Y16002000D03*
X23844000Y16002000D03*
%TD*%
D18*
%TO.C,R2*%
X14224000Y11533500D03*
X14224000Y13358500D03*
%TD*%
D14*
%TO.C,C1*%
X3280000Y32512000D03*
X6880000Y32512000D03*
%TD*%
D19*
%TO.C,C3*%
X27940000Y90229500D03*
X27940000Y89094500D03*
%TD*%
D13*
%TO.C,D1*%
X19844000Y20320000D03*
X23844000Y20320000D03*
%TD*%
D12*
%TO.C,R3*%
X3645500Y22098000D03*
X2450500Y22098000D03*
%TD*%
M02*
