M48
; DRILL file {KiCad 8.0.0} date 2024-02-27T14:42:53+0800
; FORMAT={-:-/ absolute / inch / decimal}
; #@! TF.CreationDate,2024-02-27T14:42:53+08:00
; #@! TF.GenerationSoftware,Kicad,Pcbnew,8.0.0
; #@! TF.FileFunction,Plated,1,2,PTH
FMAT,2
INCH
; #@! TA.AperFunction,Plated,PTH,ViaDrill
T1C0.0118
; #@! TA.AperFunction,Plated,PTH,ComponentDrill
T2C0.0236
; #@! TA.AperFunction,Plated,PTH,ComponentDrill
T3C0.0315
; #@! TA.AperFunction,Plated,PTH,ComponentDrill
T4C0.0374
; #@! TA.AperFunction,Plated,PTH,ComponentDrill
T5C0.0394
; #@! TA.AperFunction,Plated,PTH,ComponentDrill
T6C0.0433
; #@! TA.AperFunction,Plated,PTH,ComponentDrill
T7C0.0512
; #@! TA.AperFunction,Plated,PTH,ComponentDrill
T8C0.0630
%
G90
G05
T1
X0.038Y0.9286
X0.1541Y3.0376
X0.1541Y2.9376
X0.1541Y2.8376
X0.1541Y2.7376
X0.1817Y3.7376
X0.1817Y3.6376
X0.1817Y3.5376
X0.1817Y3.4376
X0.2565Y1.7897
X0.2565Y1.4005
X0.2565Y1.0113
X0.3037Y3.7376
X0.3037Y3.6376
X0.3037Y3.5376
X0.3037Y3.4376
X0.3037Y3.3376
X0.3037Y3.2376
X0.3037Y3.0376
X0.3037Y2.9376
X0.3037Y2.8376
X0.3037Y2.7376
X0.5202Y3.4372
X0.5202Y3.3372
X0.5202Y3.2372
X0.5202Y3.1372
X0.538Y1.4005
X0.538Y1.0113
X0.5399Y1.7888
X0.7092Y3.4357
X0.7092Y3.3357
X0.7092Y3.2357
X0.7092Y3.1357
X0.723Y2.4431
X0.723Y2.3431
X0.723Y2.2431
X0.723Y2.1431
X0.8194Y1.7897
X0.8194Y1.4005
X0.8194Y1.0113
X0.8943Y3.4357
X0.8943Y3.3357
X0.8943Y3.2357
X0.8943Y3.1357
X0.96Y0.7
X1.0793Y3.1865
X1.0911Y3.3183
X1.1443Y2.7652
X1.1462Y3.8065
X1.1639Y1.9837
X1.1679Y3.2809
X1.1817Y2.0624
X1.2053Y3.8065
X1.2072Y3.2691
X1.2506Y3.1038
X1.2545Y3.2494
X1.2939Y3.2494
X1.3313Y3.4857
X1.3628Y3.09
X1.38Y0.3032
X1.38Y0.2632
X1.3824Y2.8223
X1.3883Y1.9837
X1.4061Y2.0624
X1.4159Y3.2809
X1.44Y0.3032
X1.44Y0.2632
X1.46Y0.4
X1.46Y0.34
X1.4828Y3.3223
X1.49Y0.4
X1.5Y0.3032
X1.5Y0.2632
X1.52Y0.4
X1.52Y0.34
T2
X0.97Y0.07
X1.0487Y0.2669
T3
X0.0596Y0.7698
X0.0596Y0.6698
X0.3596Y0.7698
X0.3596Y0.6698
X1.0494Y0.8296
X1.0494Y0.5296
X1.1494Y0.8296
X1.1494Y0.5296
X1.2494Y0.8296
X1.2494Y0.5296
X1.49Y2.6012
X1.49Y2.5012
X1.49Y2.4012
X1.49Y2.3012
T4
X1.45Y3.7284
X1.45Y3.63
X1.45Y3.5316
X1.45Y3.4331
X1.45Y3.19
X1.45Y3.0916
X1.45Y2.9931
X1.45Y2.8947
T5
X0.081Y3.7696
X0.081Y3.6696
X0.081Y3.5696
X0.081Y3.4696
X0.081Y3.3696
X0.081Y3.2696
X0.081Y3.1696
X0.081Y3.0696
X0.081Y2.9696
X0.081Y2.8696
X0.081Y2.7696
X0.081Y2.6696
X0.081Y2.5696
X0.081Y2.4696
X0.081Y2.3696
X0.081Y2.2696
X0.081Y2.1696
X0.081Y2.0696
X0.081Y1.9696
X0.1272Y1.7224
X0.1272Y1.0138
X0.4671Y2.7876
X0.4671Y2.6876
X0.4671Y2.5876
X0.4671Y2.4876
X0.4671Y2.3876
X0.4671Y2.2876
X0.4671Y2.1876
X0.4671Y2.0876
X0.4671Y1.9876
X1.0062Y3.7696
X1.0062Y3.6696
X1.0062Y3.5696
X1.0062Y3.4696
X1.0062Y3.3696
X1.0062Y3.2696
X1.0062Y3.1696
X1.0062Y3.0696
X1.0062Y2.9696
X1.0062Y2.8696
X1.0062Y2.7696
X1.0062Y2.6696
X1.0062Y2.5696
X1.0062Y2.4696
X1.0062Y2.3696
X1.0062Y2.2696
X1.0062Y2.1696
X1.0062Y2.0696
X1.0062Y1.9696
X1.45Y1.4862
X1.45Y1.25
T6
X1.4972Y0.67
X1.4972Y0.57
X1.4972Y0.47
T7
X0.0665Y0.47
X0.2476Y0.47
X0.6924Y0.47
X0.8735Y0.47
T8
X0.13Y0.14
X0.33Y0.14
X1.25Y0.14
X1.45Y0.14
M30
